<svg xmlns="http://www.w3.org/2000/svg" xmlns:xlink="http://www.w3.org/1999/xlink" width="500" zoomAndPan="magnify" viewBox="0 0 375 374.999991" height="500" preserveAspectRatio="xMidYMid meet" version="1.0"><defs><filter x="0%" y="0%" width="100%" height="100%" id="671b747075"><feColorMatrix values="0 0 0 0 1 0 0 0 0 1 0 0 0 0 1 0 0 0 1 0" color-interpolation-filters="sRGB"/></filter><g/><clipPath id="15841b8c8a"><path d="M 150 157 L 375 157 L 375 374.816406 L 150 374.816406 Z M 150 157 " clip-rule="nonzero"/></clipPath><clipPath id="508cf38776"><path d="M 176 183 L 375 183 L 375 374.816406 L 176 374.816406 Z M 176 183 " clip-rule="nonzero"/></clipPath><clipPath id="1538c79103"><path d="M 202 208 L 375 208 L 375 374.816406 L 202 374.816406 Z M 202 208 " clip-rule="nonzero"/></clipPath><clipPath id="74309e7ff1"><path d="M 228 234 L 375 234 L 375 374.816406 L 228 374.816406 Z M 228 234 " clip-rule="nonzero"/></clipPath><clipPath id="ea1bceee37"><path d="M 0 0.246094 L 267 0.246094 L 267 256 L 0 256 Z M 0 0.246094 " clip-rule="nonzero"/></clipPath><clipPath id="4696cdfcbf"><path d="M 0 0.246094 L 236 0.246094 L 236 226 L 0 226 Z M 0 0.246094 " clip-rule="nonzero"/></clipPath><clipPath id="237504118f"><path d="M 0 0.246094 L 206 0.246094 L 206 196 L 0 196 Z M 0 0.246094 " clip-rule="nonzero"/></clipPath><clipPath id="e198689e2a"><path d="M 0 0.246094 L 175 0.246094 L 175 166 L 0 166 Z M 0 0.246094 " clip-rule="nonzero"/></clipPath><clipPath id="d8a560c084"><path d="M 0 1.148438 L 375 1.148438 L 375 293.882812 L 0 293.882812 Z M 0 1.148438 " clip-rule="nonzero"/></clipPath><clipPath id="4ffa7ae9c3"><path d="M 0 0.148438 L 375 0.148438 L 375 292.882812 L 0 292.882812 Z M 0 0.148438 " clip-rule="nonzero"/></clipPath><clipPath id="67ff8e896d"><path d="M 0 0.148438 L 375 0.148438 L 375 292.882812 L 0 292.882812 Z M 0 0.148438 " clip-rule="nonzero"/></clipPath><linearGradient x1="18.720739" gradientTransform="matrix(0.881987, 0, 0, 0.880738, -16.511446, 98.062312)" y1="82.5" x2="443.896997" gradientUnits="userSpaceOnUse" y2="82.5" id="8c5da05c00"><stop stop-opacity="1" stop-color="rgb(36.468506%, 87.838745%, 90.19928%)" offset="0"/><stop stop-opacity="1" stop-color="rgb(36.419678%, 87.759399%, 90.168762%)" offset="0.125"/><stop stop-opacity="1" stop-color="rgb(36.180115%, 87.373352%, 90.022278%)" offset="0.128906"/><stop stop-opacity="1" stop-color="rgb(35.990906%, 87.068176%, 89.906311%)" offset="0.132812"/><stop stop-opacity="1" stop-color="rgb(35.801697%, 86.761475%, 89.788818%)" offset="0.136719"/><stop stop-opacity="1" stop-color="rgb(35.612488%, 86.456299%, 89.672852%)" offset="0.140625"/><stop stop-opacity="1" stop-color="rgb(35.421753%, 86.149597%, 89.556885%)" offset="0.144531"/><stop stop-opacity="1" stop-color="rgb(35.232544%, 85.844421%, 89.440918%)" offset="0.148438"/><stop stop-opacity="1" stop-color="rgb(35.043335%, 85.53772%, 89.324951%)" offset="0.152344"/><stop stop-opacity="1" stop-color="rgb(34.854126%, 85.232544%, 89.208984%)" offset="0.15625"/><stop stop-opacity="1" stop-color="rgb(34.663391%, 84.927368%, 89.091492%)" offset="0.160156"/><stop stop-opacity="1" stop-color="rgb(34.474182%, 84.622192%, 88.975525%)" offset="0.164063"/><stop stop-opacity="1" stop-color="rgb(34.283447%, 84.315491%, 88.859558%)" offset="0.167969"/><stop stop-opacity="1" stop-color="rgb(34.094238%, 84.010315%, 88.743591%)" offset="0.171875"/><stop stop-opacity="1" stop-color="rgb(33.905029%, 83.703613%, 88.627625%)" offset="0.175781"/><stop stop-opacity="1" stop-color="rgb(33.71582%, 83.398438%, 88.511658%)" offset="0.179688"/><stop stop-opacity="1" stop-color="rgb(33.525085%, 83.091736%, 88.394165%)" offset="0.183594"/><stop stop-opacity="1" stop-color="rgb(33.335876%, 82.78656%, 88.278198%)" offset="0.1875"/><stop stop-opacity="1" stop-color="rgb(33.146667%, 82.479858%, 88.162231%)" offset="0.191406"/><stop stop-opacity="1" stop-color="rgb(32.957458%, 82.174683%, 88.046265%)" offset="0.195313"/><stop stop-opacity="1" stop-color="rgb(32.766724%, 81.869507%, 87.930298%)" offset="0.199219"/><stop stop-opacity="1" stop-color="rgb(32.577515%, 81.564331%, 87.814331%)" offset="0.203125"/><stop stop-opacity="1" stop-color="rgb(32.388306%, 81.257629%, 87.696838%)" offset="0.207031"/><stop stop-opacity="1" stop-color="rgb(32.199097%, 80.952454%, 87.580872%)" offset="0.210938"/><stop stop-opacity="1" stop-color="rgb(32.008362%, 80.645752%, 87.464905%)" offset="0.214844"/><stop stop-opacity="1" stop-color="rgb(31.819153%, 80.340576%, 87.348938%)" offset="0.21875"/><stop stop-opacity="1" stop-color="rgb(31.629944%, 80.033875%, 87.231445%)" offset="0.222656"/><stop stop-opacity="1" stop-color="rgb(31.440735%, 79.728699%, 87.115479%)" offset="0.226563"/><stop stop-opacity="1" stop-color="rgb(31.25%, 79.421997%, 86.999512%)" offset="0.230469"/><stop stop-opacity="1" stop-color="rgb(31.060791%, 79.116821%, 86.883545%)" offset="0.234375"/><stop stop-opacity="1" stop-color="rgb(30.871582%, 78.811646%, 86.767578%)" offset="0.238281"/><stop stop-opacity="1" stop-color="rgb(30.682373%, 78.50647%, 86.651611%)" offset="0.242188"/><stop stop-opacity="1" stop-color="rgb(30.491638%, 78.199768%, 86.534119%)" offset="0.246094"/><stop stop-opacity="1" stop-color="rgb(30.302429%, 77.894592%, 86.418152%)" offset="0.25"/><stop stop-opacity="1" stop-color="rgb(30.11322%, 77.587891%, 86.302185%)" offset="0.253906"/><stop stop-opacity="1" stop-color="rgb(29.924011%, 77.282715%, 86.186218%)" offset="0.257812"/><stop stop-opacity="1" stop-color="rgb(29.733276%, 76.976013%, 86.070251%)" offset="0.261719"/><stop stop-opacity="1" stop-color="rgb(29.544067%, 76.670837%, 85.954285%)" offset="0.265625"/><stop stop-opacity="1" stop-color="rgb(29.354858%, 76.364136%, 85.836792%)" offset="0.269531"/><stop stop-opacity="1" stop-color="rgb(29.165649%, 76.05896%, 85.720825%)" offset="0.273438"/><stop stop-opacity="1" stop-color="rgb(28.974915%, 75.752258%, 85.604858%)" offset="0.277344"/><stop stop-opacity="1" stop-color="rgb(28.785706%, 75.447083%, 85.488892%)" offset="0.28125"/><stop stop-opacity="1" stop-color="rgb(28.596497%, 75.141907%, 85.372925%)" offset="0.285156"/><stop stop-opacity="1" stop-color="rgb(28.407288%, 74.836731%, 85.256958%)" offset="0.289063"/><stop stop-opacity="1" stop-color="rgb(28.216553%, 74.530029%, 85.139465%)" offset="0.292969"/><stop stop-opacity="1" stop-color="rgb(28.027344%, 74.224854%, 85.023499%)" offset="0.296875"/><stop stop-opacity="1" stop-color="rgb(27.838135%, 73.918152%, 84.907532%)" offset="0.300781"/><stop stop-opacity="1" stop-color="rgb(27.648926%, 73.612976%, 84.791565%)" offset="0.304688"/><stop stop-opacity="1" stop-color="rgb(27.458191%, 73.306274%, 84.674072%)" offset="0.308594"/><stop stop-opacity="1" stop-color="rgb(27.268982%, 73.001099%, 84.558105%)" offset="0.3125"/><stop stop-opacity="1" stop-color="rgb(27.079773%, 72.694397%, 84.442139%)" offset="0.316406"/><stop stop-opacity="1" stop-color="rgb(26.890564%, 72.389221%, 84.326172%)" offset="0.320312"/><stop stop-opacity="1" stop-color="rgb(26.699829%, 72.084045%, 84.210205%)" offset="0.324219"/><stop stop-opacity="1" stop-color="rgb(26.51062%, 71.77887%, 84.094238%)" offset="0.328125"/><stop stop-opacity="1" stop-color="rgb(26.321411%, 71.472168%, 83.976746%)" offset="0.332031"/><stop stop-opacity="1" stop-color="rgb(26.132202%, 71.166992%, 83.860779%)" offset="0.335938"/><stop stop-opacity="1" stop-color="rgb(25.941467%, 70.860291%, 83.744812%)" offset="0.339844"/><stop stop-opacity="1" stop-color="rgb(25.752258%, 70.555115%, 83.628845%)" offset="0.34375"/><stop stop-opacity="1" stop-color="rgb(25.563049%, 70.248413%, 83.512878%)" offset="0.347656"/><stop stop-opacity="1" stop-color="rgb(25.37384%, 69.943237%, 83.396912%)" offset="0.351562"/><stop stop-opacity="1" stop-color="rgb(25.183105%, 69.636536%, 83.279419%)" offset="0.355469"/><stop stop-opacity="1" stop-color="rgb(24.993896%, 69.33136%, 83.163452%)" offset="0.359375"/><stop stop-opacity="1" stop-color="rgb(24.804688%, 69.026184%, 83.047485%)" offset="0.363281"/><stop stop-opacity="1" stop-color="rgb(24.615479%, 68.721008%, 82.931519%)" offset="0.367188"/><stop stop-opacity="1" stop-color="rgb(24.424744%, 68.414307%, 82.815552%)" offset="0.371094"/><stop stop-opacity="1" stop-color="rgb(24.235535%, 68.109131%, 82.699585%)" offset="0.375"/><stop stop-opacity="1" stop-color="rgb(24.046326%, 67.802429%, 82.582092%)" offset="0.378906"/><stop stop-opacity="1" stop-color="rgb(23.857117%, 67.497253%, 82.466125%)" offset="0.382812"/><stop stop-opacity="1" stop-color="rgb(23.666382%, 67.190552%, 82.350159%)" offset="0.386719"/><stop stop-opacity="1" stop-color="rgb(23.477173%, 66.885376%, 82.234192%)" offset="0.390625"/><stop stop-opacity="1" stop-color="rgb(23.287964%, 66.578674%, 82.116699%)" offset="0.394531"/><stop stop-opacity="1" stop-color="rgb(23.098755%, 66.273499%, 82.000732%)" offset="0.398438"/><stop stop-opacity="1" stop-color="rgb(22.90802%, 65.968323%, 81.884766%)" offset="0.402344"/><stop stop-opacity="1" stop-color="rgb(22.718811%, 65.663147%, 81.768799%)" offset="0.40625"/><stop stop-opacity="1" stop-color="rgb(22.529602%, 65.356445%, 81.652832%)" offset="0.410156"/><stop stop-opacity="1" stop-color="rgb(22.340393%, 65.05127%, 81.536865%)" offset="0.414062"/><stop stop-opacity="1" stop-color="rgb(22.149658%, 64.744568%, 81.419373%)" offset="0.417969"/><stop stop-opacity="1" stop-color="rgb(21.960449%, 64.439392%, 81.303406%)" offset="0.421875"/><stop stop-opacity="1" stop-color="rgb(21.77124%, 64.13269%, 81.187439%)" offset="0.425781"/><stop stop-opacity="1" stop-color="rgb(21.582031%, 63.827515%, 81.071472%)" offset="0.429688"/><stop stop-opacity="1" stop-color="rgb(21.391296%, 63.520813%, 80.955505%)" offset="0.433594"/><stop stop-opacity="1" stop-color="rgb(21.202087%, 63.215637%, 80.839539%)" offset="0.4375"/><stop stop-opacity="1" stop-color="rgb(21.012878%, 62.910461%, 80.722046%)" offset="0.441406"/><stop stop-opacity="1" stop-color="rgb(20.823669%, 62.605286%, 80.606079%)" offset="0.445312"/><stop stop-opacity="1" stop-color="rgb(20.632935%, 62.298584%, 80.490112%)" offset="0.449219"/><stop stop-opacity="1" stop-color="rgb(20.443726%, 61.993408%, 80.374146%)" offset="0.453125"/><stop stop-opacity="1" stop-color="rgb(20.254517%, 61.686707%, 80.258179%)" offset="0.457031"/><stop stop-opacity="1" stop-color="rgb(20.065308%, 61.381531%, 80.142212%)" offset="0.460938"/><stop stop-opacity="1" stop-color="rgb(19.874573%, 61.074829%, 80.024719%)" offset="0.464844"/><stop stop-opacity="1" stop-color="rgb(19.685364%, 60.769653%, 79.908752%)" offset="0.46875"/><stop stop-opacity="1" stop-color="rgb(19.496155%, 60.462952%, 79.792786%)" offset="0.472656"/><stop stop-opacity="1" stop-color="rgb(19.306946%, 60.157776%, 79.676819%)" offset="0.476562"/><stop stop-opacity="1" stop-color="rgb(19.116211%, 59.851074%, 79.559326%)" offset="0.480469"/><stop stop-opacity="1" stop-color="rgb(18.927002%, 59.545898%, 79.443359%)" offset="0.484375"/><stop stop-opacity="1" stop-color="rgb(18.737793%, 59.240723%, 79.327393%)" offset="0.488281"/><stop stop-opacity="1" stop-color="rgb(18.548584%, 58.935547%, 79.211426%)" offset="0.492188"/><stop stop-opacity="1" stop-color="rgb(18.357849%, 58.628845%, 79.095459%)" offset="0.496094"/><stop stop-opacity="1" stop-color="rgb(18.16864%, 58.323669%, 78.979492%)" offset="0.5"/><stop stop-opacity="1" stop-color="rgb(17.979431%, 58.016968%, 78.862%)" offset="0.503906"/><stop stop-opacity="1" stop-color="rgb(17.790222%, 57.711792%, 78.746033%)" offset="0.507812"/><stop stop-opacity="1" stop-color="rgb(17.599487%, 57.40509%, 78.630066%)" offset="0.511719"/><stop stop-opacity="1" stop-color="rgb(17.410278%, 57.099915%, 78.514099%)" offset="0.515625"/><stop stop-opacity="1" stop-color="rgb(17.219543%, 56.793213%, 78.398132%)" offset="0.519531"/><stop stop-opacity="1" stop-color="rgb(17.030334%, 56.488037%, 78.282166%)" offset="0.523438"/><stop stop-opacity="1" stop-color="rgb(16.841125%, 56.182861%, 78.164673%)" offset="0.527344"/><stop stop-opacity="1" stop-color="rgb(16.651917%, 55.877686%, 78.048706%)" offset="0.53125"/><stop stop-opacity="1" stop-color="rgb(16.461182%, 55.570984%, 77.932739%)" offset="0.535156"/><stop stop-opacity="1" stop-color="rgb(16.271973%, 55.265808%, 77.816772%)" offset="0.539063"/><stop stop-opacity="1" stop-color="rgb(16.082764%, 54.959106%, 77.700806%)" offset="0.542969"/><stop stop-opacity="1" stop-color="rgb(15.893555%, 54.653931%, 77.584839%)" offset="0.546875"/><stop stop-opacity="1" stop-color="rgb(15.70282%, 54.347229%, 77.467346%)" offset="0.550781"/><stop stop-opacity="1" stop-color="rgb(15.513611%, 54.042053%, 77.351379%)" offset="0.554688"/><stop stop-opacity="1" stop-color="rgb(15.324402%, 53.735352%, 77.235413%)" offset="0.558594"/><stop stop-opacity="1" stop-color="rgb(15.135193%, 53.430176%, 77.119446%)" offset="0.5625"/><stop stop-opacity="1" stop-color="rgb(14.944458%, 53.125%, 77.001953%)" offset="0.566406"/><stop stop-opacity="1" stop-color="rgb(14.755249%, 52.819824%, 76.885986%)" offset="0.570312"/><stop stop-opacity="1" stop-color="rgb(14.56604%, 52.513123%, 76.77002%)" offset="0.574219"/><stop stop-opacity="1" stop-color="rgb(14.376831%, 52.207947%, 76.654053%)" offset="0.578125"/><stop stop-opacity="1" stop-color="rgb(14.186096%, 51.901245%, 76.538086%)" offset="0.582031"/><stop stop-opacity="1" stop-color="rgb(13.996887%, 51.596069%, 76.422119%)" offset="0.585937"/><stop stop-opacity="1" stop-color="rgb(13.807678%, 51.289368%, 76.304626%)" offset="0.589844"/><stop stop-opacity="1" stop-color="rgb(13.618469%, 50.984192%, 76.18866%)" offset="0.59375"/><stop stop-opacity="1" stop-color="rgb(13.427734%, 50.67749%, 76.072693%)" offset="0.597656"/><stop stop-opacity="1" stop-color="rgb(13.238525%, 50.372314%, 75.956726%)" offset="0.601562"/><stop stop-opacity="1" stop-color="rgb(13.049316%, 50.067139%, 75.840759%)" offset="0.605469"/><stop stop-opacity="1" stop-color="rgb(12.860107%, 49.761963%, 75.724792%)" offset="0.609375"/><stop stop-opacity="1" stop-color="rgb(12.669373%, 49.455261%, 75.6073%)" offset="0.613281"/><stop stop-opacity="1" stop-color="rgb(12.480164%, 49.150085%, 75.491333%)" offset="0.617187"/><stop stop-opacity="1" stop-color="rgb(12.290955%, 48.843384%, 75.375366%)" offset="0.621094"/><stop stop-opacity="1" stop-color="rgb(12.101746%, 48.538208%, 75.259399%)" offset="0.625"/><stop stop-opacity="1" stop-color="rgb(11.911011%, 48.231506%, 75.143433%)" offset="0.628906"/><stop stop-opacity="1" stop-color="rgb(11.721802%, 47.926331%, 75.027466%)" offset="0.632812"/><stop stop-opacity="1" stop-color="rgb(11.532593%, 47.619629%, 74.909973%)" offset="0.636719"/><stop stop-opacity="1" stop-color="rgb(11.343384%, 47.314453%, 74.794006%)" offset="0.640625"/><stop stop-opacity="1" stop-color="rgb(11.152649%, 47.009277%, 74.67804%)" offset="0.644531"/><stop stop-opacity="1" stop-color="rgb(10.96344%, 46.704102%, 74.562073%)" offset="0.648437"/><stop stop-opacity="1" stop-color="rgb(10.774231%, 46.3974%, 74.44458%)" offset="0.652344"/><stop stop-opacity="1" stop-color="rgb(10.585022%, 46.092224%, 74.328613%)" offset="0.65625"/><stop stop-opacity="1" stop-color="rgb(10.394287%, 45.785522%, 74.212646%)" offset="0.660156"/><stop stop-opacity="1" stop-color="rgb(10.205078%, 45.480347%, 74.09668%)" offset="0.664062"/><stop stop-opacity="1" stop-color="rgb(10.015869%, 45.173645%, 73.980713%)" offset="0.667969"/><stop stop-opacity="1" stop-color="rgb(9.82666%, 44.868469%, 73.864746%)" offset="0.671875"/><stop stop-opacity="1" stop-color="rgb(9.635925%, 44.561768%, 73.747253%)" offset="0.675781"/><stop stop-opacity="1" stop-color="rgb(9.446716%, 44.256592%, 73.631287%)" offset="0.679688"/><stop stop-opacity="1" stop-color="rgb(9.257507%, 43.951416%, 73.51532%)" offset="0.683594"/><stop stop-opacity="1" stop-color="rgb(9.068298%, 43.64624%, 73.399353%)" offset="0.6875"/><stop stop-opacity="1" stop-color="rgb(8.877563%, 43.339539%, 73.283386%)" offset="0.691406"/><stop stop-opacity="1" stop-color="rgb(8.688354%, 43.034363%, 73.167419%)" offset="0.695312"/><stop stop-opacity="1" stop-color="rgb(8.499146%, 42.727661%, 73.049927%)" offset="0.699219"/><stop stop-opacity="1" stop-color="rgb(8.309937%, 42.422485%, 72.93396%)" offset="0.703125"/><stop stop-opacity="1" stop-color="rgb(8.119202%, 42.115784%, 72.817993%)" offset="0.707031"/><stop stop-opacity="1" stop-color="rgb(7.929993%, 41.810608%, 72.702026%)" offset="0.710938"/><stop stop-opacity="1" stop-color="rgb(7.740784%, 41.503906%, 72.58606%)" offset="0.714844"/><stop stop-opacity="1" stop-color="rgb(7.551575%, 41.19873%, 72.470093%)" offset="0.71875"/><stop stop-opacity="1" stop-color="rgb(7.36084%, 40.892029%, 72.3526%)" offset="0.722656"/><stop stop-opacity="1" stop-color="rgb(7.171631%, 40.586853%, 72.236633%)" offset="0.726562"/><stop stop-opacity="1" stop-color="rgb(6.982422%, 40.281677%, 72.120667%)" offset="0.730469"/><stop stop-opacity="1" stop-color="rgb(6.793213%, 39.976501%, 72.0047%)" offset="0.734375"/><stop stop-opacity="1" stop-color="rgb(6.602478%, 39.6698%, 71.887207%)" offset="0.738281"/><stop stop-opacity="1" stop-color="rgb(6.413269%, 39.364624%, 71.77124%)" offset="0.742187"/><stop stop-opacity="1" stop-color="rgb(6.22406%, 39.057922%, 71.655273%)" offset="0.746094"/><stop stop-opacity="1" stop-color="rgb(6.034851%, 38.752747%, 71.539307%)" offset="0.75"/><stop stop-opacity="1" stop-color="rgb(5.844116%, 38.446045%, 71.42334%)" offset="0.753906"/><stop stop-opacity="1" stop-color="rgb(5.654907%, 38.140869%, 71.307373%)" offset="0.757812"/><stop stop-opacity="1" stop-color="rgb(5.465698%, 37.834167%, 71.18988%)" offset="0.761719"/><stop stop-opacity="1" stop-color="rgb(5.276489%, 37.528992%, 71.073914%)" offset="0.765625"/><stop stop-opacity="1" stop-color="rgb(5.085754%, 37.223816%, 70.957947%)" offset="0.769531"/><stop stop-opacity="1" stop-color="rgb(4.896545%, 36.91864%, 70.84198%)" offset="0.773437"/><stop stop-opacity="1" stop-color="rgb(4.707336%, 36.611938%, 70.726013%)" offset="0.777344"/><stop stop-opacity="1" stop-color="rgb(4.518127%, 36.306763%, 70.610046%)" offset="0.78125"/><stop stop-opacity="1" stop-color="rgb(4.327393%, 36.000061%, 70.492554%)" offset="0.785156"/><stop stop-opacity="1" stop-color="rgb(4.138184%, 35.694885%, 70.376587%)" offset="0.789062"/><stop stop-opacity="1" stop-color="rgb(3.948975%, 35.388184%, 70.26062%)" offset="0.792969"/><stop stop-opacity="1" stop-color="rgb(3.759766%, 35.083008%, 70.144653%)" offset="0.796875"/><stop stop-opacity="1" stop-color="rgb(3.569031%, 34.776306%, 70.028687%)" offset="0.800781"/><stop stop-opacity="1" stop-color="rgb(3.379822%, 34.47113%, 69.91272%)" offset="0.804688"/><stop stop-opacity="1" stop-color="rgb(3.190613%, 34.165955%, 69.795227%)" offset="0.808594"/><stop stop-opacity="1" stop-color="rgb(3.001404%, 33.860779%, 69.67926%)" offset="0.8125"/><stop stop-opacity="1" stop-color="rgb(2.810669%, 33.554077%, 69.563293%)" offset="0.816406"/><stop stop-opacity="1" stop-color="rgb(2.62146%, 33.248901%, 69.447327%)" offset="0.820312"/><stop stop-opacity="1" stop-color="rgb(2.432251%, 32.9422%, 69.329834%)" offset="0.824219"/><stop stop-opacity="1" stop-color="rgb(2.243042%, 32.637024%, 69.213867%)" offset="0.828125"/><stop stop-opacity="1" stop-color="rgb(2.052307%, 32.330322%, 69.0979%)" offset="0.832031"/><stop stop-opacity="1" stop-color="rgb(1.863098%, 32.025146%, 68.981934%)" offset="0.835938"/><stop stop-opacity="1" stop-color="rgb(1.673889%, 31.718445%, 68.865967%)" offset="0.839844"/><stop stop-opacity="1" stop-color="rgb(1.48468%, 31.413269%, 68.75%)" offset="0.84375"/><stop stop-opacity="1" stop-color="rgb(1.293945%, 31.108093%, 68.632507%)" offset="0.847656"/><stop stop-opacity="1" stop-color="rgb(1.104736%, 30.802917%, 68.516541%)" offset="0.851562"/><stop stop-opacity="1" stop-color="rgb(0.915527%, 30.496216%, 68.400574%)" offset="0.855469"/><stop stop-opacity="1" stop-color="rgb(0.726318%, 30.19104%, 68.284607%)" offset="0.859375"/><stop stop-opacity="1" stop-color="rgb(0.535583%, 29.884338%, 68.16864%)" offset="0.863281"/><stop stop-opacity="1" stop-color="rgb(0.346375%, 29.579163%, 68.052673%)" offset="0.867188"/><stop stop-opacity="1" stop-color="rgb(0.172424%, 29.298401%, 67.945862%)" offset="0.871094"/><stop stop-opacity="1" stop-color="rgb(0%, 29.019165%, 67.83905%)" offset="0.875"/><stop stop-opacity="1" stop-color="rgb(0%, 29.019165%, 67.83905%)" offset="1"/></linearGradient><clipPath id="0337ec2eef"><rect x="0" width="375" y="0" height="293"/></clipPath><clipPath id="3f7cdc1ca0"><path d="M 0 0.148438 L 375 0.148438 L 375 292.882812 L 0 292.882812 Z M 0 0.148438 " clip-rule="nonzero"/></clipPath><clipPath id="cd83b04867"><rect x="0" width="375" y="0" height="293"/></clipPath><clipPath id="209bb64600"><rect x="0" width="375" y="0" height="293"/></clipPath><mask id="3eff9b60b9"><g filter="url(#671b747075)"><g transform="matrix(1, 0, 0, 1, 0, -0.000000000000003553)"><g clip-path="url(#209bb64600)"><g clip-path="url(#3f7cdc1ca0)"><g transform="matrix(1, 0, 0, 1, 0, -0.000000000000003553)"><g clip-path="url(#cd83b04867)"><g fill="#000000" fill-opacity="1"><g transform="translate(45.915801, 142.107507)"><g><path d="M 1.21875 -0.484375 C 2.363281 -0.785156 3.179688 -1.472656 3.671875 -2.546875 C 4.160156 -3.628906 4.40625 -5.066406 4.40625 -6.859375 L 4.40625 -49.015625 C 4.40625 -50.847656 4.160156 -52.296875 3.671875 -53.359375 C 3.179688 -54.421875 2.363281 -55.097656 1.21875 -55.390625 L 1.21875 -55.875 L 19.90625 -55.875 L 30.78125 -22.40625 L 38.625 -55.875 L 57.5 -55.875 L 57.5 -55.390625 C 56.351562 -55.097656 55.535156 -54.421875 55.046875 -53.359375 C 54.554688 -52.296875 54.3125 -50.847656 54.3125 -49.015625 L 54.3125 -6.859375 C 54.3125 -5.066406 54.554688 -3.628906 55.046875 -2.546875 C 55.535156 -1.472656 56.351562 -0.785156 57.5 -0.484375 L 57.5 0 L 35.4375 0 L 35.4375 -0.484375 C 36.582031 -0.785156 37.398438 -1.472656 37.890625 -2.546875 C 38.378906 -3.628906 38.625 -5.066406 38.625 -6.859375 L 38.625 -51.078125 L 26.671875 0 L 22.296875 0 L 5.390625 -52.109375 L 5.390625 -41.375 C 5.390625 -38.726562 5.546875 -35.929688 5.859375 -32.984375 C 6.171875 -30.046875 6.617188 -27.101562 7.203125 -24.15625 C 7.796875 -21.21875 8.5 -18.398438 9.3125 -15.703125 C 10.125 -13.015625 11.019531 -10.570312 12 -8.375 C 12.988281 -6.1875 14.035156 -4.40625 15.140625 -3.03125 C 16.253906 -1.664062 17.414062 -0.816406 18.625 -0.484375 L 18.625 0 L 1.21875 0 Z M 1.21875 -0.484375 "/></g></g></g><g fill="#000000" fill-opacity="1"><g transform="translate(103.153538, 142.107507)"><g><path d="M 2.203125 -27.9375 C 2.203125 -32.445312 2.722656 -36.488281 3.765625 -40.0625 C 4.816406 -43.644531 6.304688 -46.675781 8.234375 -49.15625 C 10.160156 -51.644531 12.4375 -53.539062 15.0625 -54.84375 C 17.695312 -56.15625 20.582031 -56.8125 23.71875 -56.8125 C 26.851562 -56.8125 29.738281 -56.15625 32.375 -54.84375 C 35.007812 -53.539062 37.289062 -51.644531 39.21875 -49.15625 C 41.144531 -46.675781 42.628906 -43.644531 43.671875 -40.0625 C 44.710938 -36.488281 45.234375 -32.445312 45.234375 -27.9375 C 45.234375 -21.894531 44.316406 -16.71875 42.484375 -12.40625 C 40.660156 -8.09375 38.128906 -4.789062 34.890625 -2.5 C 31.660156 -0.207031 27.9375 0.9375 23.71875 0.9375 C 19.539062 0.9375 15.828125 -0.207031 12.578125 -2.5 C 9.328125 -4.789062 6.785156 -8.09375 4.953125 -12.40625 C 3.117188 -16.71875 2.203125 -21.894531 2.203125 -27.9375 Z M 18.375 -27.890625 C 18.375 -25.046875 18.390625 -22.265625 18.421875 -19.546875 C 18.460938 -16.835938 18.5625 -14.296875 18.71875 -11.921875 C 18.882812 -9.554688 19.15625 -7.484375 19.53125 -5.703125 C 19.90625 -3.921875 20.425781 -2.523438 21.09375 -1.515625 C 21.769531 -0.503906 22.644531 0 23.71875 0 C 24.800781 0 25.675781 -0.503906 26.34375 -1.515625 C 27.007812 -2.523438 27.53125 -3.921875 27.90625 -5.703125 C 28.289062 -7.484375 28.5625 -9.554688 28.71875 -11.921875 C 28.882812 -14.296875 28.984375 -16.835938 29.015625 -19.546875 C 29.046875 -22.265625 29.0625 -25.046875 29.0625 -27.890625 C 29.0625 -30.734375 29.046875 -33.519531 29.015625 -36.25 C 28.984375 -38.976562 28.882812 -41.523438 28.71875 -43.890625 C 28.5625 -46.265625 28.289062 -48.347656 27.90625 -50.140625 C 27.53125 -51.941406 27 -53.347656 26.3125 -54.359375 C 25.632812 -55.367188 24.769531 -55.875 23.71875 -55.875 C 22.675781 -55.875 21.8125 -55.367188 21.125 -54.359375 C 20.4375 -53.347656 19.90625 -51.941406 19.53125 -50.140625 C 19.15625 -48.347656 18.882812 -46.265625 18.71875 -43.890625 C 18.5625 -41.523438 18.460938 -38.976562 18.421875 -36.25 C 18.390625 -33.519531 18.375 -30.734375 18.375 -27.890625 Z M 18.375 -27.890625 "/></g></g></g><g fill="#000000" fill-opacity="1"><g transform="translate(149.120066, 142.107507)"><g><path d="M 1.21875 -37 L 1.21875 -55.875 L 43.671875 -55.875 L 43.671875 -37 L 43.1875 -37 C 43.1875 -38.40625 42.960938 -39.914062 42.515625 -41.53125 C 42.078125 -43.15625 41.457031 -44.757812 40.65625 -46.34375 C 39.851562 -47.925781 38.921875 -49.363281 37.859375 -50.65625 C 36.796875 -51.945312 35.644531 -52.972656 34.40625 -53.734375 C 33.164062 -54.503906 31.875 -54.890625 30.53125 -54.890625 L 30.046875 -54.890625 L 30.046875 -6.859375 C 30.046875 -5.066406 30.289062 -3.628906 30.78125 -2.546875 C 31.269531 -1.472656 32.085938 -0.785156 33.234375 -0.484375 L 33.234375 0 L 11.171875 0 L 11.171875 -0.484375 C 12.316406 -0.785156 13.132812 -1.472656 13.625 -2.546875 C 14.113281 -3.628906 14.359375 -5.066406 14.359375 -6.859375 L 14.359375 -54.890625 C 13.054688 -54.890625 11.773438 -54.503906 10.515625 -53.734375 C 9.253906 -52.972656 8.09375 -51.945312 7.03125 -50.65625 C 5.96875 -49.363281 5.035156 -47.925781 4.234375 -46.34375 C 3.429688 -44.757812 2.8125 -43.15625 2.375 -41.53125 C 1.9375 -39.914062 1.71875 -38.40625 1.71875 -37 Z M 1.21875 -37 "/></g></g></g><g fill="#000000" fill-opacity="1"><g transform="translate(192.538327, 142.107507)"><g><path d="M 4.40625 -49.015625 C 4.40625 -50.847656 4.160156 -52.296875 3.671875 -53.359375 C 3.179688 -54.421875 2.363281 -55.097656 1.21875 -55.390625 L 1.21875 -55.875 L 23.28125 -55.875 L 23.28125 -55.390625 C 22.132812 -55.097656 21.316406 -54.421875 20.828125 -53.359375 C 20.335938 -52.296875 20.09375 -50.847656 20.09375 -49.015625 L 20.09375 -32.9375 L 28.71875 -32.9375 L 28.71875 -49.015625 C 28.71875 -50.847656 28.472656 -52.296875 27.984375 -53.359375 C 27.492188 -54.421875 26.675781 -55.097656 25.53125 -55.390625 L 25.53125 -55.875 L 47.59375 -55.875 L 47.59375 -55.390625 C 46.445312 -55.097656 45.628906 -54.421875 45.140625 -53.359375 C 44.648438 -52.296875 44.40625 -50.847656 44.40625 -49.015625 L 44.40625 -6.859375 C 44.40625 -5.066406 44.648438 -3.628906 45.140625 -2.546875 C 45.628906 -1.472656 46.445312 -0.785156 47.59375 -0.484375 L 47.59375 0 L 25.53125 0 L 25.53125 -0.484375 C 26.675781 -0.785156 27.492188 -1.472656 27.984375 -2.546875 C 28.472656 -3.628906 28.71875 -5.066406 28.71875 -6.859375 L 28.71875 -31.953125 L 20.09375 -31.953125 L 20.09375 -6.859375 C 20.09375 -5.066406 20.335938 -3.628906 20.828125 -2.546875 C 21.316406 -1.472656 22.132812 -0.785156 23.28125 -0.484375 L 23.28125 0 L 1.21875 0 L 1.21875 -0.484375 C 2.363281 -0.785156 3.179688 -1.472656 3.671875 -2.546875 C 4.160156 -3.628906 4.40625 -5.066406 4.40625 -6.859375 Z M 4.40625 -49.015625 "/></g></g></g><g fill="#000000" fill-opacity="1"><g transform="translate(239.877009, 142.107507)"><g><path d="M 40.53125 0 L 1.21875 0 L 1.21875 -0.484375 C 2.363281 -0.785156 3.179688 -1.472656 3.671875 -2.546875 C 4.160156 -3.628906 4.40625 -5.066406 4.40625 -6.859375 L 4.40625 -49.015625 C 4.40625 -50.847656 4.160156 -52.296875 3.671875 -53.359375 C 3.179688 -54.421875 2.363281 -55.097656 1.21875 -55.390625 L 1.21875 -55.875 L 40.53125 -55.875 L 40.53125 -39.015625 L 40.046875 -39.015625 C 40.046875 -40.097656 39.773438 -41.320312 39.234375 -42.6875 C 38.691406 -44.0625 37.914062 -45.46875 36.90625 -46.90625 C 35.894531 -48.34375 34.703125 -49.65625 33.328125 -50.84375 C 31.953125 -52.039062 30.414062 -53.015625 28.71875 -53.765625 C 27.019531 -54.515625 25.207031 -54.890625 23.28125 -54.890625 L 20.09375 -54.890625 L 20.09375 -30.34375 L 22.015625 -30.34375 C 23.222656 -30.34375 24.453125 -30.59375 25.703125 -31.09375 C 26.960938 -31.601562 28.140625 -32.257812 29.234375 -33.0625 C 30.328125 -33.863281 31.238281 -34.753906 31.96875 -35.734375 C 32.707031 -36.710938 33.160156 -37.660156 33.328125 -38.578125 L 33.828125 -38.578125 L 33.828125 -21.125 L 33.328125 -21.125 C 33.160156 -22.070312 32.707031 -23.023438 31.96875 -23.984375 C 31.238281 -24.953125 30.328125 -25.835938 29.234375 -26.640625 C 28.140625 -27.441406 26.960938 -28.09375 25.703125 -28.59375 C 24.453125 -29.101562 23.222656 -29.359375 22.015625 -29.359375 L 20.09375 -29.359375 L 20.09375 -0.984375 L 23.28125 -0.984375 C 25.207031 -0.984375 27.019531 -1.359375 28.71875 -2.109375 C 30.414062 -2.859375 31.953125 -3.828125 33.328125 -5.015625 C 34.703125 -6.210938 35.894531 -7.53125 36.90625 -8.96875 C 37.914062 -10.40625 38.691406 -11.8125 39.234375 -13.1875 C 39.773438 -14.5625 40.046875 -15.785156 40.046875 -16.859375 L 40.53125 -16.859375 Z M 40.53125 0 "/></g></g></g><g fill="#000000" fill-opacity="1"><g transform="translate(280.158933, 142.107507)"><g><path d="M 1.21875 -55.390625 L 1.21875 -55.875 L 29.5 -55.875 C 32.832031 -55.875 35.609375 -55.289062 37.828125 -54.125 C 40.054688 -52.96875 41.722656 -51.425781 42.828125 -49.5 C 43.941406 -47.570312 44.5 -45.453125 44.5 -43.140625 C 44.5 -40.710938 44.050781 -38.695312 43.15625 -37.09375 C 42.257812 -35.5 41.007812 -34.242188 39.40625 -33.328125 C 37.800781 -32.410156 35.945312 -31.753906 33.84375 -31.359375 C 31.738281 -30.972656 29.457031 -30.78125 27 -30.78125 C 29.8125 -30.195312 32.109375 -29.304688 33.890625 -28.109375 C 35.671875 -26.921875 37.097656 -25.53125 38.171875 -23.9375 C 39.253906 -22.351562 40.097656 -20.671875 40.703125 -18.890625 C 41.304688 -17.109375 41.804688 -15.328125 42.203125 -13.546875 C 42.597656 -11.765625 43.015625 -10.097656 43.453125 -8.546875 C 43.890625 -6.992188 44.492188 -5.644531 45.265625 -4.5 C 46.035156 -3.363281 47.085938 -2.550781 48.421875 -2.0625 C 48.421875 -2.0625 48.316406 -1.910156 48.109375 -1.609375 C 47.898438 -1.316406 47.523438 -0.96875 46.984375 -0.5625 C 46.441406 -0.15625 45.679688 0.191406 44.703125 0.484375 C 43.722656 0.785156 42.460938 0.9375 40.921875 0.9375 C 37.859375 0.9375 35.351562 0.492188 33.40625 -0.390625 C 31.457031 -1.273438 29.953125 -2.457031 28.890625 -3.9375 C 27.828125 -5.425781 27.066406 -7.09375 26.609375 -8.9375 C 26.148438 -10.789062 25.851562 -12.710938 25.71875 -14.703125 C 25.59375 -16.691406 25.5 -18.609375 25.4375 -20.453125 C 25.375 -22.304688 25.210938 -23.972656 24.953125 -25.453125 C 24.691406 -26.941406 24.191406 -28.128906 23.453125 -29.015625 C 22.710938 -29.898438 21.59375 -30.34375 20.09375 -30.34375 L 20.09375 -6.859375 C 20.09375 -5.066406 20.335938 -3.628906 20.828125 -2.546875 C 21.316406 -1.472656 22.132812 -0.785156 23.28125 -0.484375 L 23.28125 0 L 1.21875 0 L 1.21875 -0.484375 C 2.363281 -0.785156 3.179688 -1.472656 3.671875 -2.546875 C 4.160156 -3.628906 4.40625 -5.066406 4.40625 -6.859375 L 4.40625 -49.015625 C 4.40625 -50.847656 4.160156 -52.296875 3.671875 -53.359375 C 3.179688 -54.421875 2.363281 -55.097656 1.21875 -55.390625 Z M 21.078125 -55.234375 L 20.09375 -55.234375 L 20.09375 -31.328125 L 21.859375 -31.328125 C 23.097656 -31.328125 24.25 -31.703125 25.3125 -32.453125 C 26.375 -33.203125 27.222656 -34.472656 27.859375 -36.265625 C 28.503906 -38.066406 28.828125 -40.535156 28.828125 -43.671875 C 28.828125 -45.660156 28.597656 -47.535156 28.140625 -49.296875 C 27.679688 -51.066406 26.894531 -52.5 25.78125 -53.59375 C 24.664062 -54.6875 23.097656 -55.234375 21.078125 -55.234375 Z M 21.078125 -55.234375 "/></g></g></g><g fill="#000000" fill-opacity="1"><g transform="translate(51.936398, 190.602929)"><g><path d="M 1.21875 -55.390625 L 1.21875 -55.875 L 17.203125 -55.875 L 40.4375 -16.03125 L 40.4375 -19.21875 C 40.4375 -21.632812 40.269531 -24.179688 39.9375 -26.859375 C 39.613281 -29.535156 39.15625 -32.210938 38.5625 -34.890625 C 37.976562 -37.578125 37.296875 -40.117188 36.515625 -42.515625 C 35.734375 -44.921875 34.859375 -47.078125 33.890625 -48.984375 C 32.929688 -50.898438 31.925781 -52.421875 30.875 -53.546875 C 29.832031 -54.671875 28.769531 -55.285156 27.6875 -55.390625 L 27.6875 -55.875 L 44.609375 -55.875 L 44.609375 -55.390625 C 43.460938 -55.097656 42.644531 -54.421875 42.15625 -53.359375 C 41.664062 -52.296875 41.421875 -50.847656 41.421875 -49.015625 L 41.421875 -6.859375 C 41.421875 -5.066406 41.664062 -3.628906 42.15625 -2.546875 C 42.644531 -1.472656 43.460938 -0.785156 44.609375 -0.484375 L 44.609375 0 L 31.03125 0 L 5.390625 -44.015625 L 5.390625 -41.375 C 5.390625 -38.726562 5.546875 -35.929688 5.859375 -32.984375 C 6.171875 -30.046875 6.617188 -27.101562 7.203125 -24.15625 C 7.796875 -21.21875 8.5 -18.398438 9.3125 -15.703125 C 10.125 -13.015625 11.019531 -10.570312 12 -8.375 C 12.988281 -6.1875 14.035156 -4.40625 15.140625 -3.03125 C 16.253906 -1.664062 17.414062 -0.816406 18.625 -0.484375 L 18.625 0 L 1.21875 0 L 1.21875 -0.484375 C 2.363281 -0.785156 3.179688 -1.472656 3.671875 -2.546875 C 4.160156 -3.628906 4.40625 -5.066406 4.40625 -6.859375 L 4.40625 -49.015625 C 4.40625 -50.847656 4.160156 -52.296875 3.671875 -53.359375 C 3.179688 -54.421875 2.363281 -55.097656 1.21875 -55.390625 Z M 1.21875 -55.390625 "/></g></g></g><g fill="#000000" fill-opacity="1"><g transform="translate(96.285757, 190.602929)"><g><path d="M 0 0 L 0 -0.484375 C 0.625 -0.484375 1.21875 -0.925781 1.78125 -1.8125 C 2.351562 -2.695312 2.894531 -3.820312 3.40625 -5.1875 C 3.914062 -6.5625 4.378906 -8.015625 4.796875 -9.546875 C 5.222656 -11.085938 5.601562 -12.515625 5.9375 -13.828125 C 6.78125 -17.117188 7.550781 -20.160156 8.25 -22.953125 C 8.957031 -25.753906 9.628906 -28.4375 10.265625 -31 C 10.898438 -33.5625 11.535156 -36.125 12.171875 -38.6875 C 12.816406 -41.257812 13.5 -43.945312 14.21875 -46.75 C 14.9375 -49.5625 15.703125 -52.601562 16.515625 -55.875 L 32.75 -55.875 C 33.59375 -52.601562 34.363281 -49.5625 35.0625 -46.75 C 35.769531 -43.945312 36.445312 -41.257812 37.09375 -38.6875 C 37.75 -36.125 38.40625 -33.5625 39.0625 -31 C 39.71875 -28.4375 40.390625 -25.753906 41.078125 -22.953125 C 41.765625 -20.160156 42.515625 -17.117188 43.328125 -13.828125 C 43.648438 -12.515625 44.023438 -11.085938 44.453125 -9.546875 C 44.878906 -8.015625 45.34375 -6.5625 45.84375 -5.1875 C 46.351562 -3.820312 46.894531 -2.695312 47.46875 -1.8125 C 48.039062 -0.925781 48.640625 -0.484375 49.265625 -0.484375 L 49.265625 0 L 24.65625 0 L 24.65625 -0.484375 C 25.863281 -1.398438 26.640625 -2.722656 26.984375 -4.453125 C 27.328125 -6.191406 27.40625 -8.160156 27.21875 -10.359375 C 27.039062 -12.566406 26.707031 -14.816406 26.21875 -17.109375 L 12.40625 -17.109375 C 12.726562 -13.316406 13.484375 -10.015625 14.671875 -7.203125 C 15.867188 -4.390625 17.613281 -2.148438 19.90625 -0.484375 L 19.90625 0 Z M 16.953125 -54.21875 C 15.328125 -47.0625 14.078125 -40.441406 13.203125 -34.359375 C 12.335938 -28.285156 12.054688 -22.863281 12.359375 -18.09375 L 26.03125 -18.09375 C 25.738281 -19.363281 25.4375 -20.609375 25.125 -21.828125 C 24.8125 -23.054688 24.523438 -24.226562 24.265625 -25.34375 C 23.671875 -27.625 23.144531 -29.660156 22.6875 -31.453125 C 22.238281 -33.253906 21.804688 -34.960938 21.390625 -36.578125 C 20.984375 -38.203125 20.566406 -39.863281 20.140625 -41.5625 C 19.722656 -43.257812 19.257812 -45.117188 18.75 -47.140625 C 18.238281 -49.171875 17.640625 -51.53125 16.953125 -54.21875 Z M 16.953125 -54.21875 "/></g></g></g><g fill="#000000" fill-opacity="1"><g transform="translate(144.065482, 190.602929)"><g><path d="M 1.21875 -37 L 1.21875 -55.875 L 43.671875 -55.875 L 43.671875 -37 L 43.1875 -37 C 43.1875 -38.40625 42.960938 -39.914062 42.515625 -41.53125 C 42.078125 -43.15625 41.457031 -44.757812 40.65625 -46.34375 C 39.851562 -47.925781 38.921875 -49.363281 37.859375 -50.65625 C 36.796875 -51.945312 35.644531 -52.972656 34.40625 -53.734375 C 33.164062 -54.503906 31.875 -54.890625 30.53125 -54.890625 L 30.046875 -54.890625 L 30.046875 -6.859375 C 30.046875 -5.066406 30.289062 -3.628906 30.78125 -2.546875 C 31.269531 -1.472656 32.085938 -0.785156 33.234375 -0.484375 L 33.234375 0 L 11.171875 0 L 11.171875 -0.484375 C 12.316406 -0.785156 13.132812 -1.472656 13.625 -2.546875 C 14.113281 -3.628906 14.359375 -5.066406 14.359375 -6.859375 L 14.359375 -54.890625 C 13.054688 -54.890625 11.773438 -54.503906 10.515625 -53.734375 C 9.253906 -52.972656 8.09375 -51.945312 7.03125 -50.65625 C 5.96875 -49.363281 5.035156 -47.925781 4.234375 -46.34375 C 3.429688 -44.757812 2.8125 -43.15625 2.375 -41.53125 C 1.9375 -39.914062 1.71875 -38.40625 1.71875 -37 Z M 1.21875 -37 "/></g></g></g><g fill="#000000" fill-opacity="1"><g transform="translate(187.483743, 190.602929)"><g><path d="M 1.21875 -55.875 L 23.28125 -55.875 L 23.28125 -55.390625 C 22.132812 -55.097656 21.316406 -54.421875 20.828125 -53.359375 C 20.335938 -52.296875 20.09375 -50.847656 20.09375 -49.015625 L 20.09375 -8.328125 C 20.09375 -7.609375 20.109375 -6.804688 20.140625 -5.921875 C 20.171875 -5.046875 20.289062 -4.191406 20.5 -3.359375 C 20.71875 -2.523438 21.085938 -1.835938 21.609375 -1.296875 C 22.140625 -0.753906 22.894531 -0.484375 23.875 -0.484375 C 24.914062 -0.484375 25.707031 -0.738281 26.25 -1.25 C 26.789062 -1.757812 27.164062 -2.421875 27.375 -3.234375 C 27.582031 -4.046875 27.695312 -4.898438 27.71875 -5.796875 C 27.738281 -6.703125 27.75 -7.546875 27.75 -8.328125 L 27.75 -49.015625 C 27.75 -50.847656 27.5 -52.296875 27 -53.359375 C 26.507812 -54.421875 25.695312 -55.097656 24.5625 -55.390625 L 24.5625 -55.875 L 46.609375 -55.875 L 46.609375 -55.390625 C 45.460938 -55.097656 44.644531 -54.421875 44.15625 -53.359375 C 43.664062 -52.296875 43.421875 -50.847656 43.421875 -49.015625 L 43.421875 -17.75 C 43.421875 -13.820312 42.757812 -10.46875 41.4375 -7.6875 C 40.113281 -4.914062 38.019531 -2.785156 35.15625 -1.296875 C 32.300781 0.191406 28.554688 0.9375 23.921875 0.9375 C 19.316406 0.9375 15.570312 0.191406 12.6875 -1.296875 C 9.8125 -2.785156 7.710938 -4.914062 6.390625 -7.6875 C 5.066406 -10.46875 4.40625 -13.820312 4.40625 -17.75 L 4.40625 -49.015625 C 4.40625 -50.847656 4.160156 -52.296875 3.671875 -53.359375 C 3.179688 -54.421875 2.363281 -55.097656 1.21875 -55.390625 Z M 1.21875 -55.875 "/></g></g></g><g fill="#000000" fill-opacity="1"><g transform="translate(233.842313, 190.602929)"><g><path d="M 1.21875 -55.390625 L 1.21875 -55.875 L 29.5 -55.875 C 32.832031 -55.875 35.609375 -55.289062 37.828125 -54.125 C 40.054688 -52.96875 41.722656 -51.425781 42.828125 -49.5 C 43.941406 -47.570312 44.5 -45.453125 44.5 -43.140625 C 44.5 -40.710938 44.050781 -38.695312 43.15625 -37.09375 C 42.257812 -35.5 41.007812 -34.242188 39.40625 -33.328125 C 37.800781 -32.410156 35.945312 -31.753906 33.84375 -31.359375 C 31.738281 -30.972656 29.457031 -30.78125 27 -30.78125 C 29.8125 -30.195312 32.109375 -29.304688 33.890625 -28.109375 C 35.671875 -26.921875 37.097656 -25.53125 38.171875 -23.9375 C 39.253906 -22.351562 40.097656 -20.671875 40.703125 -18.890625 C 41.304688 -17.109375 41.804688 -15.328125 42.203125 -13.546875 C 42.597656 -11.765625 43.015625 -10.097656 43.453125 -8.546875 C 43.890625 -6.992188 44.492188 -5.644531 45.265625 -4.5 C 46.035156 -3.363281 47.085938 -2.550781 48.421875 -2.0625 C 48.421875 -2.0625 48.316406 -1.910156 48.109375 -1.609375 C 47.898438 -1.316406 47.523438 -0.96875 46.984375 -0.5625 C 46.441406 -0.15625 45.679688 0.191406 44.703125 0.484375 C 43.722656 0.785156 42.460938 0.9375 40.921875 0.9375 C 37.859375 0.9375 35.351562 0.492188 33.40625 -0.390625 C 31.457031 -1.273438 29.953125 -2.457031 28.890625 -3.9375 C 27.828125 -5.425781 27.066406 -7.09375 26.609375 -8.9375 C 26.148438 -10.789062 25.851562 -12.710938 25.71875 -14.703125 C 25.59375 -16.691406 25.5 -18.609375 25.4375 -20.453125 C 25.375 -22.304688 25.210938 -23.972656 24.953125 -25.453125 C 24.691406 -26.941406 24.191406 -28.128906 23.453125 -29.015625 C 22.710938 -29.898438 21.59375 -30.34375 20.09375 -30.34375 L 20.09375 -6.859375 C 20.09375 -5.066406 20.335938 -3.628906 20.828125 -2.546875 C 21.316406 -1.472656 22.132812 -0.785156 23.28125 -0.484375 L 23.28125 0 L 1.21875 0 L 1.21875 -0.484375 C 2.363281 -0.785156 3.179688 -1.472656 3.671875 -2.546875 C 4.160156 -3.628906 4.40625 -5.066406 4.40625 -6.859375 L 4.40625 -49.015625 C 4.40625 -50.847656 4.160156 -52.296875 3.671875 -53.359375 C 3.179688 -54.421875 2.363281 -55.097656 1.21875 -55.390625 Z M 21.078125 -55.234375 L 20.09375 -55.234375 L 20.09375 -31.328125 L 21.859375 -31.328125 C 23.097656 -31.328125 24.25 -31.703125 25.3125 -32.453125 C 26.375 -33.203125 27.222656 -34.472656 27.859375 -36.265625 C 28.503906 -38.066406 28.828125 -40.535156 28.828125 -43.671875 C 28.828125 -45.660156 28.597656 -47.535156 28.140625 -49.296875 C 27.679688 -51.066406 26.894531 -52.5 25.78125 -53.59375 C 24.664062 -54.6875 23.097656 -55.234375 21.078125 -55.234375 Z M 21.078125 -55.234375 "/></g></g></g><g fill="#000000" fill-opacity="1"><g transform="translate(281.278996, 190.602929)"><g><path d="M 40.53125 0 L 1.21875 0 L 1.21875 -0.484375 C 2.363281 -0.785156 3.179688 -1.472656 3.671875 -2.546875 C 4.160156 -3.628906 4.40625 -5.066406 4.40625 -6.859375 L 4.40625 -49.015625 C 4.40625 -50.847656 4.160156 -52.296875 3.671875 -53.359375 C 3.179688 -54.421875 2.363281 -55.097656 1.21875 -55.390625 L 1.21875 -55.875 L 40.53125 -55.875 L 40.53125 -39.015625 L 40.046875 -39.015625 C 40.046875 -40.097656 39.773438 -41.320312 39.234375 -42.6875 C 38.691406 -44.0625 37.914062 -45.46875 36.90625 -46.90625 C 35.894531 -48.34375 34.703125 -49.65625 33.328125 -50.84375 C 31.953125 -52.039062 30.414062 -53.015625 28.71875 -53.765625 C 27.019531 -54.515625 25.207031 -54.890625 23.28125 -54.890625 L 20.09375 -54.890625 L 20.09375 -30.34375 L 22.015625 -30.34375 C 23.222656 -30.34375 24.453125 -30.59375 25.703125 -31.09375 C 26.960938 -31.601562 28.140625 -32.257812 29.234375 -33.0625 C 30.328125 -33.863281 31.238281 -34.753906 31.96875 -35.734375 C 32.707031 -36.710938 33.160156 -37.660156 33.328125 -38.578125 L 33.828125 -38.578125 L 33.828125 -21.125 L 33.328125 -21.125 C 33.160156 -22.070312 32.707031 -23.023438 31.96875 -23.984375 C 31.238281 -24.953125 30.328125 -25.835938 29.234375 -26.640625 C 28.140625 -27.441406 26.960938 -28.09375 25.703125 -28.59375 C 24.453125 -29.101562 23.222656 -29.359375 22.015625 -29.359375 L 20.09375 -29.359375 L 20.09375 -0.984375 L 23.28125 -0.984375 C 25.207031 -0.984375 27.019531 -1.359375 28.71875 -2.109375 C 30.414062 -2.859375 31.953125 -3.828125 33.328125 -5.015625 C 34.703125 -6.210938 35.894531 -7.53125 36.90625 -8.96875 C 37.914062 -10.40625 38.691406 -11.8125 39.234375 -13.1875 C 39.773438 -14.5625 40.046875 -15.785156 40.046875 -16.859375 L 40.53125 -16.859375 Z M 40.53125 0 "/></g></g></g></g></g></g></g></g></g></mask><clipPath id="44bd9ae71b"><path d="M 0 0.148438 L 375 0.148438 L 375 292.882812 L 0 292.882812 Z M 0 0.148438 " clip-rule="nonzero"/></clipPath><clipPath id="b3d5ebfcea"><rect x="0" width="375" y="0" height="293"/></clipPath><clipPath id="5b4a73f6cc"><rect x="0" width="375" y="0" height="293"/></clipPath><clipPath id="60a6bb1a3f"><path d="M 0 98.140625 L 375 98.140625 L 375 342.378906 L 0 342.378906 Z M 0 98.140625 " clip-rule="nonzero"/></clipPath><clipPath id="3ff74554c6"><path d="M 0 0.140625 L 375 0.140625 L 375 244.378906 L 0 244.378906 Z M 0 0.140625 " clip-rule="nonzero"/></clipPath><clipPath id="044e17f496"><path d="M 0 0.140625 L 375 0.140625 L 375 244.378906 L 0 244.378906 Z M 0 0.140625 " clip-rule="nonzero"/></clipPath><linearGradient x1="18.720739" gradientTransform="matrix(0.881987, 0, 0, 0.880541, -16.511446, 1.085215)" y1="82.5" x2="443.896997" gradientUnits="userSpaceOnUse" y2="82.5" id="84bfd96c44"><stop stop-opacity="1" stop-color="rgb(36.468506%, 87.838745%, 90.19928%)" offset="0"/><stop stop-opacity="1" stop-color="rgb(36.419678%, 87.759399%, 90.168762%)" offset="0.125"/><stop stop-opacity="1" stop-color="rgb(36.180115%, 87.373352%, 90.022278%)" offset="0.128906"/><stop stop-opacity="1" stop-color="rgb(35.990906%, 87.068176%, 89.906311%)" offset="0.132812"/><stop stop-opacity="1" stop-color="rgb(35.801697%, 86.761475%, 89.788818%)" offset="0.136719"/><stop stop-opacity="1" stop-color="rgb(35.612488%, 86.456299%, 89.672852%)" offset="0.140625"/><stop stop-opacity="1" stop-color="rgb(35.421753%, 86.149597%, 89.556885%)" offset="0.144531"/><stop stop-opacity="1" stop-color="rgb(35.232544%, 85.844421%, 89.440918%)" offset="0.148438"/><stop stop-opacity="1" stop-color="rgb(35.043335%, 85.53772%, 89.324951%)" offset="0.152344"/><stop stop-opacity="1" stop-color="rgb(34.854126%, 85.232544%, 89.208984%)" offset="0.15625"/><stop stop-opacity="1" stop-color="rgb(34.663391%, 84.927368%, 89.091492%)" offset="0.160156"/><stop stop-opacity="1" stop-color="rgb(34.474182%, 84.622192%, 88.975525%)" offset="0.164062"/><stop stop-opacity="1" stop-color="rgb(34.283447%, 84.315491%, 88.859558%)" offset="0.167969"/><stop stop-opacity="1" stop-color="rgb(34.094238%, 84.010315%, 88.743591%)" offset="0.171875"/><stop stop-opacity="1" stop-color="rgb(33.905029%, 83.703613%, 88.627625%)" offset="0.175781"/><stop stop-opacity="1" stop-color="rgb(33.71582%, 83.398438%, 88.511658%)" offset="0.179688"/><stop stop-opacity="1" stop-color="rgb(33.525085%, 83.091736%, 88.394165%)" offset="0.183594"/><stop stop-opacity="1" stop-color="rgb(33.335876%, 82.78656%, 88.278198%)" offset="0.1875"/><stop stop-opacity="1" stop-color="rgb(33.146667%, 82.479858%, 88.162231%)" offset="0.191406"/><stop stop-opacity="1" stop-color="rgb(32.957458%, 82.174683%, 88.046265%)" offset="0.195312"/><stop stop-opacity="1" stop-color="rgb(32.766724%, 81.869507%, 87.930298%)" offset="0.199219"/><stop stop-opacity="1" stop-color="rgb(32.577515%, 81.564331%, 87.814331%)" offset="0.203125"/><stop stop-opacity="1" stop-color="rgb(32.388306%, 81.257629%, 87.696838%)" offset="0.207031"/><stop stop-opacity="1" stop-color="rgb(32.199097%, 80.952454%, 87.580872%)" offset="0.210938"/><stop stop-opacity="1" stop-color="rgb(32.008362%, 80.645752%, 87.464905%)" offset="0.214844"/><stop stop-opacity="1" stop-color="rgb(31.819153%, 80.340576%, 87.348938%)" offset="0.21875"/><stop stop-opacity="1" stop-color="rgb(31.629944%, 80.033875%, 87.231445%)" offset="0.222656"/><stop stop-opacity="1" stop-color="rgb(31.440735%, 79.728699%, 87.115479%)" offset="0.226563"/><stop stop-opacity="1" stop-color="rgb(31.25%, 79.421997%, 86.999512%)" offset="0.230469"/><stop stop-opacity="1" stop-color="rgb(31.060791%, 79.116821%, 86.883545%)" offset="0.234375"/><stop stop-opacity="1" stop-color="rgb(30.871582%, 78.811646%, 86.767578%)" offset="0.238281"/><stop stop-opacity="1" stop-color="rgb(30.682373%, 78.50647%, 86.651611%)" offset="0.242188"/><stop stop-opacity="1" stop-color="rgb(30.491638%, 78.199768%, 86.534119%)" offset="0.246094"/><stop stop-opacity="1" stop-color="rgb(30.302429%, 77.894592%, 86.418152%)" offset="0.25"/><stop stop-opacity="1" stop-color="rgb(30.11322%, 77.587891%, 86.302185%)" offset="0.253906"/><stop stop-opacity="1" stop-color="rgb(29.924011%, 77.282715%, 86.186218%)" offset="0.257813"/><stop stop-opacity="1" stop-color="rgb(29.733276%, 76.976013%, 86.070251%)" offset="0.261719"/><stop stop-opacity="1" stop-color="rgb(29.544067%, 76.670837%, 85.954285%)" offset="0.265625"/><stop stop-opacity="1" stop-color="rgb(29.354858%, 76.364136%, 85.836792%)" offset="0.269531"/><stop stop-opacity="1" stop-color="rgb(29.165649%, 76.05896%, 85.720825%)" offset="0.273438"/><stop stop-opacity="1" stop-color="rgb(28.974915%, 75.752258%, 85.604858%)" offset="0.277344"/><stop stop-opacity="1" stop-color="rgb(28.785706%, 75.447083%, 85.488892%)" offset="0.28125"/><stop stop-opacity="1" stop-color="rgb(28.596497%, 75.141907%, 85.372925%)" offset="0.285156"/><stop stop-opacity="1" stop-color="rgb(28.407288%, 74.836731%, 85.256958%)" offset="0.289062"/><stop stop-opacity="1" stop-color="rgb(28.216553%, 74.530029%, 85.139465%)" offset="0.292969"/><stop stop-opacity="1" stop-color="rgb(28.027344%, 74.224854%, 85.023499%)" offset="0.296875"/><stop stop-opacity="1" stop-color="rgb(27.838135%, 73.918152%, 84.907532%)" offset="0.300781"/><stop stop-opacity="1" stop-color="rgb(27.648926%, 73.612976%, 84.791565%)" offset="0.304688"/><stop stop-opacity="1" stop-color="rgb(27.458191%, 73.306274%, 84.674072%)" offset="0.308594"/><stop stop-opacity="1" stop-color="rgb(27.268982%, 73.001099%, 84.558105%)" offset="0.3125"/><stop stop-opacity="1" stop-color="rgb(27.079773%, 72.694397%, 84.442139%)" offset="0.316406"/><stop stop-opacity="1" stop-color="rgb(26.890564%, 72.389221%, 84.326172%)" offset="0.320313"/><stop stop-opacity="1" stop-color="rgb(26.699829%, 72.084045%, 84.210205%)" offset="0.324219"/><stop stop-opacity="1" stop-color="rgb(26.51062%, 71.77887%, 84.094238%)" offset="0.328125"/><stop stop-opacity="1" stop-color="rgb(26.321411%, 71.472168%, 83.976746%)" offset="0.332031"/><stop stop-opacity="1" stop-color="rgb(26.132202%, 71.166992%, 83.860779%)" offset="0.335938"/><stop stop-opacity="1" stop-color="rgb(25.941467%, 70.860291%, 83.744812%)" offset="0.339844"/><stop stop-opacity="1" stop-color="rgb(25.752258%, 70.555115%, 83.628845%)" offset="0.34375"/><stop stop-opacity="1" stop-color="rgb(25.563049%, 70.248413%, 83.512878%)" offset="0.347656"/><stop stop-opacity="1" stop-color="rgb(25.37384%, 69.943237%, 83.396912%)" offset="0.351562"/><stop stop-opacity="1" stop-color="rgb(25.183105%, 69.636536%, 83.279419%)" offset="0.355469"/><stop stop-opacity="1" stop-color="rgb(24.993896%, 69.33136%, 83.163452%)" offset="0.359375"/><stop stop-opacity="1" stop-color="rgb(24.804688%, 69.026184%, 83.047485%)" offset="0.363281"/><stop stop-opacity="1" stop-color="rgb(24.615479%, 68.721008%, 82.931519%)" offset="0.367188"/><stop stop-opacity="1" stop-color="rgb(24.424744%, 68.414307%, 82.815552%)" offset="0.371094"/><stop stop-opacity="1" stop-color="rgb(24.235535%, 68.109131%, 82.699585%)" offset="0.375"/><stop stop-opacity="1" stop-color="rgb(24.046326%, 67.802429%, 82.582092%)" offset="0.378906"/><stop stop-opacity="1" stop-color="rgb(23.857117%, 67.497253%, 82.466125%)" offset="0.382813"/><stop stop-opacity="1" stop-color="rgb(23.666382%, 67.190552%, 82.350159%)" offset="0.386719"/><stop stop-opacity="1" stop-color="rgb(23.477173%, 66.885376%, 82.234192%)" offset="0.390625"/><stop stop-opacity="1" stop-color="rgb(23.287964%, 66.578674%, 82.116699%)" offset="0.394531"/><stop stop-opacity="1" stop-color="rgb(23.098755%, 66.273499%, 82.000732%)" offset="0.398438"/><stop stop-opacity="1" stop-color="rgb(22.90802%, 65.968323%, 81.884766%)" offset="0.402344"/><stop stop-opacity="1" stop-color="rgb(22.718811%, 65.663147%, 81.768799%)" offset="0.40625"/><stop stop-opacity="1" stop-color="rgb(22.529602%, 65.356445%, 81.652832%)" offset="0.410156"/><stop stop-opacity="1" stop-color="rgb(22.340393%, 65.05127%, 81.536865%)" offset="0.414062"/><stop stop-opacity="1" stop-color="rgb(22.149658%, 64.744568%, 81.419373%)" offset="0.417969"/><stop stop-opacity="1" stop-color="rgb(21.960449%, 64.439392%, 81.303406%)" offset="0.421875"/><stop stop-opacity="1" stop-color="rgb(21.77124%, 64.13269%, 81.187439%)" offset="0.425781"/><stop stop-opacity="1" stop-color="rgb(21.582031%, 63.827515%, 81.071472%)" offset="0.429688"/><stop stop-opacity="1" stop-color="rgb(21.391296%, 63.520813%, 80.955505%)" offset="0.433594"/><stop stop-opacity="1" stop-color="rgb(21.202087%, 63.215637%, 80.839539%)" offset="0.4375"/><stop stop-opacity="1" stop-color="rgb(21.012878%, 62.910461%, 80.722046%)" offset="0.441406"/><stop stop-opacity="1" stop-color="rgb(20.823669%, 62.605286%, 80.606079%)" offset="0.445313"/><stop stop-opacity="1" stop-color="rgb(20.632935%, 62.298584%, 80.490112%)" offset="0.449219"/><stop stop-opacity="1" stop-color="rgb(20.443726%, 61.993408%, 80.374146%)" offset="0.453125"/><stop stop-opacity="1" stop-color="rgb(20.254517%, 61.686707%, 80.258179%)" offset="0.457031"/><stop stop-opacity="1" stop-color="rgb(20.065308%, 61.381531%, 80.142212%)" offset="0.460938"/><stop stop-opacity="1" stop-color="rgb(19.874573%, 61.074829%, 80.024719%)" offset="0.464844"/><stop stop-opacity="1" stop-color="rgb(19.685364%, 60.769653%, 79.908752%)" offset="0.46875"/><stop stop-opacity="1" stop-color="rgb(19.496155%, 60.462952%, 79.792786%)" offset="0.472656"/><stop stop-opacity="1" stop-color="rgb(19.306946%, 60.157776%, 79.676819%)" offset="0.476562"/><stop stop-opacity="1" stop-color="rgb(19.116211%, 59.851074%, 79.559326%)" offset="0.480469"/><stop stop-opacity="1" stop-color="rgb(18.927002%, 59.545898%, 79.443359%)" offset="0.484375"/><stop stop-opacity="1" stop-color="rgb(18.737793%, 59.240723%, 79.327393%)" offset="0.488281"/><stop stop-opacity="1" stop-color="rgb(18.548584%, 58.935547%, 79.211426%)" offset="0.492188"/><stop stop-opacity="1" stop-color="rgb(18.357849%, 58.628845%, 79.095459%)" offset="0.496094"/><stop stop-opacity="1" stop-color="rgb(18.16864%, 58.323669%, 78.979492%)" offset="0.5"/><stop stop-opacity="1" stop-color="rgb(17.979431%, 58.016968%, 78.862%)" offset="0.503906"/><stop stop-opacity="1" stop-color="rgb(17.790222%, 57.711792%, 78.746033%)" offset="0.507812"/><stop stop-opacity="1" stop-color="rgb(17.599487%, 57.40509%, 78.630066%)" offset="0.511719"/><stop stop-opacity="1" stop-color="rgb(17.410278%, 57.099915%, 78.514099%)" offset="0.515625"/><stop stop-opacity="1" stop-color="rgb(17.219543%, 56.793213%, 78.398132%)" offset="0.519531"/><stop stop-opacity="1" stop-color="rgb(17.030334%, 56.488037%, 78.282166%)" offset="0.523438"/><stop stop-opacity="1" stop-color="rgb(16.841125%, 56.182861%, 78.164673%)" offset="0.527344"/><stop stop-opacity="1" stop-color="rgb(16.651917%, 55.877686%, 78.048706%)" offset="0.53125"/><stop stop-opacity="1" stop-color="rgb(16.461182%, 55.570984%, 77.932739%)" offset="0.535156"/><stop stop-opacity="1" stop-color="rgb(16.271973%, 55.265808%, 77.816772%)" offset="0.539063"/><stop stop-opacity="1" stop-color="rgb(16.082764%, 54.959106%, 77.700806%)" offset="0.542969"/><stop stop-opacity="1" stop-color="rgb(15.893555%, 54.653931%, 77.584839%)" offset="0.546875"/><stop stop-opacity="1" stop-color="rgb(15.70282%, 54.347229%, 77.467346%)" offset="0.550781"/><stop stop-opacity="1" stop-color="rgb(15.513611%, 54.042053%, 77.351379%)" offset="0.554688"/><stop stop-opacity="1" stop-color="rgb(15.324402%, 53.735352%, 77.235413%)" offset="0.558594"/><stop stop-opacity="1" stop-color="rgb(15.135193%, 53.430176%, 77.119446%)" offset="0.5625"/><stop stop-opacity="1" stop-color="rgb(14.944458%, 53.125%, 77.001953%)" offset="0.566406"/><stop stop-opacity="1" stop-color="rgb(14.755249%, 52.819824%, 76.885986%)" offset="0.570312"/><stop stop-opacity="1" stop-color="rgb(14.56604%, 52.513123%, 76.77002%)" offset="0.574219"/><stop stop-opacity="1" stop-color="rgb(14.376831%, 52.207947%, 76.654053%)" offset="0.578125"/><stop stop-opacity="1" stop-color="rgb(14.186096%, 51.901245%, 76.538086%)" offset="0.582031"/><stop stop-opacity="1" stop-color="rgb(13.996887%, 51.596069%, 76.422119%)" offset="0.585938"/><stop stop-opacity="1" stop-color="rgb(13.807678%, 51.289368%, 76.304626%)" offset="0.589844"/><stop stop-opacity="1" stop-color="rgb(13.618469%, 50.984192%, 76.18866%)" offset="0.59375"/><stop stop-opacity="1" stop-color="rgb(13.427734%, 50.67749%, 76.072693%)" offset="0.597656"/><stop stop-opacity="1" stop-color="rgb(13.238525%, 50.372314%, 75.956726%)" offset="0.601562"/><stop stop-opacity="1" stop-color="rgb(13.049316%, 50.067139%, 75.840759%)" offset="0.605469"/><stop stop-opacity="1" stop-color="rgb(12.860107%, 49.761963%, 75.724792%)" offset="0.609375"/><stop stop-opacity="1" stop-color="rgb(12.669373%, 49.455261%, 75.6073%)" offset="0.613281"/><stop stop-opacity="1" stop-color="rgb(12.480164%, 49.150085%, 75.491333%)" offset="0.617188"/><stop stop-opacity="1" stop-color="rgb(12.290955%, 48.843384%, 75.375366%)" offset="0.621094"/><stop stop-opacity="1" stop-color="rgb(12.101746%, 48.538208%, 75.259399%)" offset="0.625"/><stop stop-opacity="1" stop-color="rgb(11.911011%, 48.231506%, 75.143433%)" offset="0.628906"/><stop stop-opacity="1" stop-color="rgb(11.721802%, 47.926331%, 75.027466%)" offset="0.632813"/><stop stop-opacity="1" stop-color="rgb(11.532593%, 47.619629%, 74.909973%)" offset="0.636719"/><stop stop-opacity="1" stop-color="rgb(11.343384%, 47.314453%, 74.794006%)" offset="0.640625"/><stop stop-opacity="1" stop-color="rgb(11.152649%, 47.009277%, 74.67804%)" offset="0.644531"/><stop stop-opacity="1" stop-color="rgb(10.96344%, 46.704102%, 74.562073%)" offset="0.648438"/><stop stop-opacity="1" stop-color="rgb(10.774231%, 46.3974%, 74.44458%)" offset="0.652344"/><stop stop-opacity="1" stop-color="rgb(10.585022%, 46.092224%, 74.328613%)" offset="0.65625"/><stop stop-opacity="1" stop-color="rgb(10.394287%, 45.785522%, 74.212646%)" offset="0.660156"/><stop stop-opacity="1" stop-color="rgb(10.205078%, 45.480347%, 74.09668%)" offset="0.664062"/><stop stop-opacity="1" stop-color="rgb(10.015869%, 45.173645%, 73.980713%)" offset="0.667969"/><stop stop-opacity="1" stop-color="rgb(9.82666%, 44.868469%, 73.864746%)" offset="0.671875"/><stop stop-opacity="1" stop-color="rgb(9.635925%, 44.561768%, 73.747253%)" offset="0.675781"/><stop stop-opacity="1" stop-color="rgb(9.446716%, 44.256592%, 73.631287%)" offset="0.679688"/><stop stop-opacity="1" stop-color="rgb(9.257507%, 43.951416%, 73.51532%)" offset="0.683594"/><stop stop-opacity="1" stop-color="rgb(9.068298%, 43.64624%, 73.399353%)" offset="0.6875"/><stop stop-opacity="1" stop-color="rgb(8.877563%, 43.339539%, 73.283386%)" offset="0.691406"/><stop stop-opacity="1" stop-color="rgb(8.688354%, 43.034363%, 73.167419%)" offset="0.695312"/><stop stop-opacity="1" stop-color="rgb(8.499146%, 42.727661%, 73.049927%)" offset="0.699219"/><stop stop-opacity="1" stop-color="rgb(8.309937%, 42.422485%, 72.93396%)" offset="0.703125"/><stop stop-opacity="1" stop-color="rgb(8.119202%, 42.115784%, 72.817993%)" offset="0.707031"/><stop stop-opacity="1" stop-color="rgb(7.929993%, 41.810608%, 72.702026%)" offset="0.710938"/><stop stop-opacity="1" stop-color="rgb(7.740784%, 41.503906%, 72.58606%)" offset="0.714844"/><stop stop-opacity="1" stop-color="rgb(7.551575%, 41.19873%, 72.470093%)" offset="0.71875"/><stop stop-opacity="1" stop-color="rgb(7.36084%, 40.892029%, 72.3526%)" offset="0.722656"/><stop stop-opacity="1" stop-color="rgb(7.171631%, 40.586853%, 72.236633%)" offset="0.726563"/><stop stop-opacity="1" stop-color="rgb(6.982422%, 40.281677%, 72.120667%)" offset="0.730469"/><stop stop-opacity="1" stop-color="rgb(6.793213%, 39.976501%, 72.0047%)" offset="0.734375"/><stop stop-opacity="1" stop-color="rgb(6.602478%, 39.6698%, 71.887207%)" offset="0.738281"/><stop stop-opacity="1" stop-color="rgb(6.413269%, 39.364624%, 71.77124%)" offset="0.742188"/><stop stop-opacity="1" stop-color="rgb(6.22406%, 39.057922%, 71.655273%)" offset="0.746094"/><stop stop-opacity="1" stop-color="rgb(6.034851%, 38.752747%, 71.539307%)" offset="0.75"/><stop stop-opacity="1" stop-color="rgb(5.844116%, 38.446045%, 71.42334%)" offset="0.753906"/><stop stop-opacity="1" stop-color="rgb(5.654907%, 38.140869%, 71.307373%)" offset="0.757813"/><stop stop-opacity="1" stop-color="rgb(5.465698%, 37.834167%, 71.18988%)" offset="0.761719"/><stop stop-opacity="1" stop-color="rgb(5.276489%, 37.528992%, 71.073914%)" offset="0.765625"/><stop stop-opacity="1" stop-color="rgb(5.085754%, 37.223816%, 70.957947%)" offset="0.769531"/><stop stop-opacity="1" stop-color="rgb(4.896545%, 36.91864%, 70.84198%)" offset="0.773438"/><stop stop-opacity="1" stop-color="rgb(4.707336%, 36.611938%, 70.726013%)" offset="0.777344"/><stop stop-opacity="1" stop-color="rgb(4.518127%, 36.306763%, 70.610046%)" offset="0.78125"/><stop stop-opacity="1" stop-color="rgb(4.327393%, 36.000061%, 70.492554%)" offset="0.785156"/><stop stop-opacity="1" stop-color="rgb(4.138184%, 35.694885%, 70.376587%)" offset="0.789062"/><stop stop-opacity="1" stop-color="rgb(3.948975%, 35.388184%, 70.26062%)" offset="0.792969"/><stop stop-opacity="1" stop-color="rgb(3.759766%, 35.083008%, 70.144653%)" offset="0.796875"/><stop stop-opacity="1" stop-color="rgb(3.569031%, 34.776306%, 70.028687%)" offset="0.800781"/><stop stop-opacity="1" stop-color="rgb(3.379822%, 34.47113%, 69.91272%)" offset="0.804688"/><stop stop-opacity="1" stop-color="rgb(3.190613%, 34.165955%, 69.795227%)" offset="0.808594"/><stop stop-opacity="1" stop-color="rgb(3.001404%, 33.860779%, 69.67926%)" offset="0.8125"/><stop stop-opacity="1" stop-color="rgb(2.810669%, 33.554077%, 69.563293%)" offset="0.816406"/><stop stop-opacity="1" stop-color="rgb(2.62146%, 33.248901%, 69.447327%)" offset="0.820312"/><stop stop-opacity="1" stop-color="rgb(2.432251%, 32.9422%, 69.329834%)" offset="0.824219"/><stop stop-opacity="1" stop-color="rgb(2.243042%, 32.637024%, 69.213867%)" offset="0.828125"/><stop stop-opacity="1" stop-color="rgb(2.052307%, 32.330322%, 69.0979%)" offset="0.832031"/><stop stop-opacity="1" stop-color="rgb(1.863098%, 32.025146%, 68.981934%)" offset="0.835938"/><stop stop-opacity="1" stop-color="rgb(1.673889%, 31.718445%, 68.865967%)" offset="0.839844"/><stop stop-opacity="1" stop-color="rgb(1.48468%, 31.413269%, 68.75%)" offset="0.84375"/><stop stop-opacity="1" stop-color="rgb(1.293945%, 31.108093%, 68.632507%)" offset="0.847656"/><stop stop-opacity="1" stop-color="rgb(1.104736%, 30.802917%, 68.516541%)" offset="0.851563"/><stop stop-opacity="1" stop-color="rgb(0.915527%, 30.496216%, 68.400574%)" offset="0.855469"/><stop stop-opacity="1" stop-color="rgb(0.726318%, 30.19104%, 68.284607%)" offset="0.859375"/><stop stop-opacity="1" stop-color="rgb(0.535583%, 29.884338%, 68.16864%)" offset="0.863281"/><stop stop-opacity="1" stop-color="rgb(0.346375%, 29.579163%, 68.052673%)" offset="0.867188"/><stop stop-opacity="1" stop-color="rgb(0.172424%, 29.298401%, 67.945862%)" offset="0.871094"/><stop stop-opacity="1" stop-color="rgb(0%, 29.019165%, 67.83905%)" offset="0.875"/><stop stop-opacity="1" stop-color="rgb(0%, 29.019165%, 67.83905%)" offset="1"/></linearGradient><clipPath id="03d1f32930"><rect x="0" width="375" y="0" height="245"/></clipPath><clipPath id="fcabd1638f"><path d="M 0 0.140625 L 375 0.140625 L 375 244.378906 L 0 244.378906 Z M 0 0.140625 " clip-rule="nonzero"/></clipPath><clipPath id="bd62c66124"><rect x="0" width="375" y="0" height="245"/></clipPath><clipPath id="a749b01e10"><rect x="0" width="375" y="0" height="245"/></clipPath><mask id="8f98ff6c96"><g filter="url(#671b747075)"><g transform="matrix(1, 0, 0, 1, 0, 0)"><g clip-path="url(#a749b01e10)"><g clip-path="url(#fcabd1638f)"><g transform="matrix(1, 0, 0, 1, 0, 0)"><g clip-path="url(#bd62c66124)"><g fill="#000000" fill-opacity="1"><g transform="translate(49.690729, 142.098351)"><g><path d="M 0 0 L 0 -0.484375 C 0.625 -0.484375 1.21875 -0.925781 1.78125 -1.8125 C 2.351562 -2.695312 2.894531 -3.820312 3.40625 -5.1875 C 3.914062 -6.5625 4.378906 -8.015625 4.796875 -9.546875 C 5.222656 -11.085938 5.601562 -12.515625 5.9375 -13.828125 C 6.78125 -17.117188 7.550781 -20.160156 8.25 -22.953125 C 8.957031 -25.753906 9.628906 -28.4375 10.265625 -31 C 10.898438 -33.5625 11.535156 -36.125 12.171875 -38.6875 C 12.816406 -41.257812 13.5 -43.945312 14.21875 -46.75 C 14.9375 -49.5625 15.703125 -52.601562 16.515625 -55.875 L 32.75 -55.875 C 33.59375 -52.601562 34.363281 -49.5625 35.0625 -46.75 C 35.769531 -43.945312 36.445312 -41.257812 37.09375 -38.6875 C 37.75 -36.125 38.40625 -33.5625 39.0625 -31 C 39.71875 -28.4375 40.390625 -25.753906 41.078125 -22.953125 C 41.765625 -20.160156 42.515625 -17.117188 43.328125 -13.828125 C 43.648438 -12.515625 44.023438 -11.085938 44.453125 -9.546875 C 44.878906 -8.015625 45.34375 -6.5625 45.84375 -5.1875 C 46.351562 -3.820312 46.894531 -2.695312 47.46875 -1.8125 C 48.039062 -0.925781 48.640625 -0.484375 49.265625 -0.484375 L 49.265625 0 L 24.65625 0 L 24.65625 -0.484375 C 25.863281 -1.398438 26.640625 -2.722656 26.984375 -4.453125 C 27.328125 -6.191406 27.40625 -8.160156 27.21875 -10.359375 C 27.039062 -12.566406 26.707031 -14.816406 26.21875 -17.109375 L 12.40625 -17.109375 C 12.726562 -13.316406 13.484375 -10.015625 14.671875 -7.203125 C 15.867188 -4.390625 17.613281 -2.148438 19.90625 -0.484375 L 19.90625 0 Z M 16.953125 -54.21875 C 15.328125 -47.0625 14.078125 -40.441406 13.203125 -34.359375 C 12.335938 -28.285156 12.054688 -22.863281 12.359375 -18.09375 L 26.03125 -18.09375 C 25.738281 -19.363281 25.4375 -20.609375 25.125 -21.828125 C 24.8125 -23.054688 24.523438 -24.226562 24.265625 -25.34375 C 23.671875 -27.625 23.144531 -29.660156 22.6875 -31.453125 C 22.238281 -33.253906 21.804688 -34.960938 21.390625 -36.578125 C 20.984375 -38.203125 20.566406 -39.863281 20.140625 -41.5625 C 19.722656 -43.257812 19.257812 -45.117188 18.75 -47.140625 C 18.238281 -49.171875 17.640625 -51.53125 16.953125 -54.21875 Z M 16.953125 -54.21875 "/></g></g></g><g fill="#000000" fill-opacity="1"><g transform="translate(97.470454, 142.098351)"><g><path d="M 2.203125 -27.9375 C 2.203125 -32.445312 2.851562 -36.488281 4.15625 -40.0625 C 5.46875 -43.644531 7.257812 -46.675781 9.53125 -49.15625 C 11.800781 -51.644531 14.40625 -53.539062 17.34375 -54.84375 C 20.289062 -56.15625 23.414062 -56.8125 26.71875 -56.8125 C 28.050781 -56.84375 29.191406 -56.816406 30.140625 -56.734375 C 31.085938 -56.648438 31.984375 -56.550781 32.828125 -56.4375 C 33.679688 -56.320312 34.585938 -56.210938 35.546875 -56.109375 C 36.515625 -56.015625 37.65625 -55.96875 38.96875 -55.96875 C 39.457031 -55.96875 39.988281 -56.039062 40.5625 -56.1875 C 41.132812 -56.34375 41.550781 -56.582031 41.8125 -56.90625 L 42.296875 -56.90625 L 42.296875 -39.109375 L 41.8125 -39.109375 C 41.644531 -40.453125 41.320312 -41.882812 40.84375 -43.40625 C 40.375 -44.925781 39.765625 -46.421875 39.015625 -47.890625 C 38.265625 -49.359375 37.375 -50.695312 36.34375 -51.90625 C 35.3125 -53.113281 34.160156 -54.078125 32.890625 -54.796875 C 31.617188 -55.515625 30.226562 -55.875 28.71875 -55.875 C 27.21875 -55.875 25.894531 -55.367188 24.75 -54.359375 C 23.601562 -53.347656 22.625 -51.941406 21.8125 -50.140625 C 21 -48.347656 20.335938 -46.265625 19.828125 -43.890625 C 19.316406 -41.523438 18.945312 -38.976562 18.71875 -36.25 C 18.488281 -33.519531 18.375 -30.734375 18.375 -27.890625 C 18.375 -25.078125 18.488281 -22.3125 18.71875 -19.59375 C 18.945312 -16.882812 19.316406 -14.347656 19.828125 -11.984375 C 20.335938 -9.617188 21 -7.535156 21.8125 -5.734375 C 22.625 -3.929688 23.601562 -2.523438 24.75 -1.515625 C 25.894531 -0.503906 27.21875 0 28.71875 0 L 28.71875 -24.65625 C 28.71875 -26.488281 28.472656 -27.929688 27.984375 -28.984375 C 27.492188 -30.046875 26.675781 -30.726562 25.53125 -31.03125 L 25.53125 -31.515625 L 47.59375 -31.515625 L 47.59375 -31.03125 C 46.445312 -30.726562 45.628906 -30.046875 45.140625 -28.984375 C 44.648438 -27.929688 44.40625 -26.488281 44.40625 -24.65625 L 44.40625 -3.09375 C 44.40625 -3.09375 44.003906 -2.882812 43.203125 -2.46875 C 42.398438 -2.0625 41.238281 -1.597656 39.71875 -1.078125 C 38.207031 -0.554688 36.351562 -0.09375 34.15625 0.3125 C 31.96875 0.726562 29.488281 0.9375 26.71875 0.9375 C 23.414062 0.9375 20.289062 0.285156 17.34375 -1.015625 C 14.40625 -2.328125 11.800781 -4.222656 9.53125 -6.703125 C 7.257812 -9.191406 5.46875 -12.222656 4.15625 -15.796875 C 2.851562 -19.378906 2.203125 -23.425781 2.203125 -27.9375 Z M 2.203125 -27.9375 "/></g></g></g><g fill="#000000" fill-opacity="1"><g transform="translate(144.809136, 142.098351)"><g><path d="M 40.53125 0 L 1.21875 0 L 1.21875 -0.484375 C 2.363281 -0.785156 3.179688 -1.472656 3.671875 -2.546875 C 4.160156 -3.628906 4.40625 -5.066406 4.40625 -6.859375 L 4.40625 -49.015625 C 4.40625 -50.847656 4.160156 -52.296875 3.671875 -53.359375 C 3.179688 -54.421875 2.363281 -55.097656 1.21875 -55.390625 L 1.21875 -55.875 L 40.53125 -55.875 L 40.53125 -39.015625 L 40.046875 -39.015625 C 40.046875 -40.097656 39.773438 -41.320312 39.234375 -42.6875 C 38.691406 -44.0625 37.914062 -45.46875 36.90625 -46.90625 C 35.894531 -48.34375 34.703125 -49.65625 33.328125 -50.84375 C 31.953125 -52.039062 30.414062 -53.015625 28.71875 -53.765625 C 27.019531 -54.515625 25.207031 -54.890625 23.28125 -54.890625 L 20.09375 -54.890625 L 20.09375 -30.34375 L 22.015625 -30.34375 C 23.222656 -30.34375 24.453125 -30.59375 25.703125 -31.09375 C 26.960938 -31.601562 28.140625 -32.257812 29.234375 -33.0625 C 30.328125 -33.863281 31.238281 -34.753906 31.96875 -35.734375 C 32.707031 -36.710938 33.160156 -37.660156 33.328125 -38.578125 L 33.828125 -38.578125 L 33.828125 -21.125 L 33.328125 -21.125 C 33.160156 -22.070312 32.707031 -23.023438 31.96875 -23.984375 C 31.238281 -24.953125 30.328125 -25.835938 29.234375 -26.640625 C 28.140625 -27.441406 26.960938 -28.09375 25.703125 -28.59375 C 24.453125 -29.101562 23.222656 -29.359375 22.015625 -29.359375 L 20.09375 -29.359375 L 20.09375 -0.984375 L 23.28125 -0.984375 C 25.207031 -0.984375 27.019531 -1.359375 28.71875 -2.109375 C 30.414062 -2.859375 31.953125 -3.828125 33.328125 -5.015625 C 34.703125 -6.210938 35.894531 -7.53125 36.90625 -8.96875 C 37.914062 -10.40625 38.691406 -11.8125 39.234375 -13.1875 C 39.773438 -14.5625 40.046875 -15.785156 40.046875 -16.859375 L 40.53125 -16.859375 Z M 40.53125 0 "/></g></g></g><g fill="#000000" fill-opacity="1"><g transform="translate(185.09106, 142.098351)"><g><path d="M 1.21875 -55.390625 L 1.21875 -55.875 L 17.203125 -55.875 L 40.4375 -16.03125 L 40.4375 -19.21875 C 40.4375 -21.632812 40.269531 -24.179688 39.9375 -26.859375 C 39.613281 -29.535156 39.15625 -32.210938 38.5625 -34.890625 C 37.976562 -37.578125 37.296875 -40.117188 36.515625 -42.515625 C 35.734375 -44.921875 34.859375 -47.078125 33.890625 -48.984375 C 32.929688 -50.898438 31.925781 -52.421875 30.875 -53.546875 C 29.832031 -54.671875 28.769531 -55.285156 27.6875 -55.390625 L 27.6875 -55.875 L 44.609375 -55.875 L 44.609375 -55.390625 C 43.460938 -55.097656 42.644531 -54.421875 42.15625 -53.359375 C 41.664062 -52.296875 41.421875 -50.847656 41.421875 -49.015625 L 41.421875 -6.859375 C 41.421875 -5.066406 41.664062 -3.628906 42.15625 -2.546875 C 42.644531 -1.472656 43.460938 -0.785156 44.609375 -0.484375 L 44.609375 0 L 31.03125 0 L 5.390625 -44.015625 L 5.390625 -41.375 C 5.390625 -38.726562 5.546875 -35.929688 5.859375 -32.984375 C 6.171875 -30.046875 6.617188 -27.101562 7.203125 -24.15625 C 7.796875 -21.21875 8.5 -18.398438 9.3125 -15.703125 C 10.125 -13.015625 11.019531 -10.570312 12 -8.375 C 12.988281 -6.1875 14.035156 -4.40625 15.140625 -3.03125 C 16.253906 -1.664062 17.414062 -0.816406 18.625 -0.484375 L 18.625 0 L 1.21875 0 L 1.21875 -0.484375 C 2.363281 -0.785156 3.179688 -1.472656 3.671875 -2.546875 C 4.160156 -3.628906 4.40625 -5.066406 4.40625 -6.859375 L 4.40625 -49.015625 C 4.40625 -50.847656 4.160156 -52.296875 3.671875 -53.359375 C 3.179688 -54.421875 2.363281 -55.097656 1.21875 -55.390625 Z M 1.21875 -55.390625 "/></g></g></g><g fill="#000000" fill-opacity="1"><g transform="translate(229.440419, 142.098351)"><g><path d="M 2.203125 -27.9375 C 2.203125 -32.445312 2.851562 -36.488281 4.15625 -40.0625 C 5.46875 -43.644531 7.257812 -46.675781 9.53125 -49.15625 C 11.800781 -51.644531 14.40625 -53.539062 17.34375 -54.84375 C 20.289062 -56.15625 23.414062 -56.8125 26.71875 -56.8125 C 28.050781 -56.8125 29.191406 -56.757812 30.140625 -56.65625 C 31.085938 -56.5625 31.984375 -56.457031 32.828125 -56.34375 C 33.679688 -56.226562 34.585938 -56.117188 35.546875 -56.015625 C 36.515625 -55.921875 37.65625 -55.875 38.96875 -55.875 C 39.457031 -55.875 39.988281 -55.945312 40.5625 -56.09375 C 41.132812 -56.238281 41.550781 -56.476562 41.8125 -56.8125 L 42.296875 -56.8125 L 42.296875 -39.015625 L 41.8125 -39.015625 C 41.644531 -40.359375 41.320312 -41.785156 40.84375 -43.296875 C 40.375 -44.816406 39.765625 -46.3125 39.015625 -47.78125 C 38.265625 -49.257812 37.375 -50.601562 36.34375 -51.8125 C 35.3125 -53.019531 34.160156 -53.984375 32.890625 -54.703125 C 31.617188 -55.421875 30.226562 -55.78125 28.71875 -55.78125 C 26.820312 -55.78125 25.21875 -55.003906 23.90625 -53.453125 C 22.601562 -51.898438 21.546875 -49.800781 20.734375 -47.15625 C 19.921875 -44.507812 19.320312 -41.523438 18.9375 -38.203125 C 18.5625 -34.890625 18.375 -31.453125 18.375 -27.890625 C 18.375 -25.078125 18.488281 -22.3125 18.71875 -19.59375 C 18.945312 -16.882812 19.316406 -14.347656 19.828125 -11.984375 C 20.335938 -9.617188 21 -7.535156 21.8125 -5.734375 C 22.625 -3.929688 23.601562 -2.523438 24.75 -1.515625 C 25.894531 -0.503906 27.21875 0 28.71875 0 C 29.957031 0 31.117188 -0.390625 32.203125 -1.171875 C 33.285156 -1.960938 34.273438 -3.007812 35.171875 -4.3125 C 36.066406 -5.625 36.875 -7.0625 37.59375 -8.625 C 38.3125 -10.195312 38.945312 -11.765625 39.5 -13.328125 C 40.0625 -14.898438 40.53125 -16.351562 40.90625 -17.6875 C 41.28125 -19.03125 41.582031 -20.09375 41.8125 -20.875 L 42.296875 -20.875 L 42.296875 -3.09375 C 42.296875 -3.09375 42 -2.882812 41.40625 -2.46875 C 40.820312 -2.0625 39.910156 -1.597656 38.671875 -1.078125 C 37.429688 -0.554688 35.820312 -0.09375 33.84375 0.3125 C 31.863281 0.726562 29.488281 0.9375 26.71875 0.9375 C 23.414062 0.9375 20.289062 0.285156 17.34375 -1.015625 C 14.40625 -2.328125 11.800781 -4.222656 9.53125 -6.703125 C 7.257812 -9.191406 5.46875 -12.222656 4.15625 -15.796875 C 2.851562 -19.378906 2.203125 -23.425781 2.203125 -27.9375 Z M 2.203125 -27.9375 "/></g></g></g><g fill="#000000" fill-opacity="1"><g transform="translate(272.466638, 142.098351)"><g><path d="M 0 -55.390625 L 0 -55.875 L 24.953125 -55.875 L 24.953125 -55.390625 C 23.835938 -55.054688 23.09375 -54.457031 22.71875 -53.59375 C 22.34375 -52.726562 22.242188 -51.675781 22.421875 -50.4375 C 22.597656 -49.195312 22.976562 -47.820312 23.5625 -46.3125 C 24.15625 -44.8125 24.863281 -43.242188 25.6875 -41.609375 C 26.957031 -39.160156 28.050781 -37.0625 28.96875 -35.3125 C 29.882812 -33.5625 30.71875 -32 31.46875 -30.625 C 32.21875 -29.257812 32.9375 -27.890625 33.625 -26.515625 C 34.28125 -27.953125 35.03125 -29.582031 35.875 -31.40625 C 36.726562 -33.238281 37.570312 -35.117188 38.40625 -37.046875 C 39.238281 -38.984375 39.945312 -40.800781 40.53125 -42.5 C 41.351562 -44.78125 41.578125 -46.898438 41.203125 -48.859375 C 40.828125 -50.828125 39.957031 -52.40625 38.59375 -53.59375 C 37.238281 -54.789062 35.5 -55.390625 33.375 -55.390625 L 33.375 -55.875 L 52.84375 -55.875 L 52.84375 -55.390625 C 51.957031 -55.390625 51.082031 -55.003906 50.21875 -54.234375 C 49.351562 -53.460938 48.484375 -52.441406 47.609375 -51.171875 C 46.742188 -49.898438 45.894531 -48.492188 45.0625 -46.953125 C 44.226562 -45.421875 43.421875 -43.867188 42.640625 -42.296875 C 41.660156 -40.367188 40.832031 -38.757812 40.15625 -37.46875 C 39.488281 -36.175781 38.914062 -35.070312 38.4375 -34.15625 C 37.96875 -33.25 37.53125 -32.382812 37.125 -31.5625 C 36.71875 -30.75 36.273438 -29.859375 35.796875 -28.890625 C 35.328125 -27.929688 34.765625 -26.734375 34.109375 -25.296875 L 34.109375 -6.859375 C 34.109375 -5.066406 34.351562 -3.628906 34.84375 -2.546875 C 35.332031 -1.472656 36.148438 -0.785156 37.296875 -0.484375 L 37.296875 0 L 15.25 0 L 15.25 -0.484375 C 16.382812 -0.785156 17.1875 -1.46875 17.65625 -2.53125 C 18.132812 -3.59375 18.394531 -5.035156 18.4375 -6.859375 L 18.71875 -25.1875 C 18.03125 -26.625 17.445312 -27.828125 16.96875 -28.796875 C 16.5 -29.765625 16.0625 -30.65625 15.65625 -31.46875 C 15.25 -32.28125 14.816406 -33.144531 14.359375 -34.0625 C 13.898438 -34.976562 13.335938 -36.082031 12.671875 -37.375 C 12.003906 -38.664062 11.175781 -40.273438 10.1875 -42.203125 C 9.40625 -43.773438 8.597656 -45.335938 7.765625 -46.890625 C 6.929688 -48.441406 6.082031 -49.859375 5.21875 -51.140625 C 4.351562 -52.429688 3.488281 -53.460938 2.625 -54.234375 C 1.757812 -55.003906 0.882812 -55.390625 0 -55.390625 Z M 0 -55.390625 "/></g></g></g></g></g></g></g></g></g></mask><clipPath id="3c0bccf7fc"><path d="M 0 0.140625 L 375 0.140625 L 375 244.378906 L 0 244.378906 Z M 0 0.140625 " clip-rule="nonzero"/></clipPath><clipPath id="a4cf943b53"><rect x="0" width="375" y="0" height="245"/></clipPath><clipPath id="b278863415"><rect x="0" width="375" y="0" height="245"/></clipPath><clipPath id="0a31d53a71"><rect x="0" width="375" y="0" height="344"/></clipPath></defs><g clip-path="url(#15841b8c8a)"><path fill="#3cabd2" d="M 160.542969 374.941406 C 153.46875 358.054688 147.476562 341.589844 151.78125 325.773438 C 155.546875 311.933594 167.519531 299.660156 184.636719 292.101562 C 195.820312 287.167969 207.953125 284.4375 219.691406 281.796875 C 226.804688 280.195312 234.164062 278.539062 241.238281 276.410156 C 257.332031 271.5625 278.226562 261.703125 286.40625 242.238281 C 290.109375 233.429688 290.730469 223.546875 291.332031 213.992188 C 292.007812 203.25 292.710938 192.136719 297.8125 182.582031 C 304.273438 170.480469 318.066406 161.476562 334.722656 158.492188 C 349.785156 155.792969 365.140625 157.707031 379.992188 159.558594 L 379.929688 160.074219 C 365.121094 158.230469 349.800781 156.320312 334.820312 159.003906 C 318.324219 161.957031 304.664062 170.863281 298.277344 182.824219 C 293.230469 192.285156 292.535156 203.335938 291.863281 214.023438 C 291.253906 223.621094 290.632812 233.546875 286.894531 242.4375 C 278.636719 262.089844 257.59375 272.027344 241.394531 276.90625 C 234.304688 279.039062 226.941406 280.699219 219.816406 282.304688 C 208.101562 284.9375 195.996094 287.664062 184.863281 292.578125 C 167.890625 300.074219 156.019531 312.222656 152.296875 325.90625 C 148.039062 341.566406 154.003906 357.941406 161.042969 374.738281 L 160.558594 374.941406 Z M 160.542969 374.941406 " fill-opacity="1" fill-rule="nonzero"/></g><g clip-path="url(#508cf38776)"><path fill="#3cabd2" d="M 184.863281 374.683594 C 179.167969 361.476562 173.453125 346.152344 177.761719 331.4375 C 179.195312 326.523438 181.746094 321.882812 185.347656 317.628906 C 190.667969 311.355469 198.175781 306.003906 207.0625 302.160156 C 216.921875 297.890625 227.609375 295.535156 237.945312 293.257812 L 239.882812 292.832031 C 245.410156 291.605469 251.285156 290.273438 256.953125 288.589844 C 268.34375 285.214844 283.820312 278.574219 292.828125 266.085938 C 294.472656 263.804688 295.863281 261.378906 296.964844 258.875 C 300.371094 251.109375 301.082031 242.359375 301.765625 233.898438 C 302.523438 224.574219 303.304688 214.933594 307.699219 206.570312 C 309.082031 203.929688 310.835938 201.429688 312.910156 199.140625 C 319.300781 192.082031 328.769531 186.933594 339.570312 184.65625 C 352.902344 181.816406 367.035156 183.242188 379.234375 184.804688 L 379.167969 185.324219 C 367.007812 183.765625 352.929688 182.34375 339.675781 185.167969 C 328.980469 187.425781 319.617188 192.515625 313.296875 199.496094 C 311.253906 201.753906 309.527344 204.21875 308.164062 206.816406 C 303.820312 215.085938 303.042969 224.671875 302.289062 233.9375 C 301.597656 242.441406 300.882812 251.234375 297.445312 259.082031 C 296.332031 261.625 294.921875 264.082031 293.257812 266.394531 C 284.160156 279.003906 268.574219 285.695312 257.105469 289.097656 C 251.414062 290.78125 245.53125 292.117188 240 293.34375 L 238.058594 293.773438 C 227.746094 296.046875 217.089844 298.398438 207.273438 302.644531 C 198.460938 306.457031 191.019531 311.757812 185.75 317.96875 C 182.199219 322.164062 179.679688 326.746094 178.269531 331.582031 C 174.007812 346.132812 179.683594 361.347656 185.34375 374.476562 Z M 184.863281 374.683594 " fill-opacity="1" fill-rule="nonzero"/></g><g clip-path="url(#1538c79103)"><path fill="#3cabd2" d="M 209.179688 374.429688 C 204.457031 363.875 199.574219 350.089844 203.746094 337.097656 C 205.089844 332.890625 207.375 328.925781 210.539062 325.320312 C 215.230469 319.992188 221.785156 315.464844 229.488281 312.226562 C 238.027344 308.628906 247.261719 306.648438 256.199219 304.726562 L 257.910156 304.363281 C 262.675781 303.335938 267.738281 302.210938 272.679688 300.78125 C 286.792969 296.695312 297.578125 290.085938 303.863281 281.664062 C 305.3125 279.726562 306.546875 277.652344 307.539062 275.515625 C 310.65625 268.777344 311.457031 261.148438 312.238281 253.773438 C 313.066406 245.886719 313.925781 237.730469 317.601562 230.574219 C 318.785156 228.28125 320.257812 226.09375 321.996094 224.085938 C 327.367188 217.859375 335.335938 213.152344 344.4375 210.828125 C 356.378906 207.734375 368.910156 208.792969 378.492188 210.058594 L 378.421875 210.578125 C 368.890625 209.3125 356.425781 208.257812 344.566406 211.332031 C 335.570312 213.625 327.695312 218.269531 322.394531 224.421875 C 320.683594 226.402344 319.230469 228.550781 318.066406 230.8125 C 314.4375 237.875 313.585938 245.984375 312.757812 253.820312 C 311.980469 261.242188 311.167969 268.914062 308.015625 275.730469 C 307.011719 277.90625 305.757812 280.007812 304.289062 281.972656 C 297.933594 290.488281 287.054688 297.160156 272.832031 301.28125 C 267.875 302.71875 262.796875 303.84375 258.027344 304.867188 L 256.316406 305.234375 C 247.40625 307.148438 238.191406 309.125 229.695312 312.703125 C 222.066406 315.914062 215.578125 320.394531 210.9375 325.664062 C 207.820312 329.207031 205.570312 333.109375 204.25 337.25 C 200.128906 350.078125 204.976562 363.738281 209.660156 374.210938 L 209.1875 374.421875 Z M 209.179688 374.429688 " fill-opacity="1" fill-rule="nonzero"/></g><g clip-path="url(#74309e7ff1)"><path fill="#3cabd2" d="M 233.5 374.171875 C 227.828125 362.113281 226.5625 351.542969 229.734375 342.753906 C 230.988281 339.238281 233.011719 335.960938 235.738281 333.011719 C 239.796875 328.632812 245.390625 324.925781 251.917969 322.285156 C 259.132812 319.359375 266.925781 317.75 274.457031 316.191406 L 275.933594 315.886719 C 279.929688 315.054688 284.183594 314.152344 288.398438 312.964844 C 300.464844 309.582031 309.375 304.289062 314.886719 297.238281 C 316.136719 295.636719 317.21875 293.921875 318.105469 292.144531 C 320.949219 286.425781 321.855469 279.890625 322.726562 273.570312 C 323.617188 267.136719 324.542969 260.480469 327.492188 254.566406 C 328.464844 252.613281 329.667969 250.746094 331.0625 249.011719 C 335.394531 243.644531 341.863281 239.378906 349.277344 236.988281 C 357.511719 234.339844 366.820312 233.789062 377.738281 235.304688 L 377.664062 235.820312 C 366.828125 234.320312 357.59375 234.863281 349.441406 237.484375 C 342.117188 239.839844 335.738281 244.046875 331.472656 249.335938 C 330.097656 251.039062 328.917969 252.875 327.960938 254.792969 C 325.050781 260.636719 324.132812 267.246094 323.25 273.636719 C 322.371094 279.996094 321.457031 286.574219 318.574219 292.371094 C 317.675781 294.179688 316.578125 295.921875 315.304688 297.550781 C 309.726562 304.695312 300.726562 310.046875 288.546875 313.460938 C 284.316406 314.648438 280.046875 315.558594 276.042969 316.390625 L 274.5625 316.691406 C 267.050781 318.246094 259.285156 319.851562 252.109375 322.757812 C 245.65625 325.371094 240.125 329.035156 236.117188 333.355469 C 233.441406 336.253906 231.460938 339.46875 230.226562 342.921875 C 227.101562 351.570312 228.367188 362.007812 233.972656 373.9375 L 233.5 374.164062 Z M 233.5 374.171875 " fill-opacity="1" fill-rule="nonzero"/></g><path fill="#3cabd2" d="M 257.816406 373.917969 C 253.3125 364.96875 252.566406 355.910156 255.71875 348.40625 C 256.890625 345.582031 258.648438 342.988281 260.929688 340.691406 C 264.40625 337.21875 268.914062 334.410156 274.34375 332.339844 C 280.242188 330.085938 286.578125 328.847656 292.714844 327.648438 L 293.957031 327.410156 C 297.050781 326.800781 300.636719 326.082031 304.125 325.144531 C 313.945312 322.519531 321.277344 318.367188 325.917969 312.800781 C 326.96875 311.542969 327.894531 310.1875 328.671875 308.769531 C 331.28125 304.027344 332.308594 298.535156 333.300781 293.222656 C 334.222656 288.285156 335.179688 283.1875 337.386719 278.558594 C 338.15625 276.953125 339.082031 275.398438 340.136719 273.949219 C 343.453125 269.40625 348.421875 265.574219 354.125 263.164062 C 361.085938 260.21875 368.78125 259.34375 376.992188 260.550781 L 376.914062 261.070312 C 368.800781 259.871094 361.195312 260.734375 354.324219 263.644531 C 348.707031 266.019531 343.820312 269.789062 340.554688 274.257812 C 339.515625 275.6875 338.609375 277.210938 337.855469 278.789062 C 335.675781 283.355469 334.730469 288.421875 333.8125 293.328125 C 332.816406 298.675781 331.78125 304.214844 329.132812 309.027344 C 328.339844 310.46875 327.390625 311.855469 326.324219 313.140625 C 321.617188 318.789062 314.191406 323 304.265625 325.65625 C 300.769531 326.59375 297.164062 327.320312 294.070312 327.925781 L 292.824219 328.167969 C 286.710938 329.359375 280.394531 330.59375 274.535156 332.832031 C 269.179688 334.875 264.730469 337.648438 261.304688 341.070312 C 259.066406 343.3125 257.351562 345.855469 256.207031 348.613281 C 253.113281 355.980469 253.851562 364.878906 258.289062 373.6875 L 257.820312 373.921875 Z M 257.816406 373.917969 " fill-opacity="1" fill-rule="nonzero"/><path fill="#3cabd2" d="M 282.140625 373.664062 C 278.695312 367.5 278.535156 360.167969 281.710938 354.054688 C 282.804688 351.925781 284.292969 350.015625 286.128906 348.378906 C 288.949219 345.878906 292.53125 343.867188 296.773438 342.402344 C 301.355469 340.8125 306.25 339.949219 310.988281 339.113281 L 311.984375 338.933594 C 314.511719 338.484375 317.214844 337.984375 319.851562 337.328125 C 327.550781 335.429688 333.140625 332.496094 336.953125 328.371094 C 337.800781 327.449219 338.574219 326.453125 339.246094 325.394531 C 341.722656 321.53125 342.871094 317.136719 344.097656 312.488281 C 344.964844 309.179688 345.863281 305.757812 347.28125 302.5625 C 347.84375 301.296875 348.488281 300.0625 349.207031 298.902344 C 351.527344 295.132812 354.988281 291.738281 358.957031 289.347656 C 364.382812 286.078125 370.359375 284.855469 376.242188 285.808594 L 376.160156 286.324219 C 370.402344 285.394531 364.542969 286.589844 359.226562 289.796875 C 355.328125 292.144531 351.929688 295.476562 349.648438 299.171875 C 348.949219 300.320312 348.3125 301.527344 347.757812 302.777344 C 346.355469 305.9375 345.460938 309.335938 344.597656 312.625 C 343.421875 317.113281 342.203125 321.75 339.6875 325.683594 C 338.996094 326.761719 338.207031 327.785156 337.332031 328.730469 C 333.453125 332.9375 327.773438 335.917969 319.976562 337.84375 C 317.324219 338.496094 314.617188 339.003906 312.078125 339.453125 L 311.082031 339.628906 C 306.363281 340.460938 301.484375 341.324219 296.945312 342.898438 C 292.765625 344.34375 289.246094 346.320312 286.476562 348.773438 C 284.6875 350.367188 283.238281 352.222656 282.171875 354.300781 C 279.074219 360.261719 279.230469 367.40625 282.59375 373.414062 L 282.140625 373.671875 Z M 282.140625 373.664062 " fill-opacity="1" fill-rule="nonzero"/><path fill="#3cabd2" d="M 306.46875 373.425781 C 302.703125 367.777344 305.949219 359.886719 311.34375 356.058594 C 316.515625 352.390625 323.003906 351.460938 329.28125 350.566406 L 330.019531 350.460938 C 336.480469 349.535156 343.191406 348.265625 347.992188 343.933594 C 352.144531 340.179688 354.15625 334.710938 356.101562 329.421875 C 356.78125 327.578125 357.484375 325.671875 358.261719 323.863281 C 361.453125 316.480469 368.023438 309.652344 375.496094 311.0625 L 375.402344 311.574219 C 368.214844 310.230469 361.855469 316.875 358.746094 324.066406 C 357.96875 325.859375 357.269531 327.765625 356.59375 329.601562 C 354.628906 334.949219 352.59375 340.484375 348.34375 344.320312 C 343.4375 348.75 336.636719 350.042969 330.097656 350.980469 L 329.359375 351.082031 C 323.144531 351.972656 316.71875 352.886719 311.652344 356.480469 C 306.5625 360.089844 303.363281 367.820312 306.90625 373.132812 L 306.472656 373.417969 Z M 306.46875 373.425781 " fill-opacity="1" fill-rule="nonzero"/><g clip-path="url(#ea1bceee37)"><path fill="#3cabd2" d="M 254.117188 0.0625 C 262.429688 19.902344 269.46875 39.242188 264.414062 57.828125 C 259.988281 74.085938 245.917969 88.503906 225.808594 97.382812 C 212.675781 103.183594 198.421875 106.390625 184.628906 109.492188 C 176.269531 111.371094 167.625 113.320312 159.3125 115.820312 C 140.410156 121.515625 115.855469 133.097656 106.246094 155.964844 C 101.898438 166.3125 101.167969 177.925781 100.460938 189.148438 C 99.667969 201.769531 98.84375 214.824219 92.847656 226.050781 C 85.257812 240.269531 69.050781 250.847656 49.484375 254.355469 C 31.789062 257.527344 13.75 255.277344 -3.699219 253.101562 L -3.625 252.496094 C 13.773438 254.664062 31.769531 256.90625 49.371094 253.753906 C 68.75 250.28125 84.800781 239.820312 92.300781 225.769531 C 98.230469 214.652344 99.046875 201.671875 99.839844 189.113281 C 100.550781 177.839844 101.285156 166.175781 105.675781 155.734375 C 115.378906 132.644531 140.101562 120.96875 159.128906 115.238281 C 167.460938 112.730469 176.113281 110.78125 184.480469 108.898438 C 198.242188 105.800781 212.464844 102.597656 225.546875 96.824219 C 245.484375 88.019531 259.429688 73.746094 263.804688 57.667969 C 268.804688 39.273438 261.800781 20.035156 253.53125 0.300781 L 254.097656 0.0625 Z M 254.117188 0.0625 " fill-opacity="1" fill-rule="nonzero"/></g><g clip-path="url(#4696cdfcbf)"><path fill="#3cabd2" d="M 225.546875 0.363281 C 232.238281 15.882812 238.953125 33.882812 233.890625 51.171875 C 232.207031 56.941406 229.207031 62.398438 224.976562 67.394531 C 218.726562 74.765625 209.902344 81.050781 199.464844 85.566406 C 187.882812 90.582031 175.324219 93.351562 163.183594 96.023438 L 160.90625 96.527344 C 154.410156 97.964844 147.511719 99.53125 140.851562 101.511719 C 127.46875 105.472656 109.289062 113.277344 98.703125 127.949219 C 96.773438 130.628906 95.140625 133.480469 93.84375 136.421875 C 89.84375 145.546875 89.007812 155.824219 88.203125 165.765625 C 87.3125 176.71875 86.394531 188.042969 81.234375 197.867188 C 79.605469 200.972656 77.550781 203.90625 75.109375 206.597656 C 67.601562 214.894531 56.480469 220.9375 43.789062 223.617188 C 28.125 226.953125 11.523438 225.277344 -2.808594 223.441406 L -2.730469 222.832031 C 11.554688 224.664062 28.09375 226.332031 43.664062 223.015625 C 56.230469 220.363281 67.234375 214.382812 74.65625 206.179688 C 77.058594 203.527344 79.085938 200.632812 80.6875 197.578125 C 85.789062 187.867188 86.703125 176.605469 87.589844 165.714844 C 88.398438 155.726562 89.242188 145.398438 93.277344 136.175781 C 94.585938 133.191406 96.246094 130.300781 98.199219 127.585938 C 108.890625 112.773438 127.199219 104.910156 140.671875 100.914062 C 147.355469 98.9375 154.269531 97.363281 160.769531 95.925781 L 163.050781 95.421875 C 175.164062 92.75 187.6875 89.984375 199.21875 84.996094 C 209.570312 80.515625 218.316406 74.292969 224.5 66.996094 C 228.671875 62.066406 231.636719 56.683594 233.292969 51 C 238.300781 33.910156 231.628906 16.03125 224.980469 0.609375 Z M 225.546875 0.363281 " fill-opacity="1" fill-rule="nonzero"/></g><g clip-path="url(#237504118f)"><path fill="#3cabd2" d="M 196.976562 0.664062 C 202.523438 13.0625 208.261719 29.257812 203.359375 44.519531 C 201.78125 49.464844 199.097656 54.121094 195.378906 58.355469 C 189.867188 64.617188 182.167969 69.9375 173.121094 73.742188 C 163.085938 77.96875 152.234375 80.296875 141.734375 82.550781 L 139.726562 82.980469 C 134.128906 84.183594 128.183594 85.507812 122.375 87.191406 C 105.792969 91.988281 93.125 99.753906 85.738281 109.644531 C 84.035156 111.925781 82.585938 114.359375 81.417969 116.871094 C 77.757812 124.785156 76.816406 133.75 75.902344 142.414062 C 74.925781 151.675781 73.917969 161.261719 69.597656 169.667969 C 68.210938 172.363281 66.476562 174.933594 64.4375 177.292969 C 58.128906 184.609375 48.765625 190.140625 38.074219 192.867188 C 24.039062 196.503906 9.320312 195.257812 -1.9375 193.769531 L -1.855469 193.160156 C 9.34375 194.648438 23.984375 195.890625 37.921875 192.277344 C 48.488281 189.578125 57.742188 184.125 63.96875 176.898438 C 65.980469 174.570312 67.6875 172.046875 69.050781 169.390625 C 73.316406 161.089844 74.316406 151.566406 75.289062 142.355469 C 76.203125 133.640625 77.15625 124.625 80.859375 116.621094 C 82.039062 114.0625 83.515625 111.59375 85.242188 109.285156 C 92.707031 99.28125 105.484375 91.441406 122.199219 86.601562 C 128.023438 84.910156 133.988281 83.589844 139.589844 82.386719 L 141.601562 81.957031 C 152.070312 79.707031 162.894531 77.382812 172.875 73.179688 C 181.835938 69.410156 189.460938 64.144531 194.910156 57.957031 C 198.574219 53.789062 201.214844 49.207031 202.769531 44.339844 C 207.613281 29.269531 201.917969 13.222656 196.410156 0.921875 L 196.96875 0.667969 Z M 196.976562 0.664062 " fill-opacity="1" fill-rule="nonzero"/></g><g clip-path="url(#e198689e2a)"><path fill="#3cabd2" d="M 168.40625 0.964844 C 175.066406 15.132812 176.554688 27.550781 172.832031 37.878906 C 171.355469 42.007812 168.976562 45.859375 165.777344 49.324219 C 161.007812 54.464844 154.433594 58.824219 146.765625 61.925781 C 138.289062 65.359375 129.132812 67.253906 120.285156 69.082031 L 118.554688 69.441406 C 113.859375 70.417969 108.859375 71.480469 103.90625 72.875 C 89.734375 76.847656 79.261719 83.066406 72.789062 91.347656 C 71.320312 93.230469 70.046875 95.246094 69.007812 97.332031 C 65.667969 104.054688 64.601562 111.730469 63.578125 119.15625 C 62.53125 126.714844 61.445312 134.535156 57.980469 141.484375 C 56.835938 143.777344 55.425781 145.96875 53.785156 148.007812 C 48.695312 154.3125 41.097656 159.328125 32.382812 162.132812 C 22.714844 165.242188 11.777344 165.894531 -1.050781 164.113281 L -0.964844 163.503906 C 11.765625 165.269531 22.617188 164.628906 32.195312 161.550781 C 40.796875 158.785156 48.292969 153.839844 53.304688 147.628906 C 54.921875 145.625 56.304688 143.46875 57.425781 141.214844 C 60.847656 134.351562 61.925781 126.585938 62.964844 119.078125 C 63.996094 111.605469 65.070312 103.878906 68.457031 97.070312 C 69.511719 94.945312 70.804688 92.898438 72.296875 90.980469 C 78.851562 82.589844 89.425781 76.300781 103.734375 72.289062 C 108.707031 70.894531 113.71875 69.828125 118.425781 68.851562 L 120.164062 68.492188 C 128.988281 66.667969 138.109375 64.78125 146.539062 61.367188 C 154.121094 58.300781 160.621094 53.992188 165.328125 48.917969 C 168.472656 45.515625 170.804688 41.734375 172.253906 37.679688 C 175.921875 27.519531 174.433594 15.253906 167.847656 1.242188 L 168.40625 0.976562 Z M 168.40625 0.964844 " fill-opacity="1" fill-rule="nonzero"/></g><path fill="#3cabd2" d="M 139.835938 1.265625 C 145.128906 11.777344 146.003906 22.417969 142.300781 31.234375 C 140.925781 34.554688 138.859375 37.601562 136.179688 40.296875 C 132.09375 44.378906 126.800781 47.675781 120.421875 50.109375 C 113.492188 52.757812 106.046875 54.214844 98.839844 55.621094 L 97.375 55.90625 C 93.746094 56.617188 89.53125 57.464844 85.433594 58.566406 C 73.894531 61.648438 65.28125 66.527344 59.828125 73.066406 C 58.59375 74.546875 57.507812 76.136719 56.589844 77.800781 C 53.527344 83.375 52.320312 89.824219 51.152344 96.066406 C 50.074219 101.867188 48.949219 107.859375 46.355469 113.296875 C 45.453125 115.183594 44.363281 117.007812 43.125 118.707031 C 39.230469 124.046875 33.390625 128.550781 26.6875 131.382812 C 18.511719 134.84375 9.472656 135.867188 -0.171875 134.449219 L -0.0820312 133.839844 C 9.449219 135.25 18.382812 134.234375 26.457031 130.820312 C 33.054688 128.027344 38.796875 123.597656 42.632812 118.347656 C 43.855469 116.667969 44.917969 114.882812 45.804688 113.027344 C 48.363281 107.660156 49.476562 101.707031 50.550781 95.945312 C 51.726562 89.660156 52.941406 83.152344 56.050781 77.5 C 56.984375 75.804688 58.097656 74.175781 59.351562 72.664062 C 64.878906 66.03125 73.605469 61.082031 85.265625 57.960938 C 89.375 56.863281 93.609375 56.007812 97.246094 55.296875 L 98.707031 55.011719 C 105.890625 53.613281 113.3125 52.164062 120.195312 49.53125 C 126.484375 47.128906 131.714844 43.875 135.738281 39.855469 C 138.367188 37.21875 140.382812 34.234375 141.730469 30.992188 C 145.359375 22.339844 144.496094 11.882812 139.285156 1.535156 L 139.832031 1.257812 Z M 139.835938 1.265625 " fill-opacity="1" fill-rule="nonzero"/><path fill="#3cabd2" d="M 111.261719 1.5625 C 115.308594 8.804688 115.496094 17.417969 111.765625 24.601562 C 110.480469 27.101562 108.730469 29.34375 106.574219 31.265625 C 103.261719 34.203125 99.054688 36.570312 94.070312 38.289062 C 88.6875 40.15625 82.9375 41.171875 77.371094 42.152344 L 76.195312 42.363281 C 73.230469 42.890625 70.054688 43.480469 66.957031 44.25 C 57.914062 46.480469 51.34375 49.925781 46.867188 54.773438 C 45.871094 55.855469 44.960938 57.027344 44.167969 58.269531 C 41.261719 62.808594 39.910156 67.972656 38.472656 73.433594 C 37.453125 77.324219 36.394531 81.339844 34.730469 85.09375 C 34.066406 86.582031 33.3125 88.03125 32.46875 89.394531 C 29.742188 93.824219 25.675781 97.8125 21.011719 100.621094 C 14.640625 104.460938 7.617188 105.898438 0.707031 104.78125 L 0.804688 104.171875 C 7.570312 105.265625 14.449219 103.859375 20.699219 100.09375 C 25.277344 97.332031 29.269531 93.417969 31.949219 89.074219 C 32.769531 87.730469 33.519531 86.3125 34.171875 84.84375 C 35.820312 81.132812 36.871094 77.136719 37.882812 73.273438 C 39.265625 68.003906 40.695312 62.550781 43.652344 57.933594 C 44.464844 56.667969 45.390625 55.460938 46.417969 54.351562 C 50.976562 49.410156 57.648438 45.90625 66.808594 43.648438 C 69.925781 42.878906 73.105469 42.28125 76.085938 41.753906 L 77.261719 41.546875 C 82.800781 40.570312 88.535156 39.554688 93.867188 37.707031 C 98.777344 36.011719 102.910156 33.6875 106.167969 30.804688 C 108.269531 28.933594 109.972656 26.75 111.222656 24.3125 C 114.863281 17.308594 114.675781 8.914062 110.726562 1.855469 L 111.261719 1.554688 Z M 111.261719 1.5625 " fill-opacity="1" fill-rule="nonzero"/><path fill="#3cabd2" d="M 82.679688 1.84375 C 87.101562 8.480469 83.289062 17.75 76.953125 22.246094 C 70.875 26.554688 63.25 27.648438 55.878906 28.699219 L 55.011719 28.820312 C 47.417969 29.910156 39.535156 31.402344 33.894531 36.488281 C 29.015625 40.902344 26.652344 47.328125 24.367188 53.539062 C 23.566406 55.707031 22.746094 57.945312 21.828125 60.070312 C 18.082031 68.746094 10.363281 76.761719 1.585938 75.109375 L 1.695312 74.507812 C 10.136719 76.085938 17.609375 68.277344 21.261719 59.832031 C 22.171875 57.722656 22.996094 55.488281 23.789062 53.332031 C 26.097656 47.042969 28.488281 40.542969 33.484375 36.035156 C 39.246094 30.832031 47.234375 29.3125 54.921875 28.214844 L 55.785156 28.089844 C 63.085938 27.046875 70.636719 25.972656 76.589844 21.75 C 82.570312 17.511719 86.328125 8.429688 82.164062 2.1875 L 82.671875 1.847656 Z M 82.679688 1.84375 " fill-opacity="1" fill-rule="nonzero"/><g transform="matrix(1, 0, 0, 1, 0, 16)"><g clip-path="url(#0a31d53a71)"><g clip-path="url(#d8a560c084)"><g transform="matrix(1, 0, 0, 1, 0, 1)"><g clip-path="url(#5b4a73f6cc)"><g clip-path="url(#4ffa7ae9c3)"><g mask="url(#3eff9b60b9)"><g transform="matrix(1, 0, 0, 1, 0, -0.000000000000003553)"><g clip-path="url(#b3d5ebfcea)"><g clip-path="url(#44bd9ae71b)"><path fill="url(#8c5da05c00)" d="M 0 0.148438 L 0 292.882812 L 375 292.882812 L 375 0.148438 Z M 0 0.148438 " fill-rule="nonzero"/></g></g></g></g></g></g></g></g><g clip-path="url(#60a6bb1a3f)"><g transform="matrix(1, 0, 0, 1, 0, 98)"><g clip-path="url(#b278863415)"><g clip-path="url(#3ff74554c6)"><g mask="url(#8f98ff6c96)"><g transform="matrix(1, 0, 0, 1, 0, 0)"><g clip-path="url(#a4cf943b53)"><g clip-path="url(#3c0bccf7fc)"><path fill="url(#84bfd96c44)" d="M 0 0.140625 L 0 244.378906 L 375 244.378906 L 375 0.140625 Z M 0 0.140625 " fill-rule="nonzero"/></g></g></g></g></g></g></g></g></g></g></svg>