<svg xmlns="http://www.w3.org/2000/svg" xmlns:xlink="http://www.w3.org/1999/xlink" width="500" zoomAndPan="magnify" viewBox="0 0 375 374.999991" height="500" preserveAspectRatio="xMidYMid meet" version="1.0"><defs><filter x="0%" y="0%" width="100%" height="100%" id="efbffeae8e"><feColorMatrix values="0 0 0 0 1 0 0 0 0 1 0 0 0 0 1 0 0 0 1 0" color-interpolation-filters="sRGB"/></filter><g/><clipPath id="77155d9eb4"><path d="M 0 1.25 L 375 1.25 L 375 207.570312 L 0 207.570312 Z M 0 1.25 " clip-rule="nonzero"/></clipPath><clipPath id="82f78cac5e"><path d="M 0 0.25 L 375 0.25 L 375 206.570312 L 0 206.570312 Z M 0 0.25 " clip-rule="nonzero"/></clipPath><clipPath id="1c6ac381b7"><path d="M 18.730469 0.25 L 355.554688 0.25 L 355.554688 206.570312 L 18.730469 206.570312 Z M 18.730469 0.25 " clip-rule="nonzero"/></clipPath><linearGradient x1="230.73399" gradientTransform="matrix(0.621624, 0, 0, 0.620743, 43.712901, 69.259962)" y1="-111.17281" x2="230.73399" gradientUnits="userSpaceOnUse" y2="221.202966" id="08039d7e89"><stop stop-opacity="1" stop-color="rgb(39.608765%, 70.979309%, 87.838745%)" offset="0"/><stop stop-opacity="1" stop-color="rgb(39.608765%, 70.979309%, 87.838745%)" offset="0.25"/><stop stop-opacity="1" stop-color="rgb(39.608765%, 70.979309%, 87.838745%)" offset="0.28125"/><stop stop-opacity="1" stop-color="rgb(39.724731%, 71.043396%, 87.832642%)" offset="0.289062"/><stop stop-opacity="1" stop-color="rgb(40.000916%, 71.194458%, 87.820435%)" offset="0.296875"/><stop stop-opacity="1" stop-color="rgb(40.318298%, 71.368408%, 87.805176%)" offset="0.304687"/><stop stop-opacity="1" stop-color="rgb(40.634155%, 71.542358%, 87.789917%)" offset="0.3125"/><stop stop-opacity="1" stop-color="rgb(40.951538%, 71.716309%, 87.774658%)" offset="0.320312"/><stop stop-opacity="1" stop-color="rgb(41.268921%, 71.890259%, 87.759399%)" offset="0.328125"/><stop stop-opacity="1" stop-color="rgb(41.586304%, 72.064209%, 87.744141%)" offset="0.335938"/><stop stop-opacity="1" stop-color="rgb(41.903687%, 72.238159%, 87.728882%)" offset="0.34375"/><stop stop-opacity="1" stop-color="rgb(42.221069%, 72.412109%, 87.713623%)" offset="0.351562"/><stop stop-opacity="1" stop-color="rgb(42.538452%, 72.584534%, 87.698364%)" offset="0.359375"/><stop stop-opacity="1" stop-color="rgb(42.855835%, 72.758484%, 87.683105%)" offset="0.367188"/><stop stop-opacity="1" stop-color="rgb(43.173218%, 72.932434%, 87.667847%)" offset="0.375"/><stop stop-opacity="1" stop-color="rgb(43.489075%, 73.106384%, 87.652588%)" offset="0.382812"/><stop stop-opacity="1" stop-color="rgb(43.806458%, 73.280334%, 87.637329%)" offset="0.390625"/><stop stop-opacity="1" stop-color="rgb(44.12384%, 73.454285%, 87.62207%)" offset="0.398438"/><stop stop-opacity="1" stop-color="rgb(44.441223%, 73.628235%, 87.606812%)" offset="0.40625"/><stop stop-opacity="1" stop-color="rgb(44.758606%, 73.802185%, 87.591553%)" offset="0.414062"/><stop stop-opacity="1" stop-color="rgb(45.075989%, 73.976135%, 87.576294%)" offset="0.421875"/><stop stop-opacity="1" stop-color="rgb(45.393372%, 74.150085%, 87.561035%)" offset="0.429688"/><stop stop-opacity="1" stop-color="rgb(45.710754%, 74.324036%, 87.545776%)" offset="0.4375"/><stop stop-opacity="1" stop-color="rgb(46.028137%, 74.497986%, 87.530518%)" offset="0.445312"/><stop stop-opacity="1" stop-color="rgb(46.343994%, 74.671936%, 87.515259%)" offset="0.453125"/><stop stop-opacity="1" stop-color="rgb(46.661377%, 74.845886%, 87.5%)" offset="0.460937"/><stop stop-opacity="1" stop-color="rgb(46.97876%, 75.019836%, 87.484741%)" offset="0.46875"/><stop stop-opacity="1" stop-color="rgb(47.296143%, 75.193787%, 87.469482%)" offset="0.476562"/><stop stop-opacity="1" stop-color="rgb(47.613525%, 75.367737%, 87.454224%)" offset="0.484375"/><stop stop-opacity="1" stop-color="rgb(47.930908%, 75.541687%, 87.438965%)" offset="0.492187"/><stop stop-opacity="1" stop-color="rgb(48.248291%, 75.715637%, 87.423706%)" offset="0.5"/><stop stop-opacity="1" stop-color="rgb(48.565674%, 75.889587%, 87.408447%)" offset="0.507812"/><stop stop-opacity="1" stop-color="rgb(48.883057%, 76.063538%, 87.393188%)" offset="0.515625"/><stop stop-opacity="1" stop-color="rgb(49.198914%, 76.237488%, 87.37793%)" offset="0.523438"/><stop stop-opacity="1" stop-color="rgb(49.516296%, 76.411438%, 87.362671%)" offset="0.53125"/><stop stop-opacity="1" stop-color="rgb(49.833679%, 76.585388%, 87.347412%)" offset="0.539063"/><stop stop-opacity="1" stop-color="rgb(50.151062%, 76.759338%, 87.332153%)" offset="0.546875"/><stop stop-opacity="1" stop-color="rgb(50.468445%, 76.933289%, 87.316895%)" offset="0.554688"/><stop stop-opacity="1" stop-color="rgb(50.785828%, 77.107239%, 87.301636%)" offset="0.5625"/><stop stop-opacity="1" stop-color="rgb(51.10321%, 77.281189%, 87.286377%)" offset="0.570312"/><stop stop-opacity="1" stop-color="rgb(51.420593%, 77.455139%, 87.271118%)" offset="0.578125"/><stop stop-opacity="1" stop-color="rgb(51.737976%, 77.629089%, 87.255859%)" offset="0.585938"/><stop stop-opacity="1" stop-color="rgb(52.053833%, 77.80304%, 87.240601%)" offset="0.59375"/><stop stop-opacity="1" stop-color="rgb(52.371216%, 77.97699%, 87.225342%)" offset="0.601562"/><stop stop-opacity="1" stop-color="rgb(52.688599%, 78.15094%, 87.210083%)" offset="0.609375"/><stop stop-opacity="1" stop-color="rgb(53.005981%, 78.32489%, 87.194824%)" offset="0.617188"/><stop stop-opacity="1" stop-color="rgb(53.323364%, 78.49884%, 87.179565%)" offset="0.625"/><stop stop-opacity="1" stop-color="rgb(53.640747%, 78.672791%, 87.164307%)" offset="0.632812"/><stop stop-opacity="1" stop-color="rgb(53.95813%, 78.846741%, 87.149048%)" offset="0.640625"/><stop stop-opacity="1" stop-color="rgb(54.275513%, 79.020691%, 87.133789%)" offset="0.648438"/><stop stop-opacity="1" stop-color="rgb(54.592896%, 79.194641%, 87.11853%)" offset="0.65625"/><stop stop-opacity="1" stop-color="rgb(54.908752%, 79.368591%, 87.103271%)" offset="0.664062"/><stop stop-opacity="1" stop-color="rgb(55.226135%, 79.542542%, 87.088013%)" offset="0.671875"/><stop stop-opacity="1" stop-color="rgb(55.543518%, 79.716492%, 87.072754%)" offset="0.679688"/><stop stop-opacity="1" stop-color="rgb(55.860901%, 79.890442%, 87.057495%)" offset="0.6875"/><stop stop-opacity="1" stop-color="rgb(56.178284%, 80.064392%, 87.042236%)" offset="0.695312"/><stop stop-opacity="1" stop-color="rgb(56.495667%, 80.238342%, 87.026978%)" offset="0.703125"/><stop stop-opacity="1" stop-color="rgb(56.813049%, 80.412292%, 87.011719%)" offset="0.710938"/><stop stop-opacity="1" stop-color="rgb(57.130432%, 80.586243%, 86.99646%)" offset="0.71875"/><stop stop-opacity="1" stop-color="rgb(57.447815%, 80.760193%, 86.981201%)" offset="0.726562"/><stop stop-opacity="1" stop-color="rgb(57.763672%, 80.934143%, 86.965942%)" offset="0.734375"/><stop stop-opacity="1" stop-color="rgb(58.081055%, 81.108093%, 86.950684%)" offset="0.742188"/><stop stop-opacity="1" stop-color="rgb(58.398438%, 81.282043%, 86.935425%)" offset="0.75"/><stop stop-opacity="1" stop-color="rgb(58.71582%, 81.455994%, 86.920166%)" offset="0.757812"/><stop stop-opacity="1" stop-color="rgb(59.033203%, 81.629944%, 86.904907%)" offset="0.765625"/><stop stop-opacity="1" stop-color="rgb(59.350586%, 81.803894%, 86.889648%)" offset="0.773438"/><stop stop-opacity="1" stop-color="rgb(59.667969%, 81.977844%, 86.87439%)" offset="0.78125"/><stop stop-opacity="1" stop-color="rgb(59.985352%, 82.151794%, 86.859131%)" offset="0.789062"/><stop stop-opacity="1" stop-color="rgb(60.302734%, 82.325745%, 86.843872%)" offset="0.796875"/><stop stop-opacity="1" stop-color="rgb(60.618591%, 82.499695%, 86.828613%)" offset="0.804688"/><stop stop-opacity="1" stop-color="rgb(60.935974%, 82.673645%, 86.813354%)" offset="0.8125"/><stop stop-opacity="1" stop-color="rgb(61.253357%, 82.847595%, 86.798096%)" offset="0.820312"/><stop stop-opacity="1" stop-color="rgb(61.57074%, 83.021545%, 86.782837%)" offset="0.828125"/><stop stop-opacity="1" stop-color="rgb(61.888123%, 83.195496%, 86.767578%)" offset="0.835938"/><stop stop-opacity="1" stop-color="rgb(62.205505%, 83.369446%, 86.752319%)" offset="0.84375"/><stop stop-opacity="1" stop-color="rgb(62.522888%, 83.543396%, 86.737061%)" offset="0.851562"/><stop stop-opacity="1" stop-color="rgb(62.840271%, 83.717346%, 86.721802%)" offset="0.859375"/><stop stop-opacity="1" stop-color="rgb(63.157654%, 83.891296%, 86.706543%)" offset="0.867188"/><stop stop-opacity="1" stop-color="rgb(63.473511%, 84.065247%, 86.691284%)" offset="0.875"/><stop stop-opacity="1" stop-color="rgb(63.775635%, 84.230042%, 86.676025%)" offset="1"/></linearGradient><clipPath id="bfb8fa092a"><rect x="0" width="375" y="0" height="207"/></clipPath><clipPath id="67ffaf5081"><path d="M 0 0.25 L 375 0.25 L 375 206.570312 L 0 206.570312 Z M 0 0.25 " clip-rule="nonzero"/></clipPath><clipPath id="1951c52bb7"><rect x="0" width="375" y="0" height="207"/></clipPath><clipPath id="d81d40f9aa"><rect x="0" width="375" y="0" height="207"/></clipPath><mask id="4e3c3c3bbb"><g filter="url(#efbffeae8e)"><g transform="matrix(1, 0, 0, 1, 0, 0)"><g clip-path="url(#d81d40f9aa)"><g clip-path="url(#67ffaf5081)"><g transform="matrix(1, 0, 0, 1, 0, 0)"><g clip-path="url(#1951c52bb7)"><g fill="#000000" fill-opacity="1"><g transform="translate(87.711578, 100.302983)"><g><path d="M 0.859375 -0.34375 C 1.671875 -0.550781 2.25 -1.035156 2.59375 -1.796875 C 2.9375 -2.554688 3.109375 -3.570312 3.109375 -4.84375 L 3.109375 -34.546875 C 3.109375 -35.835938 2.9375 -36.859375 2.59375 -37.609375 C 2.25 -38.359375 1.671875 -38.832031 0.859375 -39.03125 L 0.859375 -39.390625 L 14.03125 -39.390625 L 21.703125 -15.78125 L 27.21875 -39.390625 L 40.53125 -39.390625 L 40.53125 -39.03125 C 39.71875 -38.832031 39.140625 -38.359375 38.796875 -37.609375 C 38.453125 -36.859375 38.28125 -35.835938 38.28125 -34.546875 L 38.28125 -4.84375 C 38.28125 -3.570312 38.453125 -2.554688 38.796875 -1.796875 C 39.140625 -1.035156 39.71875 -0.550781 40.53125 -0.34375 L 40.53125 0 L 24.984375 0 L 24.984375 -0.34375 C 25.785156 -0.550781 26.359375 -1.035156 26.703125 -1.796875 C 27.046875 -2.554688 27.21875 -3.570312 27.21875 -4.84375 L 27.21875 -36 L 18.796875 0 L 15.71875 0 L 3.796875 -36.71875 L 3.796875 -29.15625 C 3.796875 -27.289062 3.90625 -25.320312 4.125 -23.25 C 4.34375 -21.175781 4.660156 -19.101562 5.078125 -17.03125 C 5.492188 -14.957031 5.988281 -12.96875 6.5625 -11.0625 C 7.132812 -9.164062 7.765625 -7.445312 8.453125 -5.90625 C 9.148438 -4.363281 9.890625 -3.109375 10.671875 -2.140625 C 11.453125 -1.171875 12.269531 -0.570312 13.125 -0.34375 L 13.125 0 L 0.859375 0 Z M 0.859375 -0.34375 "/></g></g></g><g fill="#000000" fill-opacity="1"><g transform="translate(128.052689, 100.302983)"><g><path d="M 1.546875 -19.6875 C 1.546875 -22.863281 1.914062 -25.710938 2.65625 -28.234375 C 3.394531 -30.765625 4.441406 -32.90625 5.796875 -34.65625 C 7.160156 -36.40625 8.769531 -37.738281 10.625 -38.65625 C 12.476562 -39.582031 14.507812 -40.046875 16.71875 -40.046875 C 18.925781 -40.046875 20.957031 -39.582031 22.8125 -38.65625 C 24.664062 -37.738281 26.269531 -36.40625 27.625 -34.65625 C 28.988281 -32.90625 30.039062 -30.765625 30.78125 -28.234375 C 31.519531 -25.710938 31.890625 -22.863281 31.890625 -19.6875 C 31.890625 -15.425781 31.242188 -11.773438 29.953125 -8.734375 C 28.660156 -5.703125 26.875 -3.378906 24.59375 -1.765625 C 22.3125 -0.148438 19.6875 0.65625 16.71875 0.65625 C 13.769531 0.65625 11.148438 -0.148438 8.859375 -1.765625 C 6.566406 -3.378906 4.773438 -5.703125 3.484375 -8.734375 C 2.191406 -11.773438 1.546875 -15.425781 1.546875 -19.6875 Z M 12.953125 -19.65625 C 12.953125 -17.65625 12.960938 -15.695312 12.984375 -13.78125 C 13.015625 -11.875 13.085938 -10.082031 13.203125 -8.40625 C 13.316406 -6.738281 13.503906 -5.273438 13.765625 -4.015625 C 14.035156 -2.765625 14.40625 -1.78125 14.875 -1.0625 C 15.34375 -0.351562 15.957031 0 16.71875 0 C 17.476562 0 18.09375 -0.351562 18.5625 -1.0625 C 19.039062 -1.78125 19.410156 -2.765625 19.671875 -4.015625 C 19.941406 -5.273438 20.132812 -6.738281 20.25 -8.40625 C 20.363281 -10.082031 20.429688 -11.875 20.453125 -13.78125 C 20.472656 -15.695312 20.484375 -17.65625 20.484375 -19.65625 C 20.484375 -21.65625 20.472656 -23.617188 20.453125 -25.546875 C 20.429688 -27.472656 20.363281 -29.269531 20.25 -30.9375 C 20.132812 -32.601562 19.941406 -34.066406 19.671875 -35.328125 C 19.410156 -36.597656 19.035156 -37.59375 18.546875 -38.3125 C 18.066406 -39.03125 17.457031 -39.390625 16.71875 -39.390625 C 15.976562 -39.390625 15.367188 -39.03125 14.890625 -38.3125 C 14.410156 -37.59375 14.035156 -36.597656 13.765625 -35.328125 C 13.503906 -34.066406 13.316406 -32.601562 13.203125 -30.9375 C 13.085938 -29.269531 13.015625 -27.472656 12.984375 -25.546875 C 12.960938 -23.617188 12.953125 -21.65625 12.953125 -19.65625 Z M 12.953125 -19.65625 "/></g></g></g><g fill="#000000" fill-opacity="1"><g transform="translate(160.449861, 100.302983)"><g><path d="M 0.859375 -26.078125 L 0.859375 -39.390625 L 30.78125 -39.390625 L 30.78125 -26.078125 L 30.4375 -26.078125 C 30.4375 -27.066406 30.28125 -28.128906 29.96875 -29.265625 C 29.65625 -30.410156 29.21875 -31.539062 28.65625 -32.65625 C 28.09375 -33.78125 27.4375 -34.796875 26.6875 -35.703125 C 25.9375 -36.609375 25.125 -37.332031 24.25 -37.875 C 23.375 -38.414062 22.460938 -38.6875 21.515625 -38.6875 L 21.171875 -38.6875 L 21.171875 -4.84375 C 21.171875 -3.570312 21.34375 -2.554688 21.6875 -1.796875 C 22.039062 -1.035156 22.617188 -0.550781 23.421875 -0.34375 L 23.421875 0 L 7.875 0 L 7.875 -0.34375 C 8.675781 -0.550781 9.25 -1.035156 9.59375 -1.796875 C 9.945312 -2.554688 10.125 -3.570312 10.125 -4.84375 L 10.125 -38.6875 C 9.195312 -38.6875 8.289062 -38.414062 7.40625 -37.875 C 6.519531 -37.332031 5.703125 -36.609375 4.953125 -35.703125 C 4.203125 -34.796875 3.546875 -33.78125 2.984375 -32.65625 C 2.421875 -31.539062 1.984375 -30.410156 1.671875 -29.265625 C 1.359375 -28.128906 1.203125 -27.066406 1.203125 -26.078125 Z M 0.859375 -26.078125 "/></g></g></g><g fill="#000000" fill-opacity="1"><g transform="translate(191.051016, 100.302983)"><g><path d="M 3.109375 -34.546875 C 3.109375 -35.835938 2.9375 -36.859375 2.59375 -37.609375 C 2.25 -38.359375 1.671875 -38.832031 0.859375 -39.03125 L 0.859375 -39.390625 L 16.40625 -39.390625 L 16.40625 -39.03125 C 15.601562 -38.832031 15.03125 -38.359375 14.6875 -37.609375 C 14.34375 -36.859375 14.171875 -35.835938 14.171875 -34.546875 L 14.171875 -23.21875 L 20.25 -23.21875 L 20.25 -34.546875 C 20.25 -35.835938 20.070312 -36.859375 19.71875 -37.609375 C 19.375 -38.359375 18.800781 -38.832031 18 -39.03125 L 18 -39.390625 L 33.546875 -39.390625 L 33.546875 -39.03125 C 32.734375 -38.832031 32.15625 -38.359375 31.8125 -37.609375 C 31.46875 -36.859375 31.296875 -35.835938 31.296875 -34.546875 L 31.296875 -4.84375 C 31.296875 -3.570312 31.46875 -2.554688 31.8125 -1.796875 C 32.15625 -1.035156 32.734375 -0.550781 33.546875 -0.34375 L 33.546875 0 L 18 0 L 18 -0.34375 C 18.800781 -0.550781 19.375 -1.035156 19.71875 -1.796875 C 20.070312 -2.554688 20.25 -3.570312 20.25 -4.84375 L 20.25 -22.53125 L 14.171875 -22.53125 L 14.171875 -4.84375 C 14.171875 -3.570312 14.34375 -2.554688 14.6875 -1.796875 C 15.03125 -1.035156 15.601562 -0.550781 16.40625 -0.34375 L 16.40625 0 L 0.859375 0 L 0.859375 -0.34375 C 1.671875 -0.550781 2.25 -1.035156 2.59375 -1.796875 C 2.9375 -2.554688 3.109375 -3.570312 3.109375 -4.84375 Z M 3.109375 -34.546875 "/></g></g></g><g fill="#000000" fill-opacity="1"><g transform="translate(224.415281, 100.302983)"><g><path d="M 28.5625 0 L 0.859375 0 L 0.859375 -0.34375 C 1.671875 -0.550781 2.25 -1.035156 2.59375 -1.796875 C 2.9375 -2.554688 3.109375 -3.570312 3.109375 -4.84375 L 3.109375 -34.546875 C 3.109375 -35.835938 2.9375 -36.859375 2.59375 -37.609375 C 2.25 -38.359375 1.671875 -38.832031 0.859375 -39.03125 L 0.859375 -39.390625 L 28.5625 -39.390625 L 28.5625 -27.5 L 28.21875 -27.5 C 28.21875 -28.257812 28.023438 -29.125 27.640625 -30.09375 C 27.265625 -31.0625 26.71875 -32.050781 26 -33.0625 C 25.289062 -34.070312 24.453125 -35 23.484375 -35.84375 C 22.523438 -36.6875 21.445312 -37.367188 20.25 -37.890625 C 19.050781 -38.421875 17.769531 -38.6875 16.40625 -38.6875 L 14.171875 -38.6875 L 14.171875 -21.390625 L 15.515625 -21.390625 C 16.367188 -21.390625 17.238281 -21.566406 18.125 -21.921875 C 19.007812 -22.273438 19.835938 -22.734375 20.609375 -23.296875 C 21.378906 -23.859375 22.019531 -24.484375 22.53125 -25.171875 C 23.050781 -25.867188 23.367188 -26.539062 23.484375 -27.1875 L 23.84375 -27.1875 L 23.84375 -14.890625 L 23.484375 -14.890625 C 23.367188 -15.554688 23.050781 -16.226562 22.53125 -16.90625 C 22.019531 -17.59375 21.378906 -18.21875 20.609375 -18.78125 C 19.835938 -19.34375 19.007812 -19.800781 18.125 -20.15625 C 17.238281 -20.507812 16.367188 -20.6875 15.515625 -20.6875 L 14.171875 -20.6875 L 14.171875 -0.6875 L 16.40625 -0.6875 C 17.769531 -0.6875 19.050781 -0.953125 20.25 -1.484375 C 21.445312 -2.015625 22.523438 -2.695312 23.484375 -3.53125 C 24.453125 -4.375 25.289062 -5.300781 26 -6.3125 C 26.71875 -7.332031 27.265625 -8.328125 27.640625 -9.296875 C 28.023438 -10.265625 28.21875 -11.128906 28.21875 -11.890625 L 28.5625 -11.890625 Z M 28.5625 0 "/></g></g></g><g fill="#000000" fill-opacity="1"><g transform="translate(252.805949, 100.302983)"><g><path d="M 0.859375 -39.03125 L 0.859375 -39.390625 L 20.796875 -39.390625 C 23.148438 -39.390625 25.109375 -38.976562 26.671875 -38.15625 C 28.234375 -37.34375 29.40625 -36.253906 30.1875 -34.890625 C 30.976562 -33.535156 31.375 -32.039062 31.375 -30.40625 C 31.375 -28.695312 31.054688 -27.273438 30.421875 -26.140625 C 29.785156 -25.015625 28.898438 -24.128906 27.765625 -23.484375 C 26.640625 -22.847656 25.332031 -22.390625 23.84375 -22.109375 C 22.363281 -21.835938 20.757812 -21.703125 19.03125 -21.703125 C 21.007812 -21.285156 22.625 -20.65625 23.875 -19.8125 C 25.132812 -18.96875 26.144531 -17.988281 26.90625 -16.875 C 27.664062 -15.757812 28.257812 -14.570312 28.6875 -13.3125 C 29.113281 -12.0625 29.460938 -10.804688 29.734375 -9.546875 C 30.015625 -8.296875 30.3125 -7.125 30.625 -6.03125 C 30.9375 -4.9375 31.363281 -3.984375 31.90625 -3.171875 C 32.445312 -2.367188 33.1875 -1.796875 34.125 -1.453125 C 34.125 -1.453125 34.050781 -1.347656 33.90625 -1.140625 C 33.757812 -0.929688 33.492188 -0.679688 33.109375 -0.390625 C 32.734375 -0.109375 32.195312 0.132812 31.5 0.34375 C 30.8125 0.550781 29.925781 0.65625 28.84375 0.65625 C 26.675781 0.65625 24.90625 0.347656 23.53125 -0.265625 C 22.164062 -0.890625 21.109375 -1.726562 20.359375 -2.78125 C 19.617188 -3.832031 19.085938 -5.003906 18.765625 -6.296875 C 18.441406 -7.597656 18.234375 -8.953125 18.140625 -10.359375 C 18.046875 -11.765625 17.972656 -13.117188 17.921875 -14.421875 C 17.878906 -15.722656 17.765625 -16.894531 17.578125 -17.9375 C 17.398438 -18.988281 17.050781 -19.828125 16.53125 -20.453125 C 16.007812 -21.078125 15.222656 -21.390625 14.171875 -21.390625 L 14.171875 -4.84375 C 14.171875 -3.570312 14.34375 -2.554688 14.6875 -1.796875 C 15.03125 -1.035156 15.601562 -0.550781 16.40625 -0.34375 L 16.40625 0 L 0.859375 0 L 0.859375 -0.34375 C 1.671875 -0.550781 2.25 -1.035156 2.59375 -1.796875 C 2.9375 -2.554688 3.109375 -3.570312 3.109375 -4.84375 L 3.109375 -34.546875 C 3.109375 -35.835938 2.9375 -36.859375 2.59375 -37.609375 C 2.25 -38.359375 1.671875 -38.832031 0.859375 -39.03125 Z M 14.859375 -38.9375 L 14.171875 -38.9375 L 14.171875 -22.078125 L 15.40625 -22.078125 C 16.28125 -22.078125 17.09375 -22.34375 17.84375 -22.875 C 18.59375 -23.40625 19.191406 -24.300781 19.640625 -25.5625 C 20.085938 -26.832031 20.3125 -28.570312 20.3125 -30.78125 C 20.3125 -32.1875 20.148438 -33.507812 19.828125 -34.75 C 19.503906 -36 18.953125 -37.007812 18.171875 -37.78125 C 17.390625 -38.550781 16.285156 -38.9375 14.859375 -38.9375 Z M 14.859375 -38.9375 "/></g></g></g><g fill="#000000" fill-opacity="1"><g transform="translate(91.95489, 134.482517)"><g><path d="M 0.859375 -39.03125 L 0.859375 -39.390625 L 12.125 -39.390625 L 28.5 -11.296875 L 28.5 -13.546875 C 28.5 -15.242188 28.382812 -17.035156 28.15625 -18.921875 C 27.925781 -20.816406 27.601562 -22.707031 27.1875 -24.59375 C 26.769531 -26.488281 26.285156 -28.28125 25.734375 -29.96875 C 25.179688 -31.664062 24.566406 -33.1875 23.890625 -34.53125 C 23.210938 -35.875 22.503906 -36.941406 21.765625 -37.734375 C 21.023438 -38.535156 20.273438 -38.96875 19.515625 -39.03125 L 19.515625 -39.390625 L 31.4375 -39.390625 L 31.4375 -39.03125 C 30.632812 -38.832031 30.054688 -38.359375 29.703125 -37.609375 C 29.359375 -36.859375 29.1875 -35.835938 29.1875 -34.546875 L 29.1875 -4.84375 C 29.1875 -3.570312 29.359375 -2.554688 29.703125 -1.796875 C 30.054688 -1.035156 30.632812 -0.550781 31.4375 -0.34375 L 31.4375 0 L 21.875 0 L 3.796875 -31.015625 L 3.796875 -29.15625 C 3.796875 -27.289062 3.90625 -25.320312 4.125 -23.25 C 4.34375 -21.175781 4.660156 -19.101562 5.078125 -17.03125 C 5.492188 -14.957031 5.988281 -12.96875 6.5625 -11.0625 C 7.132812 -9.164062 7.765625 -7.445312 8.453125 -5.90625 C 9.148438 -4.363281 9.890625 -3.109375 10.671875 -2.140625 C 11.453125 -1.171875 12.269531 -0.570312 13.125 -0.34375 L 13.125 0 L 0.859375 0 L 0.859375 -0.34375 C 1.671875 -0.550781 2.25 -1.035156 2.59375 -1.796875 C 2.9375 -2.554688 3.109375 -3.570312 3.109375 -4.84375 L 3.109375 -34.546875 C 3.109375 -35.835938 2.9375 -36.859375 2.59375 -37.609375 C 2.25 -38.359375 1.671875 -38.832031 0.859375 -39.03125 Z M 0.859375 -39.03125 "/></g></g></g><g fill="#000000" fill-opacity="1"><g transform="translate(123.212282, 134.482517)"><g><path d="M 0 0 L 0 -0.34375 C 0.4375 -0.34375 0.851562 -0.65625 1.25 -1.28125 C 1.65625 -1.90625 2.035156 -2.695312 2.390625 -3.65625 C 2.753906 -4.625 3.082031 -5.648438 3.375 -6.734375 C 3.675781 -7.816406 3.945312 -8.820312 4.1875 -9.75 C 4.78125 -12.070312 5.320312 -14.21875 5.8125 -16.1875 C 6.3125 -18.15625 6.785156 -20.039062 7.234375 -21.84375 C 7.679688 -23.65625 8.128906 -25.460938 8.578125 -27.265625 C 9.035156 -29.078125 9.515625 -30.972656 10.015625 -32.953125 C 10.523438 -34.929688 11.066406 -37.078125 11.640625 -39.390625 L 23.078125 -39.390625 C 23.671875 -37.078125 24.21875 -34.929688 24.71875 -32.953125 C 25.21875 -30.972656 25.695312 -29.078125 26.15625 -27.265625 C 26.613281 -25.460938 27.070312 -23.65625 27.53125 -21.84375 C 27.988281 -20.039062 28.457031 -18.15625 28.9375 -16.1875 C 29.425781 -14.21875 29.960938 -12.070312 30.546875 -9.75 C 30.773438 -8.820312 31.035156 -7.816406 31.328125 -6.734375 C 31.628906 -5.648438 31.957031 -4.625 32.3125 -3.65625 C 32.675781 -2.695312 33.054688 -1.90625 33.453125 -1.28125 C 33.859375 -0.65625 34.28125 -0.34375 34.71875 -0.34375 L 34.71875 0 L 17.375 0 L 17.375 -0.34375 C 18.226562 -0.988281 18.773438 -1.921875 19.015625 -3.140625 C 19.253906 -4.359375 19.3125 -5.742188 19.1875 -7.296875 C 19.0625 -8.859375 18.828125 -10.445312 18.484375 -12.0625 L 8.734375 -12.0625 C 8.960938 -9.382812 9.5 -7.054688 10.34375 -5.078125 C 11.1875 -3.097656 12.414062 -1.519531 14.03125 -0.34375 L 14.03125 0 Z M 11.953125 -38.203125 C 10.796875 -33.160156 9.910156 -28.5 9.296875 -24.21875 C 8.691406 -19.9375 8.492188 -16.113281 8.703125 -12.75 L 18.34375 -12.75 C 18.132812 -13.644531 17.921875 -14.523438 17.703125 -15.390625 C 17.484375 -16.253906 17.28125 -17.078125 17.09375 -17.859375 C 16.6875 -19.472656 16.320312 -20.910156 16 -22.171875 C 15.675781 -23.441406 15.367188 -24.644531 15.078125 -25.78125 C 14.785156 -26.925781 14.488281 -28.097656 14.1875 -29.296875 C 13.894531 -30.492188 13.566406 -31.804688 13.203125 -33.234375 C 12.847656 -34.660156 12.429688 -36.316406 11.953125 -38.203125 Z M 11.953125 -38.203125 "/></g></g></g><g fill="#000000" fill-opacity="1"><g transform="translate(156.887394, 134.482517)"><g><path d="M 0.859375 -26.078125 L 0.859375 -39.390625 L 30.78125 -39.390625 L 30.78125 -26.078125 L 30.4375 -26.078125 C 30.4375 -27.066406 30.28125 -28.128906 29.96875 -29.265625 C 29.65625 -30.410156 29.21875 -31.539062 28.65625 -32.65625 C 28.09375 -33.78125 27.4375 -34.796875 26.6875 -35.703125 C 25.9375 -36.609375 25.125 -37.332031 24.25 -37.875 C 23.375 -38.414062 22.460938 -38.6875 21.515625 -38.6875 L 21.171875 -38.6875 L 21.171875 -4.84375 C 21.171875 -3.570312 21.34375 -2.554688 21.6875 -1.796875 C 22.039062 -1.035156 22.617188 -0.550781 23.421875 -0.34375 L 23.421875 0 L 7.875 0 L 7.875 -0.34375 C 8.675781 -0.550781 9.25 -1.035156 9.59375 -1.796875 C 9.945312 -2.554688 10.125 -3.570312 10.125 -4.84375 L 10.125 -38.6875 C 9.195312 -38.6875 8.289062 -38.414062 7.40625 -37.875 C 6.519531 -37.332031 5.703125 -36.609375 4.953125 -35.703125 C 4.203125 -34.796875 3.546875 -33.78125 2.984375 -32.65625 C 2.421875 -31.539062 1.984375 -30.410156 1.671875 -29.265625 C 1.359375 -28.128906 1.203125 -27.066406 1.203125 -26.078125 Z M 0.859375 -26.078125 "/></g></g></g><g fill="#000000" fill-opacity="1"><g transform="translate(187.48855, 134.482517)"><g><path d="M 0.859375 -39.390625 L 16.40625 -39.390625 L 16.40625 -39.03125 C 15.601562 -38.832031 15.03125 -38.359375 14.6875 -37.609375 C 14.34375 -36.859375 14.171875 -35.835938 14.171875 -34.546875 L 14.171875 -5.875 C 14.171875 -5.363281 14.179688 -4.796875 14.203125 -4.171875 C 14.222656 -3.554688 14.304688 -2.953125 14.453125 -2.359375 C 14.609375 -1.773438 14.867188 -1.289062 15.234375 -0.90625 C 15.597656 -0.53125 16.128906 -0.34375 16.828125 -0.34375 C 17.566406 -0.34375 18.125 -0.519531 18.5 -0.875 C 18.875 -1.238281 19.132812 -1.707031 19.28125 -2.28125 C 19.4375 -2.851562 19.519531 -3.457031 19.53125 -4.09375 C 19.539062 -4.726562 19.546875 -5.320312 19.546875 -5.875 L 19.546875 -34.546875 C 19.546875 -35.835938 19.375 -36.859375 19.03125 -37.609375 C 18.6875 -38.359375 18.113281 -38.832031 17.3125 -39.03125 L 17.3125 -39.390625 L 32.859375 -39.390625 L 32.859375 -39.03125 C 32.046875 -38.832031 31.46875 -38.359375 31.125 -37.609375 C 30.78125 -36.859375 30.609375 -35.835938 30.609375 -34.546875 L 30.609375 -12.5 C 30.609375 -9.738281 30.140625 -7.378906 29.203125 -5.421875 C 28.273438 -3.460938 26.800781 -1.957031 24.78125 -0.90625 C 22.769531 0.132812 20.128906 0.65625 16.859375 0.65625 C 13.609375 0.65625 10.96875 0.132812 8.9375 -0.90625 C 6.914062 -1.957031 5.4375 -3.460938 4.5 -5.421875 C 3.570312 -7.378906 3.109375 -9.738281 3.109375 -12.5 L 3.109375 -34.546875 C 3.109375 -35.835938 2.9375 -36.859375 2.59375 -37.609375 C 2.25 -38.359375 1.671875 -38.832031 0.859375 -39.03125 Z M 0.859375 -39.390625 "/></g></g></g><g fill="#000000" fill-opacity="1"><g transform="translate(220.162032, 134.482517)"><g><path d="M 0.859375 -39.03125 L 0.859375 -39.390625 L 20.796875 -39.390625 C 23.148438 -39.390625 25.109375 -38.976562 26.671875 -38.15625 C 28.234375 -37.34375 29.40625 -36.253906 30.1875 -34.890625 C 30.976562 -33.535156 31.375 -32.039062 31.375 -30.40625 C 31.375 -28.695312 31.054688 -27.273438 30.421875 -26.140625 C 29.785156 -25.015625 28.898438 -24.128906 27.765625 -23.484375 C 26.640625 -22.847656 25.332031 -22.390625 23.84375 -22.109375 C 22.363281 -21.835938 20.757812 -21.703125 19.03125 -21.703125 C 21.007812 -21.285156 22.625 -20.65625 23.875 -19.8125 C 25.132812 -18.96875 26.144531 -17.988281 26.90625 -16.875 C 27.664062 -15.757812 28.257812 -14.570312 28.6875 -13.3125 C 29.113281 -12.0625 29.460938 -10.804688 29.734375 -9.546875 C 30.015625 -8.296875 30.3125 -7.125 30.625 -6.03125 C 30.9375 -4.9375 31.363281 -3.984375 31.90625 -3.171875 C 32.445312 -2.367188 33.1875 -1.796875 34.125 -1.453125 C 34.125 -1.453125 34.050781 -1.347656 33.90625 -1.140625 C 33.757812 -0.929688 33.492188 -0.679688 33.109375 -0.390625 C 32.734375 -0.109375 32.195312 0.132812 31.5 0.34375 C 30.8125 0.550781 29.925781 0.65625 28.84375 0.65625 C 26.675781 0.65625 24.90625 0.347656 23.53125 -0.265625 C 22.164062 -0.890625 21.109375 -1.726562 20.359375 -2.78125 C 19.617188 -3.832031 19.085938 -5.003906 18.765625 -6.296875 C 18.441406 -7.597656 18.234375 -8.953125 18.140625 -10.359375 C 18.046875 -11.765625 17.972656 -13.117188 17.921875 -14.421875 C 17.878906 -15.722656 17.765625 -16.894531 17.578125 -17.9375 C 17.398438 -18.988281 17.050781 -19.828125 16.53125 -20.453125 C 16.007812 -21.078125 15.222656 -21.390625 14.171875 -21.390625 L 14.171875 -4.84375 C 14.171875 -3.570312 14.34375 -2.554688 14.6875 -1.796875 C 15.03125 -1.035156 15.601562 -0.550781 16.40625 -0.34375 L 16.40625 0 L 0.859375 0 L 0.859375 -0.34375 C 1.671875 -0.550781 2.25 -1.035156 2.59375 -1.796875 C 2.9375 -2.554688 3.109375 -3.570312 3.109375 -4.84375 L 3.109375 -34.546875 C 3.109375 -35.835938 2.9375 -36.859375 2.59375 -37.609375 C 2.25 -38.359375 1.671875 -38.832031 0.859375 -39.03125 Z M 14.859375 -38.9375 L 14.171875 -38.9375 L 14.171875 -22.078125 L 15.40625 -22.078125 C 16.28125 -22.078125 17.09375 -22.34375 17.84375 -22.875 C 18.59375 -23.40625 19.191406 -24.300781 19.640625 -25.5625 C 20.085938 -26.832031 20.3125 -28.570312 20.3125 -30.78125 C 20.3125 -32.1875 20.148438 -33.507812 19.828125 -34.75 C 19.503906 -36 18.953125 -37.007812 18.171875 -37.78125 C 17.390625 -38.550781 16.285156 -38.9375 14.859375 -38.9375 Z M 14.859375 -38.9375 "/></g></g></g><g fill="#000000" fill-opacity="1"><g transform="translate(253.595368, 134.482517)"><g><path d="M 28.5625 0 L 0.859375 0 L 0.859375 -0.34375 C 1.671875 -0.550781 2.25 -1.035156 2.59375 -1.796875 C 2.9375 -2.554688 3.109375 -3.570312 3.109375 -4.84375 L 3.109375 -34.546875 C 3.109375 -35.835938 2.9375 -36.859375 2.59375 -37.609375 C 2.25 -38.359375 1.671875 -38.832031 0.859375 -39.03125 L 0.859375 -39.390625 L 28.5625 -39.390625 L 28.5625 -27.5 L 28.21875 -27.5 C 28.21875 -28.257812 28.023438 -29.125 27.640625 -30.09375 C 27.265625 -31.0625 26.71875 -32.050781 26 -33.0625 C 25.289062 -34.070312 24.453125 -35 23.484375 -35.84375 C 22.523438 -36.6875 21.445312 -37.367188 20.25 -37.890625 C 19.050781 -38.421875 17.769531 -38.6875 16.40625 -38.6875 L 14.171875 -38.6875 L 14.171875 -21.390625 L 15.515625 -21.390625 C 16.367188 -21.390625 17.238281 -21.566406 18.125 -21.921875 C 19.007812 -22.273438 19.835938 -22.734375 20.609375 -23.296875 C 21.378906 -23.859375 22.019531 -24.484375 22.53125 -25.171875 C 23.050781 -25.867188 23.367188 -26.539062 23.484375 -27.1875 L 23.84375 -27.1875 L 23.84375 -14.890625 L 23.484375 -14.890625 C 23.367188 -15.554688 23.050781 -16.226562 22.53125 -16.90625 C 22.019531 -17.59375 21.378906 -18.21875 20.609375 -18.78125 C 19.835938 -19.34375 19.007812 -19.800781 18.125 -20.15625 C 17.238281 -20.507812 16.367188 -20.6875 15.515625 -20.6875 L 14.171875 -20.6875 L 14.171875 -0.6875 L 16.40625 -0.6875 C 17.769531 -0.6875 19.050781 -0.953125 20.25 -1.484375 C 21.445312 -2.015625 22.523438 -2.695312 23.484375 -3.53125 C 24.453125 -4.375 25.289062 -5.300781 26 -6.3125 C 26.71875 -7.332031 27.265625 -8.328125 27.640625 -9.296875 C 28.023438 -10.265625 28.21875 -11.128906 28.21875 -11.890625 L 28.5625 -11.890625 Z M 28.5625 0 "/></g></g></g></g></g></g></g></g></g></mask><clipPath id="cc253870df"><path d="M 18.730469 0.25 L 355.554688 0.25 L 355.554688 206.570312 L 18.730469 206.570312 Z M 18.730469 0.25 " clip-rule="nonzero"/></clipPath><clipPath id="8286fde4dc"><rect x="0" width="375" y="0" height="207"/></clipPath><clipPath id="f239e91044"><rect x="0" width="375" y="0" height="207"/></clipPath><clipPath id="0c4fe28720"><path d="M 0 69.609375 L 375 69.609375 L 375 241.75 L 0 241.75 Z M 0 69.609375 " clip-rule="nonzero"/></clipPath><clipPath id="7d02e3b4b4"><path d="M 0 0.609375 L 375 0.609375 L 375 172.75 L 0 172.75 Z M 0 0.609375 " clip-rule="nonzero"/></clipPath><clipPath id="3892c2cf2a"><path d="M 18.730469 0.609375 L 355.554688 0.609375 L 355.554688 172.75 L 18.730469 172.75 Z M 18.730469 0.609375 " clip-rule="nonzero"/></clipPath><linearGradient x1="230.73399" gradientTransform="matrix(0.621624, 0, 0, 0.620604, 43.712901, 1.276119)" y1="-1.074574" x2="230.73399" gradientUnits="userSpaceOnUse" y2="276.301087" id="b875358f5e"><stop stop-opacity="1" stop-color="rgb(41.55426%, 72.045898%, 87.745667%)" offset="0"/><stop stop-opacity="1" stop-color="rgb(41.687012%, 72.117615%, 87.739563%)" offset="0.0078125"/><stop stop-opacity="1" stop-color="rgb(41.950989%, 72.262573%, 87.72583%)" offset="0.015625"/><stop stop-opacity="1" stop-color="rgb(42.216492%, 72.407532%, 87.713623%)" offset="0.0234375"/><stop stop-opacity="1" stop-color="rgb(42.480469%, 72.554016%, 87.701416%)" offset="0.03125"/><stop stop-opacity="1" stop-color="rgb(42.745972%, 72.698975%, 87.687683%)" offset="0.0390625"/><stop stop-opacity="1" stop-color="rgb(43.009949%, 72.843933%, 87.675476%)" offset="0.046875"/><stop stop-opacity="1" stop-color="rgb(43.275452%, 72.988892%, 87.663269%)" offset="0.0546875"/><stop stop-opacity="1" stop-color="rgb(43.539429%, 73.13385%, 87.649536%)" offset="0.0625"/><stop stop-opacity="1" stop-color="rgb(43.804932%, 73.278809%, 87.637329%)" offset="0.0703125"/><stop stop-opacity="1" stop-color="rgb(44.068909%, 73.423767%, 87.623596%)" offset="0.078125"/><stop stop-opacity="1" stop-color="rgb(44.334412%, 73.568726%, 87.611389%)" offset="0.0859375"/><stop stop-opacity="1" stop-color="rgb(44.598389%, 73.71521%, 87.599182%)" offset="0.09375"/><stop stop-opacity="1" stop-color="rgb(44.863892%, 73.860168%, 87.585449%)" offset="0.101562"/><stop stop-opacity="1" stop-color="rgb(45.127869%, 74.005127%, 87.573242%)" offset="0.109375"/><stop stop-opacity="1" stop-color="rgb(45.393372%, 74.150085%, 87.561035%)" offset="0.117187"/><stop stop-opacity="1" stop-color="rgb(45.657349%, 74.295044%, 87.547302%)" offset="0.125"/><stop stop-opacity="1" stop-color="rgb(45.922852%, 74.440002%, 87.535095%)" offset="0.132812"/><stop stop-opacity="1" stop-color="rgb(46.186829%, 74.584961%, 87.522888%)" offset="0.140625"/><stop stop-opacity="1" stop-color="rgb(46.452332%, 74.731445%, 87.509155%)" offset="0.148437"/><stop stop-opacity="1" stop-color="rgb(46.716309%, 74.876404%, 87.496948%)" offset="0.15625"/><stop stop-opacity="1" stop-color="rgb(46.981812%, 75.021362%, 87.484741%)" offset="0.164062"/><stop stop-opacity="1" stop-color="rgb(47.245789%, 75.166321%, 87.471008%)" offset="0.171875"/><stop stop-opacity="1" stop-color="rgb(47.511292%, 75.311279%, 87.458801%)" offset="0.179687"/><stop stop-opacity="1" stop-color="rgb(47.775269%, 75.456238%, 87.446594%)" offset="0.1875"/><stop stop-opacity="1" stop-color="rgb(48.039246%, 75.601196%, 87.432861%)" offset="0.195312"/><stop stop-opacity="1" stop-color="rgb(48.304749%, 75.746155%, 87.420654%)" offset="0.203125"/><stop stop-opacity="1" stop-color="rgb(48.568726%, 75.892639%, 87.408447%)" offset="0.210937"/><stop stop-opacity="1" stop-color="rgb(48.834229%, 76.037598%, 87.394714%)" offset="0.21875"/><stop stop-opacity="1" stop-color="rgb(49.098206%, 76.182556%, 87.382507%)" offset="0.226562"/><stop stop-opacity="1" stop-color="rgb(49.363708%, 76.327515%, 87.368774%)" offset="0.234375"/><stop stop-opacity="1" stop-color="rgb(49.627686%, 76.472473%, 87.356567%)" offset="0.242187"/><stop stop-opacity="1" stop-color="rgb(49.893188%, 76.617432%, 87.34436%)" offset="0.25"/><stop stop-opacity="1" stop-color="rgb(50.157166%, 76.76239%, 87.330627%)" offset="0.257812"/><stop stop-opacity="1" stop-color="rgb(50.422668%, 76.907349%, 87.31842%)" offset="0.265625"/><stop stop-opacity="1" stop-color="rgb(50.686646%, 77.053833%, 87.306213%)" offset="0.273437"/><stop stop-opacity="1" stop-color="rgb(50.952148%, 77.198792%, 87.29248%)" offset="0.28125"/><stop stop-opacity="1" stop-color="rgb(51.216125%, 77.34375%, 87.280273%)" offset="0.289062"/><stop stop-opacity="1" stop-color="rgb(51.481628%, 77.488708%, 87.268066%)" offset="0.296875"/><stop stop-opacity="1" stop-color="rgb(51.745605%, 77.633667%, 87.254333%)" offset="0.304687"/><stop stop-opacity="1" stop-color="rgb(52.011108%, 77.778625%, 87.242126%)" offset="0.3125"/><stop stop-opacity="1" stop-color="rgb(52.275085%, 77.923584%, 87.229919%)" offset="0.320312"/><stop stop-opacity="1" stop-color="rgb(52.540588%, 78.070068%, 87.216187%)" offset="0.328125"/><stop stop-opacity="1" stop-color="rgb(52.804565%, 78.215027%, 87.203979%)" offset="0.335937"/><stop stop-opacity="1" stop-color="rgb(53.070068%, 78.359985%, 87.191772%)" offset="0.34375"/><stop stop-opacity="1" stop-color="rgb(53.334045%, 78.504944%, 87.17804%)" offset="0.351562"/><stop stop-opacity="1" stop-color="rgb(53.599548%, 78.649902%, 87.165833%)" offset="0.359375"/><stop stop-opacity="1" stop-color="rgb(53.863525%, 78.794861%, 87.153625%)" offset="0.367188"/><stop stop-opacity="1" stop-color="rgb(54.129028%, 78.939819%, 87.139893%)" offset="0.375"/><stop stop-opacity="1" stop-color="rgb(54.393005%, 79.084778%, 87.127686%)" offset="0.382812"/><stop stop-opacity="1" stop-color="rgb(54.658508%, 79.231262%, 87.113953%)" offset="0.390625"/><stop stop-opacity="1" stop-color="rgb(54.922485%, 79.376221%, 87.101746%)" offset="0.398438"/><stop stop-opacity="1" stop-color="rgb(55.187988%, 79.521179%, 87.089539%)" offset="0.40625"/><stop stop-opacity="1" stop-color="rgb(55.451965%, 79.666138%, 87.075806%)" offset="0.414062"/><stop stop-opacity="1" stop-color="rgb(55.717468%, 79.811096%, 87.063599%)" offset="0.421875"/><stop stop-opacity="1" stop-color="rgb(55.981445%, 79.956055%, 87.051392%)" offset="0.429688"/><stop stop-opacity="1" stop-color="rgb(56.246948%, 80.101013%, 87.037659%)" offset="0.4375"/><stop stop-opacity="1" stop-color="rgb(56.510925%, 80.245972%, 87.025452%)" offset="0.445312"/><stop stop-opacity="1" stop-color="rgb(56.776428%, 80.392456%, 87.013245%)" offset="0.453125"/><stop stop-opacity="1" stop-color="rgb(57.040405%, 80.537415%, 86.999512%)" offset="0.460938"/><stop stop-opacity="1" stop-color="rgb(57.305908%, 80.682373%, 86.987305%)" offset="0.46875"/><stop stop-opacity="1" stop-color="rgb(57.569885%, 80.827332%, 86.975098%)" offset="0.476562"/><stop stop-opacity="1" stop-color="rgb(57.835388%, 80.97229%, 86.961365%)" offset="0.484375"/><stop stop-opacity="1" stop-color="rgb(58.099365%, 81.117249%, 86.949158%)" offset="0.492188"/><stop stop-opacity="1" stop-color="rgb(58.364868%, 81.262207%, 86.936951%)" offset="0.5"/><stop stop-opacity="1" stop-color="rgb(58.628845%, 81.407166%, 86.923218%)" offset="0.507812"/><stop stop-opacity="1" stop-color="rgb(58.894348%, 81.55365%, 86.911011%)" offset="0.515625"/><stop stop-opacity="1" stop-color="rgb(59.158325%, 81.698608%, 86.898804%)" offset="0.523438"/><stop stop-opacity="1" stop-color="rgb(59.422302%, 81.843567%, 86.885071%)" offset="0.53125"/><stop stop-opacity="1" stop-color="rgb(59.687805%, 81.988525%, 86.872864%)" offset="0.539062"/><stop stop-opacity="1" stop-color="rgb(59.951782%, 82.133484%, 86.859131%)" offset="0.546875"/><stop stop-opacity="1" stop-color="rgb(60.217285%, 82.278442%, 86.846924%)" offset="0.554688"/><stop stop-opacity="1" stop-color="rgb(60.481262%, 82.423401%, 86.834717%)" offset="0.5625"/><stop stop-opacity="1" stop-color="rgb(60.746765%, 82.569885%, 86.820984%)" offset="0.570312"/><stop stop-opacity="1" stop-color="rgb(61.010742%, 82.714844%, 86.808777%)" offset="0.578125"/><stop stop-opacity="1" stop-color="rgb(61.276245%, 82.859802%, 86.79657%)" offset="0.585938"/><stop stop-opacity="1" stop-color="rgb(61.540222%, 83.004761%, 86.782837%)" offset="0.59375"/><stop stop-opacity="1" stop-color="rgb(61.805725%, 83.149719%, 86.77063%)" offset="0.601562"/><stop stop-opacity="1" stop-color="rgb(62.069702%, 83.294678%, 86.758423%)" offset="0.609375"/><stop stop-opacity="1" stop-color="rgb(62.335205%, 83.439636%, 86.74469%)" offset="0.617188"/><stop stop-opacity="1" stop-color="rgb(62.599182%, 83.584595%, 86.732483%)" offset="0.625"/><stop stop-opacity="1" stop-color="rgb(62.864685%, 83.731079%, 86.720276%)" offset="0.632812"/><stop stop-opacity="1" stop-color="rgb(63.128662%, 83.876038%, 86.706543%)" offset="0.640625"/><stop stop-opacity="1" stop-color="rgb(63.394165%, 84.020996%, 86.694336%)" offset="0.648438"/><stop stop-opacity="1" stop-color="rgb(63.658142%, 84.165955%, 86.682129%)" offset="0.65625"/><stop stop-opacity="1" stop-color="rgb(63.85498%, 84.274292%, 86.672974%)" offset="0.6875"/><stop stop-opacity="1" stop-color="rgb(63.919067%, 84.309387%, 86.669922%)" offset="0.75"/><stop stop-opacity="1" stop-color="rgb(63.919067%, 84.309387%, 86.669922%)" offset="1"/></linearGradient><clipPath id="9dfc27a0fd"><rect x="0" width="375" y="0" height="173"/></clipPath><clipPath id="416fbbd05a"><path d="M 0 0.609375 L 375 0.609375 L 375 172.75 L 0 172.75 Z M 0 0.609375 " clip-rule="nonzero"/></clipPath><clipPath id="38c1deb93b"><rect x="0" width="375" y="0" height="173"/></clipPath><clipPath id="21d93d676d"><rect x="0" width="375" y="0" height="173"/></clipPath><mask id="e626aaf918"><g filter="url(#efbffeae8e)"><g transform="matrix(1, 0, 0, 1, 0, 0)"><g clip-path="url(#21d93d676d)"><g clip-path="url(#416fbbd05a)"><g transform="matrix(1, 0, 0, 1, 0, 0)"><g clip-path="url(#38c1deb93b)"><g fill="#000000" fill-opacity="1"><g transform="translate(90.372144, 100.662051)"><g><path d="M 0 0 L 0 -0.34375 C 0.4375 -0.34375 0.851562 -0.65625 1.25 -1.28125 C 1.65625 -1.90625 2.035156 -2.695312 2.390625 -3.65625 C 2.753906 -4.625 3.082031 -5.648438 3.375 -6.734375 C 3.675781 -7.816406 3.945312 -8.820312 4.1875 -9.75 C 4.78125 -12.070312 5.320312 -14.21875 5.8125 -16.1875 C 6.3125 -18.15625 6.785156 -20.039062 7.234375 -21.84375 C 7.679688 -23.65625 8.128906 -25.460938 8.578125 -27.265625 C 9.035156 -29.078125 9.515625 -30.972656 10.015625 -32.953125 C 10.523438 -34.929688 11.066406 -37.078125 11.640625 -39.390625 L 23.078125 -39.390625 C 23.671875 -37.078125 24.21875 -34.929688 24.71875 -32.953125 C 25.21875 -30.972656 25.695312 -29.078125 26.15625 -27.265625 C 26.613281 -25.460938 27.070312 -23.65625 27.53125 -21.84375 C 27.988281 -20.039062 28.457031 -18.15625 28.9375 -16.1875 C 29.425781 -14.21875 29.960938 -12.070312 30.546875 -9.75 C 30.773438 -8.820312 31.035156 -7.816406 31.328125 -6.734375 C 31.628906 -5.648438 31.957031 -4.625 32.3125 -3.65625 C 32.675781 -2.695312 33.054688 -1.90625 33.453125 -1.28125 C 33.859375 -0.65625 34.28125 -0.34375 34.71875 -0.34375 L 34.71875 0 L 17.375 0 L 17.375 -0.34375 C 18.226562 -0.988281 18.773438 -1.921875 19.015625 -3.140625 C 19.253906 -4.359375 19.3125 -5.742188 19.1875 -7.296875 C 19.0625 -8.859375 18.828125 -10.445312 18.484375 -12.0625 L 8.734375 -12.0625 C 8.960938 -9.382812 9.5 -7.054688 10.34375 -5.078125 C 11.1875 -3.097656 12.414062 -1.519531 14.03125 -0.34375 L 14.03125 0 Z M 11.953125 -38.203125 C 10.796875 -33.160156 9.910156 -28.5 9.296875 -24.21875 C 8.691406 -19.9375 8.492188 -16.113281 8.703125 -12.75 L 18.34375 -12.75 C 18.132812 -13.644531 17.921875 -14.523438 17.703125 -15.390625 C 17.484375 -16.253906 17.28125 -17.078125 17.09375 -17.859375 C 16.6875 -19.472656 16.320312 -20.910156 16 -22.171875 C 15.675781 -23.441406 15.367188 -24.644531 15.078125 -25.78125 C 14.785156 -26.925781 14.488281 -28.097656 14.1875 -29.296875 C 13.894531 -30.492188 13.566406 -31.804688 13.203125 -33.234375 C 12.847656 -34.660156 12.429688 -36.316406 11.953125 -38.203125 Z M 11.953125 -38.203125 "/></g></g></g><g fill="#000000" fill-opacity="1"><g transform="translate(124.047256, 100.662051)"><g><path d="M 1.546875 -19.6875 C 1.546875 -22.863281 2.003906 -25.710938 2.921875 -28.234375 C 3.847656 -30.765625 5.113281 -32.90625 6.71875 -34.65625 C 8.320312 -36.40625 10.160156 -37.738281 12.234375 -38.65625 C 14.304688 -39.582031 16.503906 -40.046875 18.828125 -40.046875 C 19.773438 -40.066406 20.582031 -40.046875 21.25 -39.984375 C 21.914062 -39.929688 22.546875 -39.863281 23.140625 -39.78125 C 23.742188 -39.695312 24.382812 -39.617188 25.0625 -39.546875 C 25.738281 -39.484375 26.539062 -39.453125 27.46875 -39.453125 C 27.8125 -39.453125 28.179688 -39.503906 28.578125 -39.609375 C 28.984375 -39.710938 29.28125 -39.878906 29.46875 -40.109375 L 29.8125 -40.109375 L 29.8125 -27.5625 L 29.46875 -27.5625 C 29.351562 -28.507812 29.128906 -29.519531 28.796875 -30.59375 C 28.460938 -31.664062 28.03125 -32.71875 27.5 -33.75 C 26.96875 -34.789062 26.335938 -35.734375 25.609375 -36.578125 C 24.890625 -37.429688 24.078125 -38.113281 23.171875 -38.625 C 22.273438 -39.132812 21.300781 -39.390625 20.25 -39.390625 C 19.1875 -39.390625 18.25 -39.03125 17.4375 -38.3125 C 16.632812 -37.59375 15.945312 -36.597656 15.375 -35.328125 C 14.800781 -34.066406 14.332031 -32.601562 13.96875 -30.9375 C 13.613281 -29.269531 13.351562 -27.472656 13.1875 -25.546875 C 13.03125 -23.617188 12.953125 -21.65625 12.953125 -19.65625 C 12.953125 -17.675781 13.03125 -15.726562 13.1875 -13.8125 C 13.351562 -11.90625 13.613281 -10.113281 13.96875 -8.4375 C 14.332031 -6.769531 14.800781 -5.300781 15.375 -4.03125 C 15.945312 -2.769531 16.632812 -1.78125 17.4375 -1.0625 C 18.25 -0.351562 19.1875 0 20.25 0 L 20.25 -17.375 C 20.25 -18.664062 20.070312 -19.6875 19.71875 -20.4375 C 19.375 -21.1875 18.800781 -21.664062 18 -21.875 L 18 -22.21875 L 33.546875 -22.21875 L 33.546875 -21.875 C 32.734375 -21.664062 32.15625 -21.1875 31.8125 -20.4375 C 31.46875 -19.6875 31.296875 -18.664062 31.296875 -17.375 L 31.296875 -2.171875 C 31.296875 -2.171875 31.015625 -2.023438 30.453125 -1.734375 C 29.890625 -1.453125 29.070312 -1.125 28 -0.75 C 26.925781 -0.382812 25.617188 -0.0625 24.078125 0.21875 C 22.535156 0.507812 20.785156 0.65625 18.828125 0.65625 C 16.503906 0.65625 14.304688 0.195312 12.234375 -0.71875 C 10.160156 -1.644531 8.320312 -2.984375 6.71875 -4.734375 C 5.113281 -6.484375 3.847656 -8.617188 2.921875 -11.140625 C 2.003906 -13.660156 1.546875 -16.507812 1.546875 -19.6875 Z M 1.546875 -19.6875 "/></g></g></g><g fill="#000000" fill-opacity="1"><g transform="translate(157.411521, 100.662051)"><g><path d="M 28.5625 0 L 0.859375 0 L 0.859375 -0.34375 C 1.671875 -0.550781 2.25 -1.035156 2.59375 -1.796875 C 2.9375 -2.554688 3.109375 -3.570312 3.109375 -4.84375 L 3.109375 -34.546875 C 3.109375 -35.835938 2.9375 -36.859375 2.59375 -37.609375 C 2.25 -38.359375 1.671875 -38.832031 0.859375 -39.03125 L 0.859375 -39.390625 L 28.5625 -39.390625 L 28.5625 -27.5 L 28.21875 -27.5 C 28.21875 -28.257812 28.023438 -29.125 27.640625 -30.09375 C 27.265625 -31.0625 26.71875 -32.050781 26 -33.0625 C 25.289062 -34.070312 24.453125 -35 23.484375 -35.84375 C 22.523438 -36.6875 21.445312 -37.367188 20.25 -37.890625 C 19.050781 -38.421875 17.769531 -38.6875 16.40625 -38.6875 L 14.171875 -38.6875 L 14.171875 -21.390625 L 15.515625 -21.390625 C 16.367188 -21.390625 17.238281 -21.566406 18.125 -21.921875 C 19.007812 -22.273438 19.835938 -22.734375 20.609375 -23.296875 C 21.378906 -23.859375 22.019531 -24.484375 22.53125 -25.171875 C 23.050781 -25.867188 23.367188 -26.539062 23.484375 -27.1875 L 23.84375 -27.1875 L 23.84375 -14.890625 L 23.484375 -14.890625 C 23.367188 -15.554688 23.050781 -16.226562 22.53125 -16.90625 C 22.019531 -17.59375 21.378906 -18.21875 20.609375 -18.78125 C 19.835938 -19.34375 19.007812 -19.800781 18.125 -20.15625 C 17.238281 -20.507812 16.367188 -20.6875 15.515625 -20.6875 L 14.171875 -20.6875 L 14.171875 -0.6875 L 16.40625 -0.6875 C 17.769531 -0.6875 19.050781 -0.953125 20.25 -1.484375 C 21.445312 -2.015625 22.523438 -2.695312 23.484375 -3.53125 C 24.453125 -4.375 25.289062 -5.300781 26 -6.3125 C 26.71875 -7.332031 27.265625 -8.328125 27.640625 -9.296875 C 28.023438 -10.265625 28.21875 -11.128906 28.21875 -11.890625 L 28.5625 -11.890625 Z M 28.5625 0 "/></g></g></g><g fill="#000000" fill-opacity="1"><g transform="translate(185.802188, 100.662051)"><g><path d="M 0.859375 -39.03125 L 0.859375 -39.390625 L 12.125 -39.390625 L 28.5 -11.296875 L 28.5 -13.546875 C 28.5 -15.242188 28.382812 -17.035156 28.15625 -18.921875 C 27.925781 -20.816406 27.601562 -22.707031 27.1875 -24.59375 C 26.769531 -26.488281 26.285156 -28.28125 25.734375 -29.96875 C 25.179688 -31.664062 24.566406 -33.1875 23.890625 -34.53125 C 23.210938 -35.875 22.503906 -36.941406 21.765625 -37.734375 C 21.023438 -38.535156 20.273438 -38.96875 19.515625 -39.03125 L 19.515625 -39.390625 L 31.4375 -39.390625 L 31.4375 -39.03125 C 30.632812 -38.832031 30.054688 -38.359375 29.703125 -37.609375 C 29.359375 -36.859375 29.1875 -35.835938 29.1875 -34.546875 L 29.1875 -4.84375 C 29.1875 -3.570312 29.359375 -2.554688 29.703125 -1.796875 C 30.054688 -1.035156 30.632812 -0.550781 31.4375 -0.34375 L 31.4375 0 L 21.875 0 L 3.796875 -31.015625 L 3.796875 -29.15625 C 3.796875 -27.289062 3.90625 -25.320312 4.125 -23.25 C 4.34375 -21.175781 4.660156 -19.101562 5.078125 -17.03125 C 5.492188 -14.957031 5.988281 -12.96875 6.5625 -11.0625 C 7.132812 -9.164062 7.765625 -7.445312 8.453125 -5.90625 C 9.148438 -4.363281 9.890625 -3.109375 10.671875 -2.140625 C 11.453125 -1.171875 12.269531 -0.570312 13.125 -0.34375 L 13.125 0 L 0.859375 0 L 0.859375 -0.34375 C 1.671875 -0.550781 2.25 -1.035156 2.59375 -1.796875 C 2.9375 -2.554688 3.109375 -3.570312 3.109375 -4.84375 L 3.109375 -34.546875 C 3.109375 -35.835938 2.9375 -36.859375 2.59375 -37.609375 C 2.25 -38.359375 1.671875 -38.832031 0.859375 -39.03125 Z M 0.859375 -39.03125 "/></g></g></g><g fill="#000000" fill-opacity="1"><g transform="translate(217.059581, 100.662051)"><g><path d="M 1.546875 -19.6875 C 1.546875 -22.863281 2.003906 -25.710938 2.921875 -28.234375 C 3.847656 -30.765625 5.113281 -32.90625 6.71875 -34.65625 C 8.320312 -36.40625 10.160156 -37.738281 12.234375 -38.65625 C 14.304688 -39.582031 16.503906 -40.046875 18.828125 -40.046875 C 19.773438 -40.046875 20.582031 -40.007812 21.25 -39.9375 C 21.914062 -39.863281 22.546875 -39.785156 23.140625 -39.703125 C 23.742188 -39.628906 24.382812 -39.554688 25.0625 -39.484375 C 25.738281 -39.421875 26.539062 -39.390625 27.46875 -39.390625 C 27.8125 -39.390625 28.179688 -39.4375 28.578125 -39.53125 C 28.984375 -39.632812 29.28125 -39.804688 29.46875 -40.046875 L 29.8125 -40.046875 L 29.8125 -27.5 L 29.46875 -27.5 C 29.351562 -28.445312 29.128906 -29.453125 28.796875 -30.515625 C 28.460938 -31.585938 28.03125 -32.640625 27.5 -33.671875 C 26.96875 -34.710938 26.335938 -35.660156 25.609375 -36.515625 C 24.890625 -37.367188 24.078125 -38.046875 23.171875 -38.546875 C 22.273438 -39.054688 21.300781 -39.3125 20.25 -39.3125 C 18.90625 -39.3125 17.773438 -38.765625 16.859375 -37.671875 C 15.941406 -36.578125 15.191406 -35.097656 14.609375 -33.234375 C 14.035156 -31.367188 13.613281 -29.265625 13.34375 -26.921875 C 13.082031 -24.585938 12.953125 -22.164062 12.953125 -19.65625 C 12.953125 -17.675781 13.03125 -15.726562 13.1875 -13.8125 C 13.351562 -11.90625 13.613281 -10.113281 13.96875 -8.4375 C 14.332031 -6.769531 14.800781 -5.300781 15.375 -4.03125 C 15.945312 -2.769531 16.632812 -1.78125 17.4375 -1.0625 C 18.25 -0.351562 19.1875 0 20.25 0 C 21.125 0 21.941406 -0.273438 22.703125 -0.828125 C 23.460938 -1.378906 24.15625 -2.113281 24.78125 -3.03125 C 25.414062 -3.957031 25.984375 -4.972656 26.484375 -6.078125 C 26.992188 -7.179688 27.445312 -8.285156 27.84375 -9.390625 C 28.238281 -10.503906 28.566406 -11.53125 28.828125 -12.46875 C 29.097656 -13.414062 29.3125 -14.164062 29.46875 -14.71875 L 29.8125 -14.71875 L 29.8125 -2.171875 C 29.8125 -2.171875 29.601562 -2.023438 29.1875 -1.734375 C 28.769531 -1.453125 28.125 -1.125 27.25 -0.75 C 26.375 -0.382812 25.238281 -0.0625 23.84375 0.21875 C 22.457031 0.507812 20.785156 0.65625 18.828125 0.65625 C 16.503906 0.65625 14.304688 0.195312 12.234375 -0.71875 C 10.160156 -1.644531 8.320312 -2.984375 6.71875 -4.734375 C 5.113281 -6.484375 3.847656 -8.617188 2.921875 -11.140625 C 2.003906 -13.660156 1.546875 -16.507812 1.546875 -19.6875 Z M 1.546875 -19.6875 "/></g></g></g><g fill="#000000" fill-opacity="1"><g transform="translate(247.384425, 100.662051)"><g><path d="M 0 -39.03125 L 0 -39.390625 L 17.578125 -39.390625 L 17.578125 -39.03125 C 16.796875 -38.800781 16.269531 -38.378906 16 -37.765625 C 15.738281 -37.160156 15.671875 -36.421875 15.796875 -35.546875 C 15.929688 -34.671875 16.203125 -33.703125 16.609375 -32.640625 C 17.023438 -31.585938 17.523438 -30.484375 18.109375 -29.328125 C 19.003906 -27.597656 19.773438 -26.117188 20.421875 -24.890625 C 21.066406 -23.660156 21.648438 -22.5625 22.171875 -21.59375 C 22.703125 -20.625 23.210938 -19.65625 23.703125 -18.6875 C 24.160156 -19.695312 24.6875 -20.847656 25.28125 -22.140625 C 25.882812 -23.429688 26.476562 -24.753906 27.0625 -26.109375 C 27.65625 -27.472656 28.15625 -28.753906 28.5625 -29.953125 C 29.144531 -31.566406 29.300781 -33.0625 29.03125 -34.4375 C 28.769531 -35.820312 28.160156 -36.929688 27.203125 -37.765625 C 26.242188 -38.609375 25.019531 -39.03125 23.53125 -39.03125 L 23.53125 -39.390625 L 37.234375 -39.390625 L 37.234375 -39.03125 C 36.617188 -39.03125 36.003906 -38.757812 35.390625 -38.21875 C 34.785156 -37.6875 34.175781 -36.96875 33.5625 -36.0625 C 32.945312 -35.164062 32.347656 -34.175781 31.765625 -33.09375 C 31.179688 -32.007812 30.613281 -30.914062 30.0625 -29.8125 C 29.363281 -28.457031 28.78125 -27.320312 28.3125 -26.40625 C 27.84375 -25.5 27.4375 -24.722656 27.09375 -24.078125 C 26.757812 -23.429688 26.445312 -22.820312 26.15625 -22.25 C 25.875 -21.675781 25.566406 -21.046875 25.234375 -20.359375 C 24.898438 -19.679688 24.503906 -18.835938 24.046875 -17.828125 L 24.046875 -4.84375 C 24.046875 -3.570312 24.21875 -2.554688 24.5625 -1.796875 C 24.90625 -1.035156 25.484375 -0.550781 26.296875 -0.34375 L 26.296875 0 L 10.75 0 L 10.75 -0.34375 C 11.550781 -0.550781 12.117188 -1.03125 12.453125 -1.78125 C 12.785156 -2.53125 12.960938 -3.550781 12.984375 -4.84375 L 13.203125 -17.75 C 12.710938 -18.769531 12.300781 -19.617188 11.96875 -20.296875 C 11.632812 -20.972656 11.320312 -21.597656 11.03125 -22.171875 C 10.75 -22.753906 10.445312 -23.367188 10.125 -24.015625 C 9.800781 -24.660156 9.398438 -25.4375 8.921875 -26.34375 C 8.453125 -27.25 7.875 -28.382812 7.1875 -29.75 C 6.632812 -30.851562 6.0625 -31.953125 5.46875 -33.046875 C 4.882812 -34.140625 4.285156 -35.140625 3.671875 -36.046875 C 3.066406 -36.960938 2.457031 -37.6875 1.84375 -38.21875 C 1.238281 -38.757812 0.625 -39.03125 0 -39.03125 Z M 0 -39.03125 "/></g></g></g></g></g></g></g></g></g></mask><clipPath id="0f053f7935"><path d="M 18.730469 0.609375 L 355.554688 0.609375 L 355.554688 172.75 L 18.730469 172.75 Z M 18.730469 0.609375 " clip-rule="nonzero"/></clipPath><clipPath id="1391f6ada8"><rect x="0" width="375" y="0" height="173"/></clipPath><clipPath id="34950cac3a"><rect x="0" width="375" y="0" height="173"/></clipPath><clipPath id="8fd70d4189"><rect x="0" width="375" y="0" height="243"/></clipPath></defs><rect x="-37.5" width="450" fill="#ffffff" y="-37.499999" height="449.999989" fill-opacity="1"/><rect x="-37.5" width="450" fill="#ffffff" y="-37.499999" height="449.999989" fill-opacity="1"/><g transform="matrix(1, 0, 0, 1, 0, 66)"><g clip-path="url(#8fd70d4189)"><g clip-path="url(#77155d9eb4)"><g transform="matrix(1, 0, 0, 1, 0, 1)"><g clip-path="url(#f239e91044)"><g clip-path="url(#82f78cac5e)"><g mask="url(#4e3c3c3bbb)"><g transform="matrix(1, 0, 0, 1, 0, 0)"><g clip-path="url(#8286fde4dc)"><g clip-path="url(#cc253870df)"><path fill="url(#08039d7e89)" d="M 18.730469 0.25 L 18.730469 206.570312 L 355.554688 206.570312 L 355.554688 0.25 Z M 18.730469 0.25 " fill-rule="nonzero"/></g></g></g></g></g></g></g></g><g clip-path="url(#0c4fe28720)"><g transform="matrix(1, 0, 0, 1, 0, 69)"><g clip-path="url(#34950cac3a)"><g clip-path="url(#7d02e3b4b4)"><g mask="url(#e626aaf918)"><g transform="matrix(1, 0, 0, 1, 0, 0)"><g clip-path="url(#1391f6ada8)"><g clip-path="url(#0f053f7935)"><path fill="url(#b875358f5e)" d="M 18.730469 0.609375 L 18.730469 172.75 L 355.554688 172.75 L 355.554688 0.609375 Z M 18.730469 0.609375 " fill-rule="nonzero"/></g></g></g></g></g></g></g></g></g></g></svg>